<svg id="_10" data-name="10" xmlns="http://www.w3.org/2000/svg" viewBox="0 0 512 433.33"><defs><style>.cls-1{fill:#4b4b4b;}</style></defs><title>icon_attract</title><path class="cls-1" d="M424.38,361.07a49.79,49.79,0,0,0-40-37.87l-.2-.05a52.21,52.21,0,0,0-8.15-.69l-.36,0h-.46c-.87,0-1.72-.13-2.6-.08h-.36l-22.61,2.31-8.91.85a40.35,40.35,0,0,0,1.37-18.38,41.29,41.29,0,0,0-13.17-24.21l-43.75-39.07a72.9,72.9,0,0,0-61.39-17.49L139.84,241a44,44,0,0,0-13.39,4.53,23.16,23.16,0,0,0-12.25-6.68.7.7,0,0,0-.14,0,23,23,0,0,0-4.63-.48h-.09l-.21,0a24.44,24.44,0,0,0-3.31.08l-44.41,6.88a33,33,0,0,0-14.27-5.84l-.14,0a32.84,32.84,0,0,0-10.39-.14L0,245V387l0,22H0v.16l61.39-9.52a33.2,33.2,0,0,0,21.88-13.24l44.41-6.95a23,23,0,0,0,14.85-8.7,43.64,43.64,0,0,0,14.49.51l25.6-3.51,46,48.43a55.43,55.43,0,0,0,44.78,17l.29-.08L380,422.23a50.35,50.35,0,0,0,35-18.87,50.91,50.91,0,0,0,10.1-38.63C424.89,363.49,424.67,362.24,424.38,361.07ZM377,388.14,270.44,399a21.1,21.1,0,0,1-17-6.51l-49.83-52.39a23.3,23.3,0,0,0-20-7.09l-31.17,4.24a10.46,10.46,0,0,1-7.68-2.05l-7.76-50a10.62,10.62,0,0,1,8.71-10.54l84-14.56a38.79,38.79,0,0,1,32.63,9.37l43.75,39a6.59,6.59,0,0,1,2.13,4,6.4,6.4,0,0,1-.59,3.81,16.44,16.44,0,0,1-17.48,9.17c-.31-.05-.63-.09-.94-.15a16.68,16.68,0,0,1-3.08-1l-.44-.23a16.62,16.62,0,0,1-2.93-1.74l-22.17-16.82a8.32,8.32,0,0,0-12.73,3.36l-1.32,2.92a7.94,7.94,0,0,0-.59,4.69,8.47,8.47,0,0,0,2,4.31l32.56,35.49A20.72,20.72,0,0,0,297.22,363l77.41-6.36A15.76,15.76,0,0,1,391,368.75c.07.44.15.81.22,1.17A15.84,15.84,0,0,1,377,388.14Zm-265-40.9L87.75,351,76.41,277.66l24.14-3.73,2.27,14.49,9.08,58.38Z"/><path class="cls-1" d="M506.56,74,494,72.26h0l-.16,0L475.92,199.39a6.45,6.45,0,0,1-7.21,5.36L232.8,171.32l-.54-.08h0l-.16,0L230,185.94a6.31,6.31,0,0,0,5.36,7.12l249.33,35.29a6.43,6.43,0,0,0,7.21-5.36l20-141.79A6.29,6.29,0,0,0,506.56,74Z"/><polygon class="cls-1" points="353.16 75.2 351.56 76.72 350.76 77.52 347.24 81.04 346.23 81.97 346.12 82.06 342.92 76.4 342.36 75.44 341.32 73.52 332.52 57.91 323.48 56.63 319.96 56.12 318.09 55.76 318.15 55.85 318.04 55.84 317.96 55.84 328.12 73.84 328.36 74.32 328.44 74.32 334.84 85.68 335 86.08 335.03 86.15 335.04 86.24 317.7 83.79 317.63 83.78 317.63 83.78 317.48 83.76 316.46 90.94 316.46 90.96 316.46 90.96 316.43 91.12 338.68 94.24 337.48 102.4 315.61 99.34 315.39 99.3 315.39 99.31 315.24 99.28 314.23 106.41 314.22 106.49 314.22 106.49 314.2 106.65 336.44 109.77 333.8 128.65 345.08 130.25 345.08 130.09 346.12 122.73 347.72 111.37 354.69 112.33 369.25 114.41 369.97 114.49 371.01 107.29 371.01 107.2 364.69 106.33 350.12 104.17 349 102.24 349.96 95.84 359.49 97.2 372.21 98.96 373.25 91.76 373.25 91.68 362.2 90.08 360.76 89.87 356.04 88.65 365.33 79.6 365.73 79.2 374.85 70.24 379.29 65.93 380.43 64.87 380.38 64.87 380.45 64.8 380.45 64.71 365.89 62.64 353.16 75.2"/><path class="cls-1" d="M208.73,154.42l6.24.88,19,2.72,48.17,6.8,165.63,23.44,10.33,1.44a6.31,6.31,0,0,0,7.12-5.35l1.2-8.73,7.92-56,7-49.21,3-20.89,1-7a6.3,6.3,0,0,0-5.35-7.12L230.58.06a6.32,6.32,0,0,0-7.13,5.36L203.37,147.3A6.31,6.31,0,0,0,208.73,154.42Zm244-62.5-6.24,44.41a29.2,29.2,0,0,0-14.81,3.52,28.5,28.5,0,0,0-5.36,3.76,29.22,29.22,0,0,0-9.2,14.73l-43-6.08-11.28-1.61L262.59,136.49l-5.85-.8a29.91,29.91,0,0,0-15.76-27c-.7-.37-1.52-.55-2.26-.86s-1.81-.74-2.79-1.07c-.41-.13-.78-.36-1.19-.47l7.44-52.89a26.63,26.63,0,0,0,6.72-.64,29.49,29.49,0,0,0,18.65-12.64,28.37,28.37,0,0,0,4-8.8L431.9,54.07a28.84,28.84,0,0,0,1.36,9.52,29.6,29.6,0,0,0,20.65,19.85Z"/><polygon class="cls-1" points="254.88 79.97 254.1 79.86 254.1 79.86 253.94 79.84 253.38 84.24 283.71 88.56 305.15 91.6 305.79 87.28 305.79 87.2 288.99 84.8 254.88 79.97"/><polygon class="cls-1" points="382.88 102.38 382.87 102.4 382.87 102.4 382.85 102.56 390.21 103.6 404.78 105.69 434.62 109.93 435.26 105.61 435.26 105.52 383.49 98.16 382.88 102.38"/></svg>