<svg id="_10" data-name="10" xmlns="http://www.w3.org/2000/svg" viewBox="0 0 512 512"><defs><style>.cls-1{fill:#4b4b4b;}</style></defs><title>icon_save</title><path class="cls-1" d="M308.92,82.1a5.08,5.08,0,0,0,5.86-3.7l7.62-29.32a5.07,5.07,0,0,0-3.95-6.24l-3.84-.74a5.05,5.05,0,0,0-6,4.34L304.85,76.5A5.06,5.06,0,0,0,308.92,82.1Z"/><path class="cls-1" d="M249.63,91.82A5.06,5.06,0,0,0,258,86.15L242.64,60a5.05,5.05,0,0,0-7.2-1.62l-3.24,2.19a5.06,5.06,0,0,0-1.16,7.3Z"/><path class="cls-1" d="M360.4,113.08l26.13-15.34a5.06,5.06,0,0,0,1.62-7.21L386,87.28a5.07,5.07,0,0,0-7.3-1.15l-23.93,18.59a5.06,5.06,0,0,0,5.67,8.36Z"/><path class="cls-1" d="M502.16,282.56l-.64-.88-.08-.08a45.35,45.35,0,0,1-11.12,7.12c-.08,0-.16.08-.24.16A54.91,54.91,0,0,1,484,291c-.08,0-.16.08-.24.08a49,49,0,0,1-15.68,1.73c-.18,0-.36,0-.54-.05a47.86,47.86,0,0,1-15.06-3.36c-.3-.16-.6-.24-.83-.38l0,0c9.28-12.16,12.07-28.32,7-44.07A22.06,22.06,0,0,0,416,245c-4.72,14.88-2.47,30.08,5.69,42,.47.71.86,1.42,1.33,2.13l0,0a46.58,46.58,0,0,1-13.19,3.44,3.42,3.42,0,0,0-.8.16,131.16,131.16,0,0,0-17.68-60.32,129.48,129.48,0,0,0-35.16-39.2c-.33-.25-.62-.54-.95-.79h0l-.13-.1a75.45,75.45,0,0,1-62.07,31.92l-2.09-.08a75.39,75.39,0,0,1-53.27-23.76A74.38,74.38,0,0,1,219.21,167H186.89c-13.52-13.6-30.48-28.16-66-39a9.49,9.49,0,0,0-8.72,1.52,9.67,9.67,0,0,0-3.68,8c.64,18.32,7.6,19.92,13.2,40.8a133.84,133.84,0,0,0-57,48.4c-8.16,12.56-30.4,19.76-47.6,21.2a18.5,18.5,0,0,0-13.44,7.52,19,19,0,0,0-3.28,15.2l11.52,52.71a34.31,34.31,0,0,0,33.68,27c6.24.08,9.12,1,10.24,1.44,11.44,33.44,24.32,54.23,61,68.39l8,27.2A22.75,22.75,0,0,0,147.45,470h24.08a22.82,22.82,0,0,0,22.72-22.73l8-17.36h56.07v17.36A22.77,22.77,0,0,0,281.05,470h24a22.76,22.76,0,0,0,22.71-22.73l8-27.36a110.42,110.42,0,0,0,54.64-48.39,1.75,1.75,0,0,1,.24-.4c1.28-2.32,2.48-4.64,3.68-7a2.4,2.4,0,0,1,.32-.64c1.12-2.4,2.24-4.88,3.28-7.44a1.14,1.14,0,0,1,.16-.48,160.74,160.74,0,0,0,10.56-45.28,61.38,61.38,0,0,0,22.08-5.61c2.24-.95,4.4-2.07,6.48-3.19h.08a.42.42,0,0,0,.32-.16,62.71,62.71,0,0,0,32.88,9.12c15,0,30-5,41.52-15.28ZM146.65,285a22.68,22.68,0,1,1,22.72-22.64A22.74,22.74,0,0,1,146.65,285Zm295.43-11a27.61,27.61,0,0,1-2.68,4.12,20.21,20.21,0,0,1-1.78,1.83l0,0c0,.05,0,.07-.05.1s-.17.19-.28.29a29,29,0,0,1-5.35-28.63c1.36-3.84,3.44-4.48,5.68-4.48s4.4.64,5.68,4.48A29,29,0,0,1,442.08,274.08Z"/><path class="cls-1" d="M240.83,146.63A52.18,52.18,0,1,0,294.4,95.87,52.17,52.17,0,0,0,240.83,146.63ZM274,123.4l6.89.18,8,11,1,1.34,2.66,3.68.59.89,0,0,.1.13.69-.81,3-3.67,1-1.29,8.55-10.56,4.54.12,6.51.4-3.73,4.47-6.05,7.49-4,5-2.39,2.81h.11l-.13.15,10.15.73,3,.08-.05,2-.38,3.59h0l-16.75-.45-.16,6.06v0h0v.16l17,.46-.05,2-.38,3.57h0l-16.55-.44h-.2L296.54,177l-8.64-.24.38-14.29v-.19l-17-.46.15-5.62,17,.47.16-6.09v-.18l-17-.45.16-5.63,8.35.23,5,.23-.07-.1h.2l-2.27-3.26-4-5.5-3.76-5.19L270,123.2Z"/></svg>