<svg id="レイヤー_1" data-name="レイヤー 1" xmlns="http://www.w3.org/2000/svg" viewBox="0 0 87.38 79.21"><defs><style>.cls-1{fill:#fff;}</style></defs><title>icon_increase</title><path class="cls-1" d="M57,7.51,56,8.78l1.79,2.09H53c-.54-.58-1.08-1.13-1.6-1.64V8.5a6.55,6.55,0,0,0-.25-1.82h6.6Zm.27,14.07a11,11,0,0,1-2.59,8.8c-1.64,1.86-4.76,4.06-10.36,4.1H42.2L40,34.1h0a18.16,18.16,0,0,1-3.6-1.54h0a10.76,10.76,0,0,1-2.66-2.18,11.09,11.09,0,0,1-2.58-8.8c.48-4,4-9,7.27-12h0a3.81,3.81,0,0,1,1.1-3.84h0l-1.09-2A2.09,2.09,0,0,1,38.31,2,2,2,0,0,1,39.53.79a14.42,14.42,0,0,1,9.4,0A2,2,0,0,1,50.14,2,2.07,2.07,0,0,1,50,3.72L49,5.72h0a3.9,3.9,0,0,1,1.22,2.84,4.68,4.68,0,0,1,0,.53,4.21,4.21,0,0,1-.09.49h0c3.22,3,6.73,8,7.22,12Zm-16-13a.77.77,0,0,0,.7.83h4.56a.64.64,0,0,0,.37-.13.82.82,0,0,0,.31-.58V8.58A1,1,0,0,0,47,8a.63.63,0,0,0-.38-.26H42a.6.6,0,0,0-.53.3.84.84,0,0,0-.17.53ZM34,21.94c-.6,4.88,2.52,9.58,10.15,9.58s10.74-4.7,10.13-9.58c-.41-3.33-3.78-7.89-6.42-10.25h0a3.19,3.19,0,0,1-1.42.34H42a3.2,3.2,0,0,1-1.43-.34h0C37.88,14.05,34.5,18.61,34,21.94ZM47.62,2.79a12.1,12.1,0,0,0-7,.06h0l.16.31,1.06,2,.23.42h4.38l.22-.42,1.22-2.25h0ZM40,17.23h0l2.8,3.65H40.45v1h3V23h-3v1h3v2.56H45V24.06h3v-1H45V22h3V21H45.62v-.06l2.55-3.32.25-.31h-2L44.35,20l-.11.13h0l-2.26-3H40ZM39,38.56H29.38a9.93,9.93,0,0,1,.37,2.66,9.69,9.69,0,0,1-.05,1.07c.77.74,1.56,1.54,2.34,2.4h7l-2.6-3.06L38,39.75Zm-.63,21.75a16.15,16.15,0,0,1-3.79,12.86c-2.4,2.71-7,5.94-15.14,6l-3.15,0-3.21-.5h0a25.92,25.92,0,0,1-5.28-2.26h0a15.79,15.79,0,0,1-7.66-16C.88,54.48,6,47.14,10.8,42.79h0a5.66,5.66,0,0,1-.2-1.47,5.56,5.56,0,0,1,1.81-4.14h0l-1.6-2.94a3,3,0,0,1-.18-2.55A2.89,2.89,0,0,1,12.42,30a21.08,21.08,0,0,1,13.72,0,3,3,0,0,1,1.61,4.29l-1.59,2.93h0A5.66,5.66,0,0,1,28,41.32c0,.25,0,.51-.06.76a3,3,0,0,1-.14.72h0c4.79,4.33,9.92,11.66,10.64,17.51ZM15,41.31a1.13,1.13,0,0,0,1,1.2h6.67a.91.91,0,0,0,.54-.19,1.2,1.2,0,0,0,.45-.85v-.16a1.31,1.31,0,0,0-.23-.79.9.9,0,0,0-.56-.39.38.38,0,0,0-.21,0H16a.89.89,0,0,0-.76.44,1.22,1.22,0,0,0-.25.74ZM4.46,60.84c-.87,7.13,3.68,14,14.82,14S35,68,34.09,60.84c-.6-4.86-5.53-11.53-9.39-15h0a4.81,4.81,0,0,1-2.07.49H16a4.54,4.54,0,0,1-2.08-.51h0C10,49.31,5,56,4.46,60.84Zm19.78-28a17.75,17.75,0,0,0-10.26.1h0l.24.45,1.54,2.85.33.62h6.4l.33-.62L24.6,33h0ZM13.12,54h0l4.09,5.33.05.06h-3.5v1.42h4.4v1.61h-4.4v1.44h4.4V67.6H20.4V63.93h4.41V62.47H20.4V60.86h4.41V59.41H21.32l.06-.09,3.73-4.85.35-.45H22.59L19.46,58.1l-.16.2h0L16,54ZM87.35,38.6H77.72A9.91,9.91,0,0,1,78,41.2a9.55,9.55,0,0,1,0,1.07c.77.74,1.56,1.54,2.34,2.4h7l-2.6-3.06,1.57-1.86Zm-.63,21.75a16.14,16.14,0,0,1-3.79,12.86c-2.39,2.71-7,5.94-15.14,6l-3.15-.11-3.2-.5h0a25.69,25.69,0,0,1-5.26-2.24h0a15.7,15.7,0,0,1-3.88-3.19,16.1,16.1,0,0,1-3.78-12.86c.71-5.83,5.84-13.17,10.63-17.52h0a5.66,5.66,0,0,1-.2-1.47,5.56,5.56,0,0,1,1.81-4.14h0l-1.6-2.94A3,3,0,0,1,59,31.69,2.87,2.87,0,0,1,60.77,30a21.08,21.08,0,0,1,13.72,0,2.92,2.92,0,0,1,1.77,1.72,3,3,0,0,1-.16,2.57l-1.59,2.93h0a5.66,5.66,0,0,1,1.79,4.15,4.87,4.87,0,0,1-.06.76,4.57,4.57,0,0,1-.14.72h0C80.87,47.13,86,54.46,86.72,60.31Zm-23.45-19a1.13,1.13,0,0,0,1,1.2h6.67a1,1,0,0,0,.54-.19,1.24,1.24,0,0,0,.45-.85v-.16a1.39,1.39,0,0,0-.24-.79.9.9,0,0,0-.55-.39.37.37,0,0,0-.21,0H64.29a.89.89,0,0,0-.77.44,1.24,1.24,0,0,0-.25.7ZM52.79,60.84c-.87,7.13,3.69,14,14.83,14s15.69-6.86,14.81-14C81.82,56,76.9,49.31,73,45.84h0a5,5,0,0,1-2.07.49H64.29a4.41,4.41,0,0,1-2.08-.51h0C58.35,49.31,53.41,56,52.79,60.84Zm19.78-28a17.75,17.75,0,0,0-10.26.1h0l.24.45,1.55,2.85.32.62h6.41l.32-.62L72.93,33h0ZM61.45,54h0l4.1,5.33v.06H62.1v1.42h4.4v1.61H62.1v1.44h4.4V67.6h2.23V63.93h4.41V62.47H68.73V60.86h4.41V59.41H69.65l.06-.09,3.73-4.85L73.8,54H70.92L67.79,58.1l-.15.2h0L64.31,54Z"/></svg>