<svg id="_10" data-name=" 10" xmlns="http://www.w3.org/2000/svg" viewBox="0 0 429.74 512.04"><defs><style>.cls-1{fill:#374149;}</style></defs><title>icon_earn</title><path class="cls-1" d="M429.12,131.28l-93.06-120a3.11,3.11,0,0,0-4.3-.54l-18,14L342.2,61.4a26.06,26.06,0,0,0,5.53-3.31L372.26,89.7l14.35,18.64h0a24.1,24.1,0,0,0-5.68,6.15,27,27,0,0,0-3.54,24.59,29.5,29.5,0,0,0,4.31,8.15l-61.48,47.64,32.12-.15,76.23-59.17A3.07,3.07,0,0,0,429.12,131.28Z"/><polygon class="cls-1" points="230.27 133.79 230.26 133.79 230.26 133.79 230.17 133.66 211.34 148.26 205.96 141.34 224.57 126.91 224.66 126.84 224.66 126.84 224.78 126.74 219.94 120.52 210.57 127.74 209.4 128.63 204.96 131.33 204.89 116.98 204.8 103.46 204.8 96.26 204.83 95.21 204.8 95.23 204.8 95.16 204.73 95.24 204.73 95.08 192.51 104.61 192.59 123.59 192.59 125.97 192.67 132.43 192.67 133.83 192.64 134.04 184.83 131.97 182.6 131.35 164.23 126.59 156.63 132.43 151.94 135.96 152.01 136.04 151.94 136.12 173.15 141.65 187.06 145.34 187.42 145.4 187.63 145.53 172.96 156.94 172.89 157 172.89 157 172.76 157.09 177.6 163.32 196.43 148.72 201.73 155.64 182.98 170.23 187.62 176.29 187.65 176.33 187.65 176.33 187.75 176.46 206.58 161.86 218.95 177.84 228.39 170.52 228.42 170.49 228.42 170.49 228.55 170.39 216.1 154.4 234.93 139.8 230.27 133.79"/><path class="cls-1" d="M68.17,196.28l15.23-.09h9.24l-.07-.1h.2l-3.62-4.69a27.72,27.72,0,0,0,4.92-38.88l141-109.35.1-.08a27.66,27.66,0,0,0,38.8,5L274,48l38.85,50.12.08.07a27.74,27.74,0,0,0-4.92,38.88l-41.77,32.41L232.89,195.2h.21l-.21.16,32.12-.15,89.88-69.7a3.14,3.14,0,0,0,.54-4.3l-93.06-120a3,3,0,0,0-4.2-.62l-.1.08L47.2,164.24a3.15,3.15,0,0,0-.54,4.31Z"/><polygon class="cls-1" points="139.1 195.9 169.61 172.23 166.88 168.61 166.87 168.59 166.87 168.59 166.77 168.47 147.02 183.76 131.35 195.74 131.55 195.74 131.35 195.9 139.1 195.9"/><polygon class="cls-1" points="235.39 121.21 278.57 87.72 279.07 87.34 279.07 87.34 279.19 87.25 276.27 83.56 233.17 116.98 232.6 117.42 232.6 117.42 232.47 117.52 235.39 121.21"/><path class="cls-1" d="M217.31,392.41v.06a.6.6,0,0,0-.09-.15,11,11,0,0,0-2,4.53,12.73,12.73,0,0,0,2.16,10.53,11.52,11.52,0,0,0,2-4.54,12.74,12.74,0,0,0-1.42-9.29C217.71,393.18,217.54,392.77,217.31,392.41Z"/><path class="cls-1" d="M266.74,365.11a4.13,4.13,0,0,0-4-4.07q-24-1.16-49.11-.92t-48.95,1.46a4.11,4.11,0,0,0-4,4.15c0,.15-.08.31-.08.46l.08,5.22.15,38.81a30.74,30.74,0,0,0,30.81,30.51l45-.23a30.84,30.84,0,0,0,30.43-30.82l-.23-38.8Zm-42,12.4A22.45,22.45,0,0,1,245,385.4a2.93,2.93,0,0,1-.77,4.38L241,391.7a3,3,0,0,1-3.54-.61A12.6,12.6,0,0,0,226.5,387h-1.23v.08h-.18a23,23,0,0,1,3.61,17.06,21.41,21.41,0,0,1-2.79,7.15c-.23.34-.38.75-.64,1.07h.06a.14.14,0,0,1-.08.15,13.38,13.38,0,0,0,2.53.23,12.82,12.82,0,0,0,9.68-4.45,2.82,2.82,0,0,1,3.54-.54l3.38,1.84a3.1,3.1,0,0,1,1.38,2,2.72,2.72,0,0,1-.62,2.31,22.16,22.16,0,0,1-17.28,8.29,21.23,21.23,0,0,1-10.53-2.53c-.08,0-.16.08-.23.08a22,22,0,0,1-10.38,2.61,22.5,22.5,0,0,1-17.36-8.15,2.74,2.74,0,0,1-.62-2.3,2.92,2.92,0,0,1,1.39-2l3.23-1.92a2.9,2.9,0,0,1,3.6.54,12.84,12.84,0,0,0,11.41,4.14h.76v-.08h.17a22,22,0,0,1-.61-24.54c.17-.23.27-.52.44-.74h0a.17.17,0,0,1,.08-.14,10,10,0,0,0-2.61-.31,13.55,13.55,0,0,0-9.69,4.46,2.79,2.79,0,0,1-3.53.61L190.05,390a2.92,2.92,0,0,1-1.38-1.92,3,3,0,0,1,.61-2.38,22.46,22.46,0,0,1,17.3-8.3,23.8,23.8,0,0,1,10.6,2.53c.07,0,.07,0,.16-.07a22.72,22.72,0,0,1,7.36-2.35Z"/><path class="cls-1" d="M427,368.11l-.53-101.51a48.48,48.48,0,0,0-48.57-48l-56.63.31-32.13.15-55.21.28-32.12.15-90.45.54-24.66.08L48,220.34A48.37,48.37,0,0,0,0,268.91L.54,370.42l.08,20.21L1,455.87A56.56,56.56,0,0,0,57.8,512l313.45-1.69a56.55,56.55,0,0,0,56.17-56.79L427,388.32Zm-140.07,3.62h-.16l.16,37.81a50.52,50.52,0,0,1-50.18,50.79l-45,.23A50.49,50.49,0,0,1,141,410.38l-.23-37.88a1075.93,1075.93,0,0,0-108.6,12.25c-2,.33-4,.6-6,.93l-.07-20.1a1083.73,1083.73,0,0,1,118.79-13.22,24.11,24.11,0,0,1,18.67-10.68c16.37-.85,33.2-1.39,50-1.47s33.73.23,50,.93a24.21,24.21,0,0,1,18.83,10.52,1064.43,1064.43,0,0,1,119,11.92l.07,17.36v2.77A1049,1049,0,0,0,290.31,372c-1.15-.07-2.25-.17-3.4-.24ZM84.16,255a4.82,4.82,0,0,1,3.22,8.46L45,299.87a4.86,4.86,0,0,1-8-3.69L36.82,272a16.78,16.78,0,0,1,16.6-16.83Z"/></svg>