<svg id="_2" data-name="2" xmlns="http://www.w3.org/2000/svg" viewBox="0 0 512.01 480.25"><defs><style>.cls-1{fill:#4b4b4b;}</style></defs><title>icon_use</title><path class="cls-1" d="M206.9,111.19a11.24,11.24,0,1,0-11.25,11.25A11.25,11.25,0,0,0,206.9,111.19Z"/><path class="cls-1" d="M409.68,100a11.25,11.25,0,1,0,11.25,11.24A11.23,11.23,0,0,0,409.68,100Z"/><path class="cls-1" d="M174.24,138.53a24,24,0,0,0-30.35,15.39L99.68,248.69H71.53V79.75L44.29,97.91a30.33,30.33,0,0,0-11.8,15.18L3.42,229.88A60.65,60.65,0,0,0,6.6,277.47l48.15,94.62a50.61,50.61,0,0,1,3.5,37L37.46,480.25H146.4S166,363.16,173.78,330.44c10.69-44.8,14-69.88,3.64-108.22l12.23-53.34A24.06,24.06,0,0,0,174.24,138.53Z"/><path class="cls-1" d="M93.34,0V215.84l26.72-57.25a5.41,5.41,0,0,1-.55-.12V63.89a42.62,42.62,0,0,0,35.31-37.73H263.51c-24.55,16.65-41.12,48.44-41.12,85s16.57,68.39,41.12,85.06h-60l-6,26.16H512V0Zm219.2,159.83H292.79V136.16H261V118.91h31.8v-11.5l-3.09-4.82H261V85.22h17.52L264,62.56h19l19.73,30.72,19.77-30.72h18.95L326.82,85.22h17.52v17.37H315.62l-3.08,4.8v11.52h31.8v17.25h-31.8v23.67Zm173.3-1.36a42.7,42.7,0,0,0-35.35,37.78H341.81C366.37,179.58,383,147.78,383,111.19s-16.59-68.38-41.15-85H450.49a42.66,42.66,0,0,0,35.35,37.73Z"/></svg>