<svg id="レイヤー_1" data-name="レイヤー 1" xmlns="http://www.w3.org/2000/svg" viewBox="0 0 660 750.61"><defs><style>.cls-1{fill:#b582ae;}.cls-2{fill:#fff;}.cls-3{fill:#89c7bc;}.cls-4{fill:#dfb78d;}.cls-5{fill:#eaaa36;}.cls-6{fill:#a3d08b;}.cls-7{fill:#8687be;}.cls-10,.cls-8{fill:none;stroke:#666;stroke-miterlimit:10;}.cls-8{stroke-width:2.57px;}.cls-9{fill:#666;}.cls-10{stroke-width:2.57px;}</style></defs><title>money_cicle_chart</title><circle class="cls-1" cx="556.04" cy="363.17" r="100"/><path class="cls-2" d="M520.07,321.62a2.45,2.45,0,0,1-.14.75,26.14,26.14,0,0,1-3.6,6.33,2,2,0,0,1-1.54.75,2.16,2.16,0,0,1-1.28-.48,1.69,1.69,0,0,1-.75-1.37,2,2,0,0,1,.44-1.14,22.29,22.29,0,0,0,3.3-5.63,1.51,1.51,0,0,1,1.46-.93,1.92,1.92,0,0,1,.83.18A1.64,1.64,0,0,1,520.07,321.62Zm-5.68-28.17c0-2.81,1.19-3.74,3.83-3.74h5.9c2.68,0,3.87.93,3.87,3.74v21.7c0,2.64-1.19,3.52-3.87,3.52h-5.9c-2.64,0-3.83-.88-3.83-3.52Zm10,.8c0-.84-.48-1.06-1.23-1.06h-4c-.75,0-1.15.22-1.15,1.06v4h6.38ZM518,306.52h6.38v-5.06H518Zm0,3.17v4.53c0,.84.4,1,1.15,1h4c.75,0,1.23-.18,1.23-1v-4.53Zm6.56,10.17a1.69,1.69,0,0,1,1.54,1A24.55,24.55,0,0,0,529,325.4a1.89,1.89,0,0,1,.39,1.1,1.85,1.85,0,0,1-.83,1.5,1.77,1.77,0,0,1-2.64-.35,24.68,24.68,0,0,1-3.08-5.37,1.88,1.88,0,0,1-.18-.79,1.59,1.59,0,0,1,1.1-1.46A2.28,2.28,0,0,1,524.6,319.86Zm19.27,4.4c0,3.39-1.32,4.53-5,4.53a20.5,20.5,0,0,1-4.36-.35,1.68,1.68,0,0,1-1.36-1.76,2.37,2.37,0,0,1,0-.53c.22-1,.84-1.5,1.54-1.5a.67.67,0,0,1,.31.05,16.14,16.14,0,0,0,3.3.31c1.19,0,1.54-.22,1.54-1.63V308.86h-8.45c-.92,0-1.5-.75-1.5-1.85s.58-1.85,1.5-1.85h20.2c.92,0,1.5.7,1.5,1.85s-.58,1.85-1.5,1.85h-7.75ZM539,289.93c0-.88.8-1.36,2-1.36s2,.48,2,1.36v3.88h6c2.6,0,3.74,1.1,3.74,3.65v4.4c0,1.19-.79,1.63-1.85,1.63s-1.84-.44-1.84-1.28v-3.74c0-.84-.4-1.06-1.19-1.06H534.85c-.74,0-1.14.22-1.14,1.06v3.74c0,.84-.75,1.28-1.85,1.28s-1.85-.44-1.85-1.63v-4.45c0-2.55,1.15-3.6,3.74-3.6H539Z"/><path class="cls-2" d="M560.82,325.74c-2.16,0-3.79-1.73-3.79-4.82a9.44,9.44,0,0,1,4.05-7.54c-.31-1.34-.57-2.73-.77-4.15v-.17a.85.85,0,0,1,.75-.91.72.72,0,0,1,.24,0,.77.77,0,0,1,.81.8c.15,1.15.34,2.33.56,3.48a12.1,12.1,0,0,1,5.85-1.37c.19-1,.36-2,.48-2.88.08-.58.39-.84.87-.84a.75.75,0,0,1,.21,0,.92.92,0,0,1,.82,1.11c-.12.86-.29,1.8-.48,2.76a8.12,8.12,0,0,1,3.43,1.27,7.21,7.21,0,0,1,3.36,6.41c0,4.73-3.55,7.89-9.14,8.59a1.1,1.1,0,0,1-.24,0,.92.92,0,0,1-1-.79.75.75,0,0,1,0-.21.91.91,0,0,1,.86-.92c4.54-.57,7.52-3,7.52-6.67a5.89,5.89,0,0,0-2.43-4.94A6.56,6.56,0,0,0,570,312.9c-.29,1.18-.61,2.31-1,3.31a28.56,28.56,0,0,1-2.69,5.6c.19.33.43.64.65,1a1.13,1.13,0,0,1,.21.67.91.91,0,0,1-.33.7,1.06,1.06,0,0,1-.65.24.77.77,0,0,1-.6-.27c-.2-.24-.34-.45-.51-.69A5.45,5.45,0,0,1,560.82,325.74Zm.74-10.46a7.23,7.23,0,0,0-2.66,5.49c0,1.88.86,3.08,2,3.08a4.2,4.2,0,0,0,3.24-2A30,30,0,0,1,561.56,315.28Zm5.79.36a29.73,29.73,0,0,0,.81-2.91,10.57,10.57,0,0,0-5.06,1.35,29.63,29.63,0,0,0,2.18,6.17A26.9,26.9,0,0,0,567.35,315.64Z"/><path class="cls-2" d="M588.23,316.77a12.9,12.9,0,0,1,5.32-1.25c4.33,0,7,2.28,7,5.54,0,4-3.68,6.58-9.53,6.58-3.56,0-5.86-1.49-5.86-3.72,0-1.87,1.56-3.24,3.91-3.24a5,5,0,0,1,5.14,4.73c2.45-.58,4.27-2.09,4.27-4.32s-1.87-3.94-5.28-3.94c-3.19,0-6.1,1.06-10,3.5a1.32,1.32,0,0,1-.65.17,1,1,0,0,1-.86-.45.88.88,0,0,1-.17-.53,1,1,0,0,1,.55-.91,103.63,103.63,0,0,0,12.31-9c-2.61.22-6.29.37-9.36.39a.88.88,0,0,1-.89-.94c0-.55.29-1,.84-1,3.24,0,7.35-.12,10.54-.34h.22a1.3,1.3,0,0,1,1.2.6,1.38,1.38,0,0,1,.19.7,1.34,1.34,0,0,1-.46,1,51.52,51.52,0,0,1-6.26,4.95c-.67.45-1.49,1-2.16,1.39Zm.72,5.54c-1.25,0-2,.65-2,1.54,0,1.1,1.44,2,3.57,2,.58,0,1.18,0,1.76-.05C592.12,323.49,590.6,322.31,589,322.31Z"/><path class="cls-2" d="M568.45,350.33a1,1,0,0,0,1.13-.71L571,344a1,1,0,0,0-.76-1.2l-.74-.14a1,1,0,0,0-1.14.83l-.73,5.77A1,1,0,0,0,568.45,350.33Z"/><path class="cls-2" d="M557.09,352.19a1,1,0,0,0,1.31.21,1,1,0,0,0,.29-1.3l-2.94-5a1,1,0,0,0-1.38-.31l-.62.42a1,1,0,0,0-.22,1.4Z"/><path class="cls-2" d="M578.32,356.27l5-2.94a1,1,0,0,0,.31-1.38l-.42-.63a1,1,0,0,0-1.4-.22l-4.58,3.56a1,1,0,0,0,1.08,1.61Z"/><path class="cls-2" d="M605.49,388.75l-.12-.17h0a8.92,8.92,0,0,1-2.14,1.36l0,0a10.22,10.22,0,0,1-1.17.42h0a9,9,0,0,1-3,.33h-.1a9.25,9.25,0,0,1-2.89-.64l-.16-.07h0a9.17,9.17,0,0,0,1.35-8.45,4.23,4.23,0,0,0-8.17,0,9.15,9.15,0,0,0,1.09,8c.09.14.16.28.25.41h0a8.83,8.83,0,0,1-2.53.66l-.15,0a25.21,25.21,0,0,0-3.39-11.56,24.89,24.89,0,0,0-6.74-7.52l-.18-.15h0a14.47,14.47,0,0,1-11.9,6.11H565A14.44,14.44,0,0,1,554.8,373a14.23,14.23,0,0,1-3.54-6.41h-6.2a27.52,27.52,0,0,0-12.65-7.48,1.81,1.81,0,0,0-2.37,1.83c.12,3.51,1.45,3.81,2.53,7.82A25.6,25.6,0,0,0,521.65,378c-1.56,2.41-5.83,3.79-9.12,4.07a3.51,3.51,0,0,0-2.58,1.44,3.66,3.66,0,0,0-.63,2.91l2.21,10.11a6.57,6.57,0,0,0,6.46,5.16,5.56,5.56,0,0,1,2,.28c2.19,6.41,4.66,10.4,11.68,13.11l1.54,5.21a4.36,4.36,0,0,0,4.33,4.36h4.62a4.37,4.37,0,0,0,4.35-4.36L548,417h10.75v3.32a4.36,4.36,0,0,0,4.35,4.36h4.6a4.37,4.37,0,0,0,4.36-4.36l1.53-5.24a21.12,21.12,0,0,0,10.47-9.28s0-.06,0-.07c.24-.45.47-.89.7-1.35a.75.75,0,0,1,.06-.13c.22-.46.43-.93.63-1.42a.32.32,0,0,1,0-.09,30.84,30.84,0,0,0,2-8.68A11.85,11.85,0,0,0,591.8,393c.43-.18.84-.4,1.24-.61h0s0,0,.06,0a12.25,12.25,0,0,0,14.26-1.18Zm-68.14.48a4.35,4.35,0,1,1,4.36-4.34A4.36,4.36,0,0,1,537.35,389.23Zm56.63-2.1a5.37,5.37,0,0,1-.52.79c-.1.11-.21.23-.34.35h0v0s0,0-.05.05a5.53,5.53,0,0,1-1-5.48c.26-.74.66-.86,1.09-.86s.84.12,1.09.86A5.59,5.59,0,0,1,594,387.13Z"/><path class="cls-2" d="M555.4,362.7A10,10,0,1,0,565.67,353,10,10,0,0,0,555.4,362.7Zm6.35-4.46,1.32,0,1.53,2.11.19.26.51.7.11.17h0l0,0,.13-.15.57-.71.2-.24,1.64-2,.87,0,1.25.08-.72.86-1.16,1.43-.77,1-.46.54h0l0,0,1.94.14h.58v.39l-.07.69h0l-3.21-.09,0,1.17h0v0l3.26.09v.39l-.07.69h0l-3.18-.09h0l-.08,2.78-1.65,0,.07-2.74h0v0l-3.27-.08,0-1.08,3.27.09,0-1.17h0v0l-3.26-.09,0-1.08,1.6.05,1,0,0,0h0l-.43-.62-.77-1.06-.72-1-1-1.45Z"/><circle class="cls-3" cx="103.96" cy="363.17" r="100"/><path class="cls-2" d="M57.91,313.43c3,0,4.22,1.45,4.18,4.18a30.46,30.46,0,0,1-1.68,10.47c-1,2.82-2.95,4.05-7.08,4.05a28.38,28.38,0,0,1-6.16-.61,1.8,1.8,0,0,1-1.54-1.9,2.41,2.41,0,0,1,0-.53c.18-1,.79-1.62,1.63-1.62a2.7,2.7,0,0,1,.57.08,22.82,22.82,0,0,0,5.37.66c2.07,0,3-.52,3.61-2.11A25.36,25.36,0,0,0,58,318.4c0-.88-.27-1.28-1.54-1.28H45.63c-2,0-3.13-.92-3.13-2.59a4.66,4.66,0,0,1,.13-1c.49-2.29.93-4.62,1.24-6.78a3.32,3.32,0,0,1,3.65-3h9.33c.79,0,1.19-.22,1.19-1.06v-4.22c0-.8-.4-1-1.19-1h-13c-.84,0-1.45-.88-1.45-2a1.71,1.71,0,0,1,1.45-1.89H58.21c2.51,0,3.79,1.15,3.79,3.57v6.64c0,2.6-1.28,3.61-3.79,3.61H48.8a1,1,0,0,0-1.15.92c-.26,1.32-.53,2.78-.79,4a1.39,1.39,0,0,0,0,.4c0,.53.35.75,1,.75Zm14.34-19.5c0-1,.79-1.58,2.07-1.58s2.11.62,2.11,1.58v37c0,1-.79,1.58-2.11,1.58s-2.07-.61-2.07-1.58Z"/><path class="cls-2" d="M99.27,323.57a19.85,19.85,0,0,1-3.17-3.77,77.49,77.49,0,0,1-9.89.79c-.65,0-1-.36-1-.84v-.07a.78.78,0,0,1,.84-.87,72.71,72.71,0,0,0,9-.67,24.79,24.79,0,0,1-1.37-2.57,60.66,60.66,0,0,1-7.61.51.89.89,0,0,1-1-.89.83.83,0,0,1,.87-.89,60.29,60.29,0,0,0,6.89-.41c-.29-.64-.56-1.36-.84-2.06a.86.86,0,0,1-.1-.41.81.81,0,0,1,.67-.77,3,3,0,0,1,.39,0,.9.9,0,0,1,.89.74c.26.79.57,1.58.86,2.33a47.65,47.65,0,0,0,6.14-1.27,1.23,1.23,0,0,1,.39-.08.77.77,0,0,1,.79.65,2.33,2.33,0,0,1,.05.34.78.78,0,0,1-.63.79,57.31,57.31,0,0,1-6,1.27,20.34,20.34,0,0,0,1.35,2.52c1.87-.31,3.72-.69,5.35-1.13a2.73,2.73,0,0,1,.38,0,.75.75,0,0,1,.84.62,1.32,1.32,0,0,1,0,.31c0,.43-.26.67-.77.84-1.36.34-3,.67-4.8,1a29,29,0,0,0,3.58,4.29,1.27,1.27,0,0,1,.48,1,1.08,1.08,0,0,1-1,1.08,2.62,2.62,0,0,1-1.15-.38,13.52,13.52,0,0,0-6.1-1.32c-4.17,0-5.47,1.22-5.47,2.78,0,1.71,1.71,2.52,5.55,2.52a21.62,21.62,0,0,0,6.16-.91,1.35,1.35,0,0,1,.44-.07.84.84,0,0,1,.86.69,2.35,2.35,0,0,1,0,.37.93.93,0,0,1-.72.93,23.8,23.8,0,0,1-6.91.91c-4.93,0-7.49-1.61-7.49-4.37,0-2.59,2.28-4.51,7.49-4.51a12.15,12.15,0,0,1,5.49,1.23Z"/><path class="cls-2" d="M108,322.82c-.43,0-.67-.29-.67-.81s.24-.8.67-.8h20.74c.43,0,.69.32.69.8s-.26.81-.69.81h-2.88v7.11c0,1.73-.8,2.33-2.86,2.33a12.36,12.36,0,0,1-2.66-.2.76.76,0,0,1-.63-.79.66.66,0,0,1,0-.24.74.74,0,0,1,.74-.67.62.62,0,0,1,.19,0,10,10,0,0,0,2,.2c1.16,0,1.37-.17,1.37-.89v-6.87Zm11.57-6c1.61,1.71,3.93,2.31,7.2,2.45a.67.67,0,0,1,.65.7v.14a.79.79,0,0,1-.84.67h-.08c-3.91-.19-6.76-1.22-8.56-3.67a5.71,5.71,0,0,1-1.73,1.85,14.49,14.49,0,0,1-6,1.82h-.14a.82.82,0,0,1-.82-.6,1.06,1.06,0,0,1,0-.24.59.59,0,0,1,.6-.62,12.46,12.46,0,0,0,5.59-1.61,3.85,3.85,0,0,0,.91-.89h-5.18c-.39,0-.6-.29-.6-.74s.21-.72.6-.72H117a5.92,5.92,0,0,0,.2-1.18c0-.41.28-.6.72-.62h-7.49c-.51,0-.75.14-.75.65V316c0,.48-.36.72-.89.72s-.91-.24-.91-.72v-2.09c0-1.37.67-1.92,2-1.92h7.42v-1.39c0-.43.36-.67.89-.67s.91.24.91.67V312h7.58c1.4,0,2,.55,2,1.92V316c0,.48-.33.72-.88.72s-.92-.24-.92-.72v-1.75c0-.51-.24-.65-.74-.65h-8.14c.51,0,.87.19.87.62a.34.34,0,0,1,0,.17,5.15,5.15,0,0,1-.24,1h6.84c.39,0,.6.26.6.72s-.21.74-.6.74Zm-.6,7.35c1.39,0,2,.5,2,1.72v2.31c0,1.22-.62,1.75-2,1.75h-6.27c-1.41,0-2-.53-2-1.75v-2.31c0-1.22.63-1.72,2-1.72Zm-.43,4.32c.48,0,.72-.15.72-.58v-1.75c0-.43-.24-.55-.72-.55h-5.41c-.48,0-.71.12-.71.55v1.75c0,.43.23.58.71.58Z"/><path class="cls-2" d="M148,322.49c-.33,1.8-1.22,2.8-2.92,2.8a6.08,6.08,0,0,1-3.72-1.36,1,1,0,0,1-.15-1.32,1,1,0,0,1,.77-.39.9.9,0,0,1,.62.24,4,4,0,0,0,2.28.89c.72,0,1.08-.36,1.28-1.34a27,27,0,0,0,.26-3.84c-1.27,0-2.47.07-3.6.14-1.54.1-3.07.17-4.63.29v2.64c0,4.32.12,5.33.48,5.93.6,1.1,1.94,1.41,5,1.41a34,34,0,0,0,6.31-.57,1.38,1.38,0,0,1,.34,0,1,1,0,0,1,.93,1,1,1,0,0,1-.88,1,37,37,0,0,1-6.63.56c-3.79,0-5.81-.63-6.67-2.14-.65-1-.87-2.19-.87-6.31v-.65c0-.89,0-1.8,0-2.76-1.23.07-2.52.19-3.79.29h-.15a.85.85,0,0,1-.84-.87v-.07a.83.83,0,0,1,.82-.89c1.29-.09,2.61-.19,4-.31,0-1.49,0-3.14,0-4.46a.88.88,0,0,1,1-.89c.62,0,1,.33,1,.89,0,1.41,0,2.88,0,4.34,1.47-.1,3-.19,4.54-.26,1-.05,2.3-.12,3.67-.17,0-.51,0-1,0-1.51,0-1,0-1.95,0-2.86a.86.86,0,0,1,1-.86.9.9,0,0,1,1,.84V314c0,.72,0,1.44,0,2.23,1.3,0,2.74-.07,4.08-.1.68,0,.94.34.94.89s-.26,1-.91,1c-1.35,0-2.74.05-4.13.07A24.81,24.81,0,0,1,148,322.49Z"/><path class="cls-2" d="M163.37,320.33a12.94,12.94,0,0,1,5.33-1.25c4.32,0,7,2.28,7,5.54,0,4-3.67,6.58-9.53,6.58-3.55,0-5.86-1.49-5.86-3.72,0-1.87,1.56-3.24,3.92-3.24a5,5,0,0,1,5.13,4.73c2.45-.58,4.28-2.09,4.28-4.32s-1.88-3.94-5.28-3.94c-3.2,0-6.1,1.06-10,3.5a1.29,1.29,0,0,1-.65.17,1,1,0,0,1-.86-.45.88.88,0,0,1-.17-.53,1,1,0,0,1,.55-.91,105.71,105.71,0,0,0,12.32-9c-2.62.21-6.29.36-9.36.38a.87.87,0,0,1-.89-.94c0-.55.29-1,.84-1,3.24,0,7.34-.12,10.54-.34h.21a1.3,1.3,0,0,1,1.2.6,1.41,1.41,0,0,1,.19.7,1.37,1.37,0,0,1-.45,1,51.57,51.57,0,0,1-6.27,4.95c-.67.45-1.48,1-2.16,1.39Zm.72,5.54c-1.25,0-2,.65-2,1.54,0,1.1,1.44,2,3.58,2,.58,0,1.18,0,1.75-.05C167.26,327.05,165.75,325.87,164.09,325.87Z"/><path class="cls-2" d="M133.11,417a8.63,8.63,0,0,0-6.94-6.55h0a8.21,8.21,0,0,0-1.41-.12h-.14c-.15,0-.3,0-.45,0h-.07l-3.91.4-1.54.15a7,7,0,0,0,.24-3.18,7.18,7.18,0,0,0-2.28-4.19L109,396.68a12.6,12.6,0,0,0-10.62-3l-14.53,2.53a7.65,7.65,0,0,0-2.32.78,4,4,0,0,0-2.12-1.15h0a4.36,4.36,0,0,0-.81-.08h0a3.62,3.62,0,0,0-.57,0l-7.69,1.18a5.86,5.86,0,0,0-2.47-1h0a5.71,5.71,0,0,0-1.8,0l-6.34,1v28.4h0v0l10.63-1.64a5.75,5.75,0,0,0,3.79-2.3l7.69-1.2a4,4,0,0,0,2.57-1.51,7.27,7.27,0,0,0,2.51.09l4.43-.6,7.95,8.38a9.58,9.58,0,0,0,7.75,2.94H107l18.42-1.88a8.65,8.65,0,0,0,7.8-9.95C133.19,417.39,133.16,417.18,133.11,417Zm-8.21,4.69-18.44,1.89a3.65,3.65,0,0,1-2.94-1.13l-8.63-9.07a4,4,0,0,0-3.47-1.23l-5.39.74a1.8,1.8,0,0,1-1.33-.36l-1.35-8.66A1.86,1.86,0,0,1,84.86,402l14.54-2.52a6.71,6.71,0,0,1,5.65,1.63l7.58,6.75a1.14,1.14,0,0,1,.36.68,1.1,1.1,0,0,1-.1.66,2.85,2.85,0,0,1-3,1.59l-.16,0a2.52,2.52,0,0,1-.53-.17l-.08,0a2.88,2.88,0,0,1-.5-.3l-3.84-2.91a1.45,1.45,0,0,0-2.21.58l-.22.51a1.32,1.32,0,0,0-.11.81,1.47,1.47,0,0,0,.36.74l5.64,6.15a3.55,3.55,0,0,0,2.88,1.16l13.4-1.1a2.73,2.73,0,0,1,2.84,2.1c0,.08,0,.14,0,.21A2.75,2.75,0,0,1,124.9,421.66ZM79,414.58l-4.19.64-2-12.69,4.18-.64.39,2.51L79,414.5Z"/><path class="cls-2" d="M147.33,367.28l-2.17-.3h0L142,389a1.12,1.12,0,0,1-1.25.93l-40.84-5.79h-.12l-.36,2.55a1.09,1.09,0,0,0,.93,1.23L143.55,394a1.12,1.12,0,0,0,1.25-.93l3.46-24.55A1.08,1.08,0,0,0,147.33,367.28Z"/><polygon class="cls-2" points="120.78 367.49 120.5 367.75 120.36 367.89 119.75 368.5 119.58 368.66 119.56 368.67 119 367.69 118.91 367.53 118.73 367.19 117.2 364.49 115.64 364.27 115.03 364.18 114.71 364.12 114.72 364.14 114.7 364.13 114.68 364.13 116.44 367.25 116.48 367.33 116.5 367.33 117.61 369.3 117.63 369.37 117.64 369.38 117.64 369.4 114.64 368.97 114.63 368.97 114.63 368.97 114.6 368.97 114.42 370.21 114.42 370.21 114.42 370.21 114.42 370.24 118.27 370.78 118.06 372.19 114.28 371.66 114.24 371.66 114.24 371.66 114.21 371.65 114.04 372.89 114.03 372.9 114.03 372.9 114.03 372.93 117.88 373.47 117.42 376.74 119.38 377.02 119.38 376.99 119.56 375.71 119.83 373.75 121.04 373.91 123.56 374.27 123.69 374.29 123.87 373.04 123.87 373.03 122.77 372.87 120.25 372.5 120.06 372.17 120.22 371.06 121.87 371.3 124.07 371.6 124.25 370.35 124.25 370.34 122.34 370.06 122.09 370.03 121.27 369.81 122.88 368.25 122.95 368.18 124.53 366.63 125.3 365.88 125.5 365.7 125.49 365.7 125.5 365.69 125.5 365.67 122.98 365.31 120.78 367.49"/><path class="cls-2" d="M95.77,381.2l1.08.15,3.29.47,8.34,1.18,28.67,4.06,1.79.25a1.09,1.09,0,0,0,1.23-.93l.21-1.51,1.37-9.7,1.22-8.52.51-3.61.17-1.22a1.09,1.09,0,0,0-.93-1.23l-43.16-6.11a1.1,1.1,0,0,0-1.24.93L94.85,380A1.08,1.08,0,0,0,95.77,381.2ZM138,370.38l-1.08,7.69a5,5,0,0,0-2.56.61,4.42,4.42,0,0,0-.93.65,5.08,5.08,0,0,0-1.6,2.55l-7.43-1.05-2-.28L105.1,378.1l-1-.14a5.18,5.18,0,0,0-2.73-4.67,2.74,2.74,0,0,0-.4-.15c-.15-.07-.31-.13-.48-.19l-.2-.08,1.28-9.15a5,5,0,0,0,1.17-.11,5.14,5.14,0,0,0,3.23-2.19,5.06,5.06,0,0,0,.69-1.53l27.76,3.94a5,5,0,0,0,.23,1.65,5.09,5.09,0,0,0,3.58,3.43Z"/><polygon class="cls-2" points="103.76 368.31 103.63 368.29 103.63 368.29 103.6 368.29 103.5 369.05 108.75 369.8 112.47 370.32 112.58 369.58 112.58 369.56 109.67 369.15 103.76 368.31"/><polygon class="cls-2" points="125.92 372.19 125.92 372.19 125.92 372.19 125.92 372.22 127.19 372.4 129.71 372.76 134.88 373.5 134.99 372.75 134.99 372.74 126.03 371.46 125.92 372.19"/><circle class="cls-4" cx="486.46" cy="650.61" r="100"/><path class="cls-2" d="M458.41,598.72a43.2,43.2,0,0,1,.39-5.28,22.54,22.54,0,0,1-1.76,2.9,2,2,0,0,1-1.63,1,2.11,2.11,0,0,1-1.32-.52,1.71,1.71,0,0,1-.79-1.37,2.49,2.49,0,0,1,.57-1.45,43.62,43.62,0,0,0,7.7-16.72,1.66,1.66,0,0,1,1.81-1.37,3.71,3.71,0,0,1,.7.09,1.65,1.65,0,0,1,1.5,1.63,2,2,0,0,1-.09.53,62.78,62.78,0,0,1-3.12,8.8v28.51c0,1-.75,1.46-2,1.46s-2-.49-2-1.46ZM478,580.5v-3.21c0-1,.7-1.5,1.85-1.5s1.93.53,1.93,1.5v3.21H493.7c1,0,1.45.75,1.45,1.81s-.48,1.8-1.45,1.8h-12v3.52h7c2.82,0,4.18.93,4.18,3.7v5.85c0,2.77-1.36,3.7-4.18,3.7h-7.92a19,19,0,0,1-2.47,7c4.19,2.59,9.2,4,15.28,4.57a1.66,1.66,0,0,1,1.58,1.81,2,2,0,0,1,0,.48,2,2,0,0,1-2,1.85H493a37.84,37.84,0,0,1-16.9-5.77A24.9,24.9,0,0,1,467,616.5a2.37,2.37,0,0,1-.93.18,2,2,0,0,1-1.76-1.24,2.21,2.21,0,0,1-.17-.88,1.75,1.75,0,0,1,1.32-1.71,21.59,21.59,0,0,0,7.61-4.32,30.28,30.28,0,0,1-3.56-3.6,1.76,1.76,0,0,1-.4-1.06,1.64,1.64,0,0,1,.88-1.41,2,2,0,0,1,1.19-.44,1.6,1.6,0,0,1,1.27.66,21.73,21.73,0,0,0,3,3,13.23,13.23,0,0,0,1.71-4.79h-6.42c-2.73,0-4-.93-4-3.7v-5.85c0-2.77,1.28-3.7,4-3.7h7.21c0-1.19,0-2.33.05-3.52h-10.7c-1,0-1.49-.7-1.49-1.8s.48-1.81,1.49-1.81Zm-6.25,10.61c-.88,0-1.23.22-1.23,1.14v4c0,1,.35,1.14,1.23,1.14h5.81c.17-2.11.26-4.18.31-6.29Zm9.9,0c0,2.11-.13,4.22-.35,6.29h6.6c.88,0,1.28-.18,1.28-1.14v-4c0-.92-.4-1.14-1.28-1.14Z"/><path class="cls-2" d="M511.87,613a20.74,20.74,0,0,1-6.86,2.11.53.53,0,0,1-.22,0,1,1,0,0,1-1-.87.63.63,0,0,1,0-.24,1,1,0,0,1,.87-1,19.72,19.72,0,0,0,6.4-1.94c2.33-1.33,3.41-3.15,3.41-5.24s-1.27-3.33-4.68-3.33a33,33,0,0,0-8.69,1.58,2.23,2.23,0,0,1-.36,0,1,1,0,0,1-.93-.72,1.49,1.49,0,0,1,0-.36,1,1,0,0,1,.74-1,35.13,35.13,0,0,1,9.24-1.51c4.59,0,6.82,2.16,6.82,5.19S515,611.28,511.87,613Zm-9.6-17.21a2.19,2.19,0,0,1,.05-.31,1,1,0,0,1,1-.79h.19A63,63,0,0,0,513.67,596a1,1,0,0,1,1,1.06v0a.92.92,0,0,1-1,.92h-.08A61.78,61.78,0,0,1,503,596.71.9.9,0,0,1,502.27,595.8Z"/><path class="cls-2" d="M476.45,659.94a1.82,1.82,0,1,0-1.82,1.82A1.82,1.82,0,0,0,476.45,659.94Z"/><path class="cls-2" d="M509.24,658.12a1.82,1.82,0,1,0,1.82,1.82A1.82,1.82,0,0,0,509.24,658.12Z"/><path class="cls-2" d="M471.17,664.36a3.9,3.9,0,0,0-4.91,2.49l-7.15,15.33h-4.55V654.86l-4.4,2.93a4.9,4.9,0,0,0-1.91,2.46l-4.7,18.88a9.83,9.83,0,0,0,.51,7.7l7.79,15.3a8.16,8.16,0,0,1,.56,6l-3.36,11.51h17.62s3.16-18.93,4.43-24.23c1.72-7.24,2.25-11.29.58-17.5l2-8.62A3.9,3.9,0,0,0,471.17,664.36Z"/><path class="cls-2" d="M458.09,642v34.9l4.32-9.25-.09,0v-15.3a6.89,6.89,0,0,0,5.71-6.1h17.58c-4,2.69-6.65,7.83-6.65,13.75s2.68,11.06,6.65,13.76H475.9l-1,4.23h50.86V642Zm35.44,25.85h-3.19V664H485.2v-2.79h5.14v-1.86l-.5-.78H485.2v-2.81H488l-2.35-3.66h3.06l3.19,5,3.2-5h3.07l-2.36,3.66h2.84v2.81H494l-.5.78v1.86h5.15V664h-5.15v3.83Zm28-.22a6.9,6.9,0,0,0-5.72,6.11H498.27c4-2.7,6.65-7.84,6.65-13.76s-2.68-11.06-6.65-13.75h17.57a6.9,6.9,0,0,0,5.72,6.1Z"/><path class="cls-5" d="M242.28,323.81c-2.61,0-3.63-.94-3.63-3.16V311.8c0-2.21,1.26-3.2,4.18-3.2h19.76c3.2,0,4.14,1,4.14,3.2v8.93c0,2.22-1,3.08-3.59,3.08H259.5l.16,0a43.59,43.59,0,0,0,9.44,1.9,1.65,1.65,0,0,1,1.62,1.74v.27a1.71,1.71,0,0,1-1.81,1.74h-.2a41.77,41.77,0,0,1-11.54-2.8,1.58,1.58,0,0,1-1.1-1.38,1.31,1.31,0,0,1,.47-1,2.57,2.57,0,0,1,.91-.52h-9.64a2.82,2.82,0,0,1,.83.48,1.42,1.42,0,0,1,.47,1,1.56,1.56,0,0,1-1,1.34,38,38,0,0,1-11.22,2.84h-.2a1.76,1.76,0,0,1-1.86-1.66,1,1,0,0,1,0-.35,1.66,1.66,0,0,1,1.58-1.78,38.8,38.8,0,0,0,9.33-1.9Zm4.82-19h4.7c.63,0,1,.6,1,1.39s-.4,1.34-1,1.34H239.67c-3,0-4-.71-4-3.12v-8.14c0-2.41,1.07-3.12,4-3.12H251.8c.63,0,1,.51,1,1.34s-.4,1.38-1,1.38h-4.7v1.43h2.37c2.13,0,2.8.63,2.8,2.13v1.9c0,1.5-.67,1.93-2.8,1.93H247.1Zm-3.56-7.5v-1.43h-3c-.67,0-.91.12-.91.76v.67Zm-3.95,3.79h8.22c.51,0,.67-.08.67-.51V300c0-.43-.16-.51-.67-.51h-8.22Zm0,3c0,.63.24.75.91.75h3v-1.54h-3.95Zm23.07,8.85v-.75c0-.59-.27-.75-1-.75H243.74c-.67,0-1,.16-1,.75v.75Zm-19.87,4.07h19.87V315.4H242.79Zm0,3.48c0,.59.28.71,1,.71h17.94c.71,0,1-.12,1-.71v-.95H242.79ZM267,293.12a2.43,2.43,0,0,1,2.73,2.45,3.85,3.85,0,0,1-.6,1.93,20.21,20.21,0,0,1-4.62,5.14,23.36,23.36,0,0,0,5.73,2.69,1.64,1.64,0,0,1,1.26,1.65,3.41,3.41,0,0,1-.11.8,1.77,1.77,0,0,1-1.7,1.3A2.4,2.4,0,0,1,269,309a24.27,24.27,0,0,1-7.63-4A27.66,27.66,0,0,1,256,307.5a2.92,2.92,0,0,1-.79.12,1.68,1.68,0,0,1-1.62-1,2,2,0,0,1-.16-.83,1.52,1.52,0,0,1,1-1.54,27.66,27.66,0,0,0,4.15-1.82,24.14,24.14,0,0,1-3.08-4,1.2,1.2,0,0,1-.28-.79,1.22,1.22,0,0,1,.91-1.14l.31-.12h-1.7c-.75,0-1.26-.71-1.26-1.66s.51-1.62,1.26-1.62Zm-9.13,3.28a2.5,2.5,0,0,1,1.19.79,17,17,0,0,0,2.61,3.16,15.74,15.74,0,0,0,3.2-3.32,1,1,0,0,0,.16-.4c0-.15-.16-.23-.52-.23Z"/><path class="cls-5" d="M283.05,318.92a2.65,2.65,0,0,0,2.13,1.77,2,2,0,0,0,1.9-1.34,16.44,16.44,0,0,0,1.58-5.29,1.87,1.87,0,0,1,2-1.78,5.68,5.68,0,0,1,.71.08,2,2,0,0,1,2,2.13,2.69,2.69,0,0,1,0,.55,19.32,19.32,0,0,1-3.12,8.58,6,6,0,0,1-9.92,0c-1.89-2.37-3.31-6.48-3.83-12.61-.27-3.39-.35-8.05-.35-12.72,0-1.46.87-2.29,2.49-2.29s2.37.87,2.37,2.33v3c0,3.47,0,6.87.23,9.28A24.14,24.14,0,0,0,283.05,318.92Zm17.62-20.82a2.27,2.27,0,0,1,2,1.18A44.33,44.33,0,0,1,309.52,319a2,2,0,0,1,0,.48,2.32,2.32,0,0,1-2,2.57,4.2,4.2,0,0,1-.67.08,2.19,2.19,0,0,1-2.29-2.14,42.23,42.23,0,0,0-6.12-18.25,2.43,2.43,0,0,1-.44-1.38,2.08,2.08,0,0,1,1.35-1.94A3.2,3.2,0,0,1,300.67,298.1Z"/><path class="cls-5" d="M343.42,304.81a42.18,42.18,0,0,1-1.66,5.73,29.73,29.73,0,0,1-4.51,7.82,85.8,85.8,0,0,1,10.16,6.17,2.06,2.06,0,0,1,.9,1.73,2.69,2.69,0,0,1-.51,1.54,2.37,2.37,0,0,1-1.94,1.07,2.19,2.19,0,0,1-1.34-.47A87.66,87.66,0,0,0,334,321.72c-4.58,4-10.5,6.44-17.5,7.27a1.57,1.57,0,0,1-.43,0,2,2,0,0,1-2.14-2,2.22,2.22,0,0,1,0-.43,2,2,0,0,1,1.85-2.13,30,30,0,0,0,13.87-5,71.44,71.44,0,0,0-8.85-3.56,2.76,2.76,0,0,1-2.09-2.68,4,4,0,0,1,.75-2.18,47.57,47.57,0,0,0,3.75-6.28h-8.1c-1.11,0-1.66-.95-1.66-2.13s.55-2.06,1.66-2.06h10c.91-2.21,1.7-4.42,2.38-6.59a1.94,1.94,0,0,1,2.09-1.62,4,4,0,0,1,.67,0c1.19.19,1.9.91,1.9,1.85a2.27,2.27,0,0,1-.12.72c-.63,1.85-1.31,3.71-2.1,5.6h18.37c1.15,0,1.7.91,1.7,2.06s-.55,2.13-1.7,2.13Zm-15.33,0a49.62,49.62,0,0,1-3.79,6.64,1.71,1.71,0,0,0-.32.79c0,.32.24.55.67.71a90.5,90.5,0,0,1,8.49,3.4,21.9,21.9,0,0,0,3.36-5.14,28,28,0,0,0,2.13-6.4Z"/><path class="cls-5" d="M356.61,301.49v.08a42.44,42.44,0,0,1-1.11,8.85,1.35,1.35,0,0,1-1.42,1.11,1.93,1.93,0,0,1-.47-.08,1.28,1.28,0,0,1-1.15-1.26,1,1,0,0,1,.08-.48,41.51,41.51,0,0,0,1.11-8.29c0-.95.67-1.27,1.54-1.27S356.61,300.59,356.61,301.49Zm1-7.86c0-1,.83-1.54,2.09-1.54s2.14.55,2.14,1.54v34.1c0,1-.83,1.58-2.14,1.58s-2.09-.56-2.09-1.58Zm6.16,6.05a1,1,0,0,1,1,.67,25.1,25.1,0,0,1,1.34,4.07.83.83,0,0,1,0,.31,1.43,1.43,0,0,1-.95,1.35,1.32,1.32,0,0,1-.55.11,1.15,1.15,0,0,1-1.14-.9,32.24,32.24,0,0,0-1.07-3.8,1.48,1.48,0,0,1-.12-.55,1.15,1.15,0,0,1,.79-1.11A1.38,1.38,0,0,1,363.76,299.68Zm4.9,15.72c-1,0-1.54-.75-1.54-2s.55-2,1.54-2h6.76v-7h-4.63a33.8,33.8,0,0,1-2.05,5,1.88,1.88,0,0,1-1.74,1.11,2.31,2.31,0,0,1-1.11-.28,1.77,1.77,0,0,1-1.14-1.62,2.17,2.17,0,0,1,.32-1.06,29.72,29.72,0,0,0,3.39-11.74c0-.94.71-1.46,1.86-1.46h.39c1.19.12,1.74.75,1.74,1.66v.28c-.16,1.38-.35,2.72-.59,4.07h3.56v-6.68c0-1,.79-1.58,2.09-1.58s2.21.55,2.21,1.58v6.68h7.55c1,0,1.58.75,1.58,2s-.6,2-1.58,2h-7.55v7h6.91c1,0,1.55.75,1.55,2s-.56,2-1.55,2h-6.91v8.53h8.34c1.06,0,1.62.79,1.62,2s-.56,2.05-1.62,2.05H365.74c-1.07,0-1.62-.79-1.62-2.05s.55-2,1.62-2h9.68V315.4Z"/><path class="cls-5" d="M402.36,295.65a3.44,3.44,0,0,1-.08.59,75.16,75.16,0,0,0-2,16.63,71.9,71.9,0,0,0,1,11.89,4.29,4.29,0,0,1,0,.71,2.15,2.15,0,0,1-2,2.26,6,6,0,0,1-.68.07c-1.1,0-1.89-.67-2.17-2.05a68,68,0,0,1-1.06-12.68,75,75,0,0,1,2.17-17.82,2.06,2.06,0,0,1,2.21-1.58,2.88,2.88,0,0,1,.59,0C401.61,293.91,402.36,294.54,402.36,295.65Zm9.2,16.91a1.8,1.8,0,0,1-.59,1.3,5.38,5.38,0,0,0-1.78,3.67c0,2.14,1.78,3.16,6.76,3.16a44.34,44.34,0,0,0,9.12-.91,4.27,4.27,0,0,1,.56-.07,2.14,2.14,0,0,1,2.13,1.89,2.79,2.79,0,0,1,0,.55,2.27,2.27,0,0,1-1.82,2.38,51.06,51.06,0,0,1-10,.86c-7.19,0-11.34-2.41-11.34-7.54a9.29,9.29,0,0,1,2.77-6.48,2.67,2.67,0,0,1,1.89-.83,2.31,2.31,0,0,1,1.34.44A1.94,1.94,0,0,1,411.56,312.56Zm12.57-14.78a2.15,2.15,0,0,1,2.21,2.17v.24a2.36,2.36,0,0,1-2.09,2.49,113.58,113.58,0,0,1-12,.59c-1.43,0-2.77,0-4-.08a2.21,2.21,0,0,1-2.37-2.45,2.25,2.25,0,0,1,2.29-2.41h.15c1,0,2.18,0,3.36,0,4,0,8.65-.19,12-.55A1.64,1.64,0,0,1,424.13,297.78Z"/><path class="cls-5" d="M240,390a2.37,2.37,0,0,1-2.1,1.42,2.92,2.92,0,0,1-1.54-.51,2,2,0,0,1-1.06-1.86,3.32,3.32,0,0,1,.47-1.62,72.41,72.41,0,0,0,6.48-14.38c-1.11,0-2.33,0-3.56,0h-1.58c-1.22,0-1.89-.87-1.89-2.21a2,2,0,0,1,2-2.22h2.61c1.26,0,2.53,0,3.71,0,.48-1.73.83-3.47,1.15-5.17a2,2,0,0,1,2.13-1.74,3,3,0,0,1,.6,0c1.22.24,1.93.83,1.93,1.94a4,4,0,0,1-.08.63c-.23,1.14-.55,2.53-.91,3.95,1.58-.12,3-.24,4.39-.44a1.29,1.29,0,0,1,.39,0c1.11,0,1.74.72,1.94,1.9V370a2,2,0,0,1-1.86,2.13c-1.85.32-4,.47-6.08.63A90.07,90.07,0,0,1,240,390Zm22.44.51c0,4.15-2.49,6.76-8.73,6.76-5.34,0-8.77-2.77-8.77-6.92s3.55-7.11,8.77-7.11a16.84,16.84,0,0,1,4.11.48,63,63,0,0,1-.36-6.37,1.93,1.93,0,0,1,2.21-2.05c1.31,0,2.25.63,2.25,2.05a68.91,68.91,0,0,0,.44,7.71,26.35,26.35,0,0,1,6.95,4.82,2.29,2.29,0,0,1,.75,1.66,2.5,2.5,0,0,1-.59,1.58,2.19,2.19,0,0,1-1.62.87,2.27,2.27,0,0,1-1.5-.67,23.32,23.32,0,0,0-3.91-3.2Zm-8.62-3.36c-2.72,0-4.46,1.23-4.46,3.12s1.62,2.85,4.31,2.85c3,0,4.46-1,4.46-3.56,0-.47,0-.91,0-1.5A10,10,0,0,0,253.85,387.18Zm15-15.72a2.21,2.21,0,0,1,1,1.86,2.57,2.57,0,0,1-.43,1.38,2.21,2.21,0,0,1-1.82,1,2.8,2.8,0,0,1-1.42-.44,44.2,44.2,0,0,0-7.62-4.11,1.85,1.85,0,0,1-1.07-1.74,2.42,2.42,0,0,1,2.33-2.4,3.35,3.35,0,0,1,1.07.19A39.79,39.79,0,0,1,268.87,371.46Z"/><path class="cls-5" d="M289.13,377.62a20.28,20.28,0,0,1,7.43-1.58c7.31,0,11.58,4,11.58,9.48,0,6.88-6.05,11.38-16,11.38-6.2,0-10.19-2.53-10.19-6.52,0-3.43,3-5.84,7.11-5.84a8.22,8.22,0,0,1,8.61,7.19c3.32-.91,5.57-3,5.57-6.09,0-3.28-2.77-5.88-8-5.88-5,0-9.88,1.81-15.8,5.53a3,3,0,0,1-1.39.39,2.4,2.4,0,0,1-2-1.07,2.37,2.37,0,0,1,.75-3.35,163.82,163.82,0,0,0,18.8-13.36c-3.83.32-9.2.56-13.39.56a2,2,0,0,1-2.13-2.14c0-1.38.67-2.33,2-2.33h1.19c5.17,0,11.26-.23,15.84-.63a2.24,2.24,0,0,1,.51,0,2.73,2.73,0,0,1,2.65,1.42,2.67,2.67,0,0,1,.36,1.39,3.1,3.1,0,0,1-1,2.25,79,79,0,0,1-9.13,7,34.44,34.44,0,0,1-3.39,2Zm-.31,10.59c-1.7,0-2.69.83-2.69,1.94,0,1.69,1.82,2.8,5.69,2.8.63,0,1.15,0,1.62-.08C293.12,389.83,291.07,388.21,288.82,388.21Z"/><path class="cls-5" d="M319.59,394.73a2.32,2.32,0,0,1-2.13,1.46,3.29,3.29,0,0,1-1.34-.32,2.24,2.24,0,0,1-1.31-2.05,2.9,2.9,0,0,1,.36-1.34,112.21,112.21,0,0,0,7-19.6c-1.54,0-3.36.12-4.86.12h-1c-1.22-.08-1.89-.75-1.89-2.17v-.12a1.91,1.91,0,0,1,2.05-2.13c1.94,0,4.47,0,6.68-.16.35-1.58.67-3.2.95-4.82a1.92,1.92,0,0,1,2.17-1.66,2.33,2.33,0,0,1,.51,0c1.31.16,2.06.91,2.06,1.85a1.11,1.11,0,0,1,0,.36c-.24,1.26-.48,2.57-.75,3.87,2.17-.2,4.26-.47,6.12-.79a2.59,2.59,0,0,1,.55,0c1,0,1.7.56,2,1.78a3,3,0,0,1,.08.59,1.91,1.91,0,0,1-1.54,2c-2.53.43-5.38.79-8.3,1A123.8,123.8,0,0,1,319.59,394.73Zm13.83-9.52a1.72,1.72,0,0,1-.35,1A4.16,4.16,0,0,0,332,389a2.46,2.46,0,0,0,1.66,2.41,12.36,12.36,0,0,0,4.66.63,40.08,40.08,0,0,0,7.82-.75,4.48,4.48,0,0,1,.67-.08,2,2,0,0,1,2.14,1.78,2.74,2.74,0,0,1,0,.55,2.3,2.3,0,0,1-1.94,2.33,39.87,39.87,0,0,1-8.49.79,19,19,0,0,1-7.11-1.14c-2.81-1.15-4-3.12-4-6a8.62,8.62,0,0,1,2.13-5.41,2.29,2.29,0,0,1,1.66-.79,2.34,2.34,0,0,1,1.14.32A1.82,1.82,0,0,1,333.42,385.21Zm11.93-11.66a2.21,2.21,0,0,1,2.09,2.41,2,2,0,0,1-2.05,2.25h-.16c-1,0-2.25,0-3.35,0a56,56,0,0,0-8.74.75,1.4,1.4,0,0,1-.39,0,2.11,2.11,0,0,1-2.13-2.14,1.29,1.29,0,0,1,0-.39,2,2,0,0,1,1.7-2.14,71.1,71.1,0,0,1,9.75-.87C343.1,373.43,344.21,373.47,345.35,373.55Z"/><path class="cls-5" d="M360.92,393.78c-3.95,0-7-3-7-8.65a15.53,15.53,0,0,1,6.43-12.49c-.47-2.09-.82-4.26-1.1-6.43a1.36,1.36,0,0,1,0-.4,2,2,0,0,1,1.78-2.13,1.87,1.87,0,0,1,.47,0,1.84,1.84,0,0,1,2,1.78c.19,1.58.47,3.31.75,5a19.87,19.87,0,0,1,8.77-2c.27-1.38.51-2.73.71-4s.83-2,2-2a3,3,0,0,1,.6,0c1.3.2,2,.91,2,2a2.19,2.19,0,0,1,0,.51,36.34,36.34,0,0,1-.71,3.91,14.1,14.1,0,0,1,5.53,2.21c3.4,2.26,5.45,5.89,5.45,10.83,0,8-6,13.55-15.21,14.77a2.19,2.19,0,0,1-.51,0,2.23,2.23,0,0,1-2.33-1.81,2.64,2.64,0,0,1,0-.56,2.09,2.09,0,0,1,2-2.17c7-1,11.38-4.86,11.38-10.23a9.09,9.09,0,0,0-3.28-7.31,9.25,9.25,0,0,0-3.91-1.7c-.43,1.7-.87,3.36-1.42,4.9a48.49,48.49,0,0,1-3.95,8.57l.83,1.19a2.11,2.11,0,0,1,.39,1.22,2.72,2.72,0,0,1-.79,1.86,2.26,2.26,0,0,1-1.69.75,1.38,1.38,0,0,1-1-.4,5.41,5.41,0,0,1-.67-.83A9.2,9.2,0,0,1,360.92,393.78Zm.63-16.4a10.31,10.31,0,0,0-3.4,7.47c0,2.65,1.31,4.43,2.93,4.43,1.26,0,2.84-.64,4.34-2.61A37,37,0,0,1,361.55,377.38Zm9.4-.86c.44-1.31.79-2.65,1.15-4.07a14.49,14.49,0,0,0-6.92,1.89,34.72,34.72,0,0,0,3.05,8.46A34.69,34.69,0,0,0,371,376.52Z"/><path class="cls-5" d="M410.3,385.64c-1.3,3.56-2.57,5.37-4.07,6.56a7.25,7.25,0,0,1-4.66,1.54c-4.27,0-8.06-3.87-8.06-11.57,0-9.88,7.07-17.35,18.21-17.35,9.84,0,16.24,6.44,16.24,15.53,0,5.69-2.41,10-6.48,12.76a19.41,19.41,0,0,1-8.49,3,2.64,2.64,0,0,1-.56,0,2.12,2.12,0,0,1-2.33-1.9,2.69,2.69,0,0,1,0-.55,2.17,2.17,0,0,1,1.94-2.29,16.52,16.52,0,0,0,7.27-2.69,10.44,10.44,0,0,0,3.87-8.57c0-6.16-3.87-10.75-9.8-11.06A60.17,60.17,0,0,1,410.3,385.64Zm-12.21-3.55c0,4.7,1.66,6.71,3.44,6.71a3.12,3.12,0,0,0,2.21-.95,11,11,0,0,0,2.29-4.34,54.92,54.92,0,0,0,2.57-14.26C402.48,369.88,398.09,375.09,398.09,382.09Z"/><path class="cls-5" d="M205.42,442.53c-2.25.12-4.9.2-7,.2a2,2,0,0,1-2-2.17c0-1.35.63-2.3,1.94-2.3,2,0,4.62-.07,7-.23v-5.14c0-1.26.87-1.93,2.21-1.93s2.25.67,2.25,1.93v4.82c2.14-.2,4.23-.43,6-.75a2.06,2.06,0,0,1,2.45,1.78,2.74,2.74,0,0,1,0,.55,1.9,1.9,0,0,1-1.78,2c-2,.35-4.31.63-6.68.87v5.45a30.75,30.75,0,0,1,7.67-1.07c7.35,0,11.65,3.64,11.65,9.52s-3.67,9.4-8.85,9.4a9.19,9.19,0,0,1-7.15-3.08,2.46,2.46,0,0,1-.63-1.58,2.37,2.37,0,0,1,.83-1.7,2.58,2.58,0,0,1,1.66-.71,2.1,2.1,0,0,1,1.54.71,5,5,0,0,0,3.67,1.74c2.22,0,4.15-1.78,4.15-4.74,0-3.36-2.37-5.53-7.15-5.53a22.05,22.05,0,0,0-7.39,1.3v8.26c0,3.64-1.93,5.57-5.25,5.57a9.09,9.09,0,0,1-5.13-1.78,6.63,6.63,0,0,1-3.44-5.65,6.39,6.39,0,0,1,1.3-3.67,18.84,18.84,0,0,1,8.06-5.69Zm0,10.94a11.36,11.36,0,0,0-4.27,3.16,2.91,2.91,0,0,0-.63,1.74,2.66,2.66,0,0,0,1.35,2.06,4.34,4.34,0,0,0,2.21.71c1,0,1.34-.48,1.34-1.9Zm25.05-12.8a2.7,2.7,0,0,1,.55,1.58,2.33,2.33,0,0,1-.67,1.66,2.49,2.49,0,0,1-1.7.68,2.14,2.14,0,0,1-1.62-.76,37.73,37.73,0,0,0-6.56-6,1.91,1.91,0,0,1-.79-1.58,2.3,2.3,0,0,1,.63-1.54,2.28,2.28,0,0,1,1.7-.75,2.53,2.53,0,0,1,1.35.43A33.83,33.83,0,0,1,230.47,440.67Z"/><path class="cls-5" d="M245.05,445.1c-1,0-1.55-.71-1.55-1.86a2.61,2.61,0,0,1,.16-1,36.63,36.63,0,0,1-6.56,3.56,2.86,2.86,0,0,1-1,.2,2.07,2.07,0,0,1-2-1.5,3.17,3.17,0,0,1-.2-1,2,2,0,0,1,1.35-1.94,40.94,40.94,0,0,0,14.26-10,4.05,4.05,0,0,1,3-1.19,4.19,4.19,0,0,1,3,1.19,42.16,42.16,0,0,0,14.58,9.95,2.15,2.15,0,0,1,1.38,2,2.89,2.89,0,0,1-.23,1.1,2.18,2.18,0,0,1-2,1.43,2.51,2.51,0,0,1-1.14-.28,47.53,47.53,0,0,1-6.4-3.52,2.82,2.82,0,0,1,.15,1c0,1.15-.59,1.86-1.58,1.86h-5.68v3.95h13.19c1,0,1.54.79,1.54,2s-.55,2-1.54,2H254.65v9H269.1c1,0,1.58.83,1.58,2s-.55,2-1.58,2H236.39c-1,0-1.58-.79-1.58-2s.56-2,1.58-2h13.87v-9H237.58c-1,0-1.54-.79-1.54-2s.55-2,1.54-2h12.68V445.1Zm-2.45,8.69a2,2,0,0,1,1.66.83,21.43,21.43,0,0,1,2.09,3.95,1.53,1.53,0,0,1,.16.71c0,.75-.56,1.3-1.39,1.7a2.88,2.88,0,0,1-1.1.24,1.86,1.86,0,0,1-1.78-1.11,39.71,39.71,0,0,0-2-3.67,1.29,1.29,0,0,1-.24-.71,1.9,1.9,0,0,1,1.3-1.66A3,3,0,0,1,242.6,453.79Zm17.65-12.52a41.45,41.45,0,0,1-7-6c-.23-.23-.43-.39-.63-.39s-.39.16-.67.39a40.08,40.08,0,0,1-6.8,6Zm4.9,14.42a1.68,1.68,0,0,1-.15.71,21.47,21.47,0,0,1-2.37,4.15,2,2,0,0,1-1.62.94,2.92,2.92,0,0,1-1.31-.35,1.93,1.93,0,0,1-1.06-1.7,1.71,1.71,0,0,1,.31-1,23.55,23.55,0,0,0,2.17-3.71,1.62,1.62,0,0,1,1.54-1,2.89,2.89,0,0,1,1.11.24A1.89,1.89,0,0,1,265.15,455.69Z"/><path class="cls-5" d="M291.78,454.78c-1.3,3.55-2.57,5.37-4.07,6.56a7.3,7.3,0,0,1-4.66,1.54c-4.27,0-8.06-3.88-8.06-11.58,0-9.88,7.07-17.34,18.21-17.34,9.84,0,16.24,6.44,16.24,15.52,0,5.69-2.41,10-6.48,12.76a19.42,19.42,0,0,1-8.49,3.05,2.64,2.64,0,0,1-.56,0,2.13,2.13,0,0,1-2.33-1.9,2.79,2.79,0,0,1,0-.55,2.18,2.18,0,0,1,1.94-2.3,16.47,16.47,0,0,0,7.27-2.68,10.44,10.44,0,0,0,3.87-8.57c0-6.17-3.87-10.75-9.8-11.07A60.32,60.32,0,0,1,291.78,454.78Zm-12.21-3.56c0,4.7,1.66,6.72,3.44,6.72a3.16,3.16,0,0,0,2.21-.95,11,11,0,0,0,2.29-4.35,54.42,54.42,0,0,0,2.57-14.26C284,439,279.57,444.23,279.57,451.22Z"/><path class="cls-5" d="M321.21,433.76c0-1.3,1-2.05,2.41-2.05s2.49.75,2.49,2.05v5.65h11.46v-5.65c0-1.3.91-2.05,2.37-2.05s2.49.75,2.49,2.05v5.65h5.21c1.31,0,2,.87,2,2.21s-.67,2.29-2,2.29h-5.21v3.48c0,5-.91,8.85-3.08,11.85-2.3,3.28-6.64,6-11.74,6.88a5.11,5.11,0,0,1-.75.07,2.08,2.08,0,0,1-2.17-1.77,3.51,3.51,0,0,1-.08-.63,2.11,2.11,0,0,1,1.9-2.18,14.67,14.67,0,0,0,8.85-5.09c1.5-2.06,2.21-5.1,2.21-9.8v-2.81H326.11v8.85c0,1.31-1,2-2.49,2s-2.41-.71-2.41-2v-8.85H315.8c-1.3,0-2-.94-2-2.29a1.89,1.89,0,0,1,2-2.17h5.37Z"/><path class="cls-5" d="M375.77,464.1c0,1.34-1.07,2-2.53,2s-2.57-.6-2.57-2.1V447.51a65.77,65.77,0,0,1-12.83,5.85,4.24,4.24,0,0,1-1.11.19,2.16,2.16,0,0,1-2.17-1.5,2.6,2.6,0,0,1-.16-.95,2.3,2.3,0,0,1,1.7-2.29,61.71,61.71,0,0,0,14.69-7A47.79,47.79,0,0,0,381.14,433a2.54,2.54,0,0,1,1.94-.91,2.88,2.88,0,0,1,1.66.59,2.28,2.28,0,0,1,1.07,1.82,2.33,2.33,0,0,1-.64,1.54,50.23,50.23,0,0,1-9.4,8.22Z"/><path class="cls-5" d="M407.53,441.11a28.77,28.77,0,0,1-8.61,8.89,2.79,2.79,0,0,1-1.58.51,2.5,2.5,0,0,1-2-1.07,2.46,2.46,0,0,1-.44-1.42,2.5,2.5,0,0,1,1.11-2.09,23.49,23.49,0,0,0,5.17-4.62,31.61,31.61,0,0,0,4.71-8.06,2.2,2.2,0,0,1,2.17-1.62,4.47,4.47,0,0,1,.95.12,2.09,2.09,0,0,1,1.85,2,1.78,1.78,0,0,1-.12.67,10,10,0,0,1-1,2.29l11.14-.19c3.24,0,4.9,1.74,4.9,4.58a9.29,9.29,0,0,1-.2,1.74c-2.33,11.3-10,20.34-23.59,23.42a4.17,4.17,0,0,1-.71.08,2.25,2.25,0,0,1-2.25-1.62,3.48,3.48,0,0,1-.12-.9,2.2,2.2,0,0,1,1.86-2.22c10.86-2.76,17.38-9.36,19.47-18.92a4,4,0,0,0,.08-.63c0-.75-.39-1.07-1.5-1.07Z"/><path class="cls-5" d="M439.53,434.71A2.22,2.22,0,0,1,442,432.5a2.25,2.25,0,0,1,2.53,2.29v8.33c0,6.68-.75,11.18-2.09,14.5A19.48,19.48,0,0,1,437.2,465a3.22,3.22,0,0,1-2.09.87,2.64,2.64,0,0,1-1.94-.87,2.47,2.47,0,0,1-.63-1.7,2.57,2.57,0,0,1,1-2.05,14.4,14.4,0,0,0,4.3-5.73c1.15-2.81,1.7-6.52,1.7-12.6Zm11-.28c0-1.34.91-2.17,2.49-2.17a2.22,2.22,0,0,1,2.45,2.17l-.16,24.1c0,.51.19.79.63.79a1.9,1.9,0,0,0,.83-.24A17,17,0,0,0,464,451,2.05,2.05,0,0,1,466,449.6a3.13,3.13,0,0,1,1.27.32,2.14,2.14,0,0,1,1.38,1.93,2.55,2.55,0,0,1-.28,1.15c-2.53,5.69-7.31,10.31-11.81,11.73a7.77,7.77,0,0,1-2,.32,4.88,4.88,0,0,1-2.41-.55c-1.11-.71-1.74-1.78-1.74-3.92v-.19Z"/><circle class="cls-6" cx="175.76" cy="650.61" r="100"/><path class="cls-2" d="M190.1,642.5h-6.87a7.08,7.08,0,0,1,.26,1.9c0,.26,0,.51,0,.76.55.53,1.1,1.1,1.66,1.71h5l-1.86-2.18,1.13-1.33Z"/><path class="cls-2" d="M182.07,645.53h0a4.43,4.43,0,0,0,.14-1.06,4,4,0,0,0-1.27-3h0l1.13-2.09a2.17,2.17,0,0,0,.12-1.83,2.15,2.15,0,0,0-1.26-1.23,15.06,15.06,0,0,0-9.79,0,2.08,2.08,0,0,0-1.27,1.24,2.18,2.18,0,0,0,.13,1.82l1.14,2.1h0a4,4,0,0,0-1.29,3,4.09,4.09,0,0,0,.14,1h0c-3.42,3.1-7.07,8.33-7.58,12.49a11.49,11.49,0,0,0,2.69,9.16,11.19,11.19,0,0,0,2.77,2.27h0a18.85,18.85,0,0,0,3.75,1.6c4.62.56,0,0,0,0l2.28.35,2.25,0c5.83,0,9.08-2.33,10.79-4.27a11.49,11.49,0,0,0,2.7-9.16C189.14,653.84,185.48,648.61,182.07,645.53Zm-9-1.62a.62.62,0,0,1,.55-.31h4.75l.15,0a.74.74,0,0,1,.4.28.93.93,0,0,1,.17.56.45.45,0,0,1,0,.12.94.94,0,0,1-.32.61.7.7,0,0,1-.39.13h-4.75a.81.81,0,0,1-.73-.86A.91.91,0,0,1,173.11,643.91Zm-.94,3.8h0a3.13,3.13,0,0,0,1.49.36h4.75a3.32,3.32,0,0,0,1.48-.35h0c2.75,2.46,6.26,7.21,6.69,10.67.63,5.08-2.63,10-10.56,10s-11.19-4.9-10.56-10C165.9,654.91,169.42,650.17,172.17,647.71Zm7.64-9.2h0l-1.27,2.34-.24.44h-4.56l-.23-.44-1.11-2-.17-.31v0a12.64,12.64,0,0,1,7.31-.06Z"/><polygon class="cls-2" points="171.64 653.48 171.64 653.48 171.63 653.48 171.64 653.49 171.62 653.49 174.54 657.29 174.57 657.33 174.58 657.37 172.1 657.37 172.1 658.38 172.1 658.38 172.1 658.38 172.1 658.4 175.23 658.4 175.23 659.55 172.1 659.55 172.1 660.57 172.1 660.57 172.1 660.57 172.1 660.59 175.23 660.59 175.23 663.25 176.83 663.25 176.83 660.59 179.97 660.59 179.97 659.55 176.83 659.55 176.83 658.4 179.97 658.4 179.97 657.37 178.38 657.36 177.48 657.35 177.53 657.29 180.18 653.83 180.44 653.51 180.43 653.51 180.44 653.5 180.43 653.5 180.44 653.49 178.39 653.49 176.16 656.4 176.04 656.54 176.03 656.56 173.67 653.49 171.97 653.49 171.64 653.48"/><path class="cls-2" d="M170.61,675.69h0l0,0h-10a10.3,10.3,0,0,1,.39,2.77,9.79,9.79,0,0,1-.06,1.11c.81.78,1.62,1.61,2.44,2.5h7.27l-2.71-3.18,1.64-1.94Z"/><path class="cls-2" d="M158.88,680.1h0a6,6,0,0,0,.15-.74,7,7,0,0,0,.06-.8,5.9,5.9,0,0,0-1.86-4.32h0l1.66-3.05a3.16,3.16,0,0,0,.17-2.67,3.07,3.07,0,0,0-1.84-1.79,21.9,21.9,0,0,0-14.3,0,3,3,0,0,0-1.85,1.8,3.17,3.17,0,0,0,.18,2.66l1.67,3.06h0a5.83,5.83,0,0,0-1.89,4.31,5.65,5.65,0,0,0,.21,1.53h0c-5,4.54-10.34,12.18-11.07,18.25a16.77,16.77,0,0,0,3.93,13.39,16.37,16.37,0,0,0,4,3.32h0a26.54,26.54,0,0,0,5.48,2.34c6.75.82,0,0,0,0l3.34.52,3.28.05c8.51-.05,13.27-3.4,15.77-6.23A16.8,16.8,0,0,0,170,698.34C169.2,692.24,163.86,684.62,158.88,680.1Zm-13.09-2.36a.93.93,0,0,1,.8-.45h6.94a.89.89,0,0,1,.22,0,1,1,0,0,1,.58.41,1.38,1.38,0,0,1,.25.82.5.5,0,0,1,0,.17,1.24,1.24,0,0,1-.46.89,1,1,0,0,1-.57.2h-6.94a1.17,1.17,0,0,1-1.06-1.26A1.29,1.29,0,0,1,145.79,677.74Zm-1.38,5.55h0a4.64,4.64,0,0,0,2.17.52h6.94a4.87,4.87,0,0,0,2.16-.51h0c4,3.59,9.15,10.53,9.78,15.59.92,7.42-3.84,14.58-15.43,14.58s-16.34-7.16-15.43-14.58C135.26,693.82,140.4,686.89,144.41,683.29Zm11.17-13.44s0,0,0,0l-1.86,3.42-.34.65h-6.67l-.34-.65-1.61-3-.25-.46h0a18.45,18.45,0,0,1,10.69-.1Z"/><polygon class="cls-2" points="143.63 691.73 143.64 691.73 143.63 691.73 143.64 691.74 143.62 691.74 147.88 697.29 147.92 697.36 147.94 697.4 144.31 697.4 144.31 698.88 144.31 698.89 144.31 698.89 144.31 698.91 148.89 698.91 148.89 700.59 144.31 700.59 144.31 702.09 144.31 702.09 144.31 702.09 144.31 702.12 148.89 702.12 148.89 706.01 151.22 706.01 151.22 702.12 155.81 702.12 155.81 700.59 151.22 700.59 151.22 698.91 155.81 698.91 155.81 697.4 153.48 697.4 152.18 697.38 152.24 697.29 156.12 692.24 156.49 691.76 156.49 691.76 156.49 691.76 156.48 691.76 156.49 691.74 153.5 691.74 150.24 695.99 150.07 696.2 150.05 696.23 146.61 691.74 144.12 691.73 143.63 691.73"/><path class="cls-2" d="M220.94,675.69h0l0,0h-10a10.29,10.29,0,0,1,.38,2.77,9.86,9.86,0,0,1,0,1.11c.8.78,1.62,1.61,2.43,2.5h7.27l-2.71-3.18,1.64-1.94Z"/><path class="cls-2" d="M209.22,680.1h0a6,6,0,0,0,.15-.74,5.29,5.29,0,0,0,.06-.8,5.9,5.9,0,0,0-1.86-4.32s0,0,0,0l1.65-3.05a3.09,3.09,0,0,0,.17-2.67,3,3,0,0,0-1.84-1.79,21.87,21.87,0,0,0-14.29,0,3,3,0,0,0-1.86,1.8,3.13,3.13,0,0,0,.19,2.66l1.66,3.06s0,0,0,0a5.83,5.83,0,0,0-1.89,4.31,6.07,6.07,0,0,0,.21,1.53h0c-5,4.54-10.33,12.18-11.07,18.25a16.84,16.84,0,0,0,3.93,13.39,16.43,16.43,0,0,0,4.05,3.32h0a26.54,26.54,0,0,0,5.48,2.34h0l3.34.52,3.28.05c8.52-.05,13.27-3.4,15.77-6.23a16.77,16.77,0,0,0,3.94-13.39C219.53,692.24,214.19,684.62,209.22,680.1Zm-13.1-2.36a.94.94,0,0,1,.8-.45h7l.22,0a1,1,0,0,1,.57.41,1.38,1.38,0,0,1,.25.82,1,1,0,0,1,0,.17,1.28,1.28,0,0,1-.47.89,1,1,0,0,1-.56.2h-7a1.17,1.17,0,0,1-1.06-1.26A1.29,1.29,0,0,1,196.12,677.74Zm-1.38,5.55h0a4.67,4.67,0,0,0,2.17.52h7a4.86,4.86,0,0,0,2.15-.51h0c4,3.59,9.15,10.53,9.78,15.59.92,7.42-3.83,14.58-15.42,14.58S184,706.31,185,698.89C185.59,693.82,190.74,686.89,194.74,683.29Zm11.17-13.44s0,0,0,0l-1.86,3.42-.34.65h-6.67l-.34-.65-1.61-3-.24-.46s0,0,0,0a18.45,18.45,0,0,1,10.69-.1Z"/><polygon class="cls-2" points="193.97 691.73 193.97 691.73 193.96 691.73 193.97 691.74 193.95 691.74 198.21 697.29 198.26 697.36 198.27 697.4 194.64 697.4 194.64 698.88 194.64 698.89 194.64 698.89 194.64 698.91 199.22 698.91 199.22 700.59 194.64 700.59 194.64 702.09 194.64 702.09 194.64 702.09 194.64 702.12 199.22 702.12 199.22 706.01 201.55 706.01 201.55 702.12 206.14 702.12 206.14 700.59 201.55 700.59 201.55 698.91 206.14 698.91 206.14 697.4 203.81 697.4 202.51 697.38 202.57 697.29 206.46 692.24 206.82 691.76 206.82 691.76 206.82 691.76 206.81 691.76 206.82 691.74 203.83 691.74 200.57 695.99 200.41 696.2 200.38 696.23 196.94 691.74 194.46 691.73 193.97 691.73"/><path class="cls-2" d="M142,604.63c1.15-.48,2.21-1,3-1.36a1.78,1.78,0,0,1,.79-.18,1.62,1.62,0,0,1,1.5,1.06,2.65,2.65,0,0,1,.18.92,1.74,1.74,0,0,1-1,1.59,80,80,0,0,1-10.87,4.57,2.87,2.87,0,0,1-.79.14,1.62,1.62,0,0,1-1.58-1.28,2.65,2.65,0,0,1-.18-.92,1.57,1.57,0,0,1,1.19-1.63c1.19-.36,2.6-.84,4-1.37V591.52h-3.52c-.88,0-1.41-.71-1.41-1.81s.53-1.8,1.41-1.8h3.52v-9.77c0-1,.7-1.45,1.85-1.45s1.93.48,1.93,1.45v9.77h2.82c.93,0,1.32.75,1.32,1.8s-.39,1.81-1.32,1.81H142Zm11.45-22.88c-.53-1-1.19-2-1.76-2.86a1.4,1.4,0,0,1-.22-.71,1.52,1.52,0,0,1,1.23-1.4,3.09,3.09,0,0,1,1-.18,1.62,1.62,0,0,1,1.5.84,34.88,34.88,0,0,1,2.24,4.31h5a29,29,0,0,0,2.38-4,1.61,1.61,0,0,1,1.58-1.06,3.41,3.41,0,0,1,1.06.18c.83.26,1.19.75,1.19,1.28a2,2,0,0,1-.22.79,25.37,25.37,0,0,1-1.85,2.86h2.73c2.68,0,3.78,1,3.78,3.56v9.24c0,2.42-1.1,3.35-3.78,3.35H150.89c-2.64,0-3.78-.93-3.78-3.35v-9.24c0-2.59,1.14-3.56,3.78-3.56Zm13.9,18.48c2.77,0,4,1,4,3.39v9.5c0,2.51-1.32,3.48-4,3.48H153c-2.77,0-4.05-1-4.05-3.48v-9.5c0-2.42,1.15-3.39,3.92-3.39Zm-9.2-15.4h-6.38c-.79,0-1.1.17-1.1,1v2.47h7.48Zm-7.48,6.47v2.51c0,.83.31,1,1.1,1h6.38V591.3Zm16.9,15.36V604.5c0-.79-.39-1-1.14-1H153.75c-.79,0-1.1.18-1.1,1v2.16Zm-15,5.54c0,.79.31,1,1.1,1h12.72c.75,0,1.14-.22,1.14-1v-2.33h-15Zm16.9-23.89v-2.47c0-.84-.31-1-1.1-1h-6.69v3.48Zm-7.79,6.51h6.69c.79,0,1.1-.18,1.1-1V591.3h-7.79Z"/><path class="cls-2" d="M188.54,596.05a.34.34,0,0,1,0-.14.87.87,0,0,1,.93-.87h.07a.89.89,0,0,1,1,.87l.19,3a10,10,0,0,1,1.35-.1c3.93,0,6,2.26,6,5.33,0,3.38-2.33,5.47-5.69,5.47a8.67,8.67,0,0,1-4.13-.91,1,1,0,0,1-.57-.91,1.08,1.08,0,0,1,.09-.46,1,1,0,0,1,.87-.57,1,1,0,0,1,.45.12,7,7,0,0,0,3.05.72c2.4,0,3.91-1.39,3.91-3.39s-1.39-3.57-4-3.57a22.15,22.15,0,0,0-5.5,1,20.86,20.86,0,0,0-2.35.84c1.27,4.1,2.37,8.38,3.29,12.58a2.2,2.2,0,0,1,0,.36.93.93,0,0,1-.76.91,1.83,1.83,0,0,1-.32,0,.93.93,0,0,1-1-.74c-.89-4.2-1.87-8.45-3.12-12.46-1.32.53-2.62,1.11-3.77,1.61a1.18,1.18,0,0,1-.48.1.89.89,0,0,1-.84-.6,1,1,0,0,1-.09-.44,1,1,0,0,1,.62-.93c1.22-.55,2.57-1.08,4-1.59-.41-1.27-.89-2.54-1.37-3.86a1.81,1.81,0,0,1-.05-.31,1,1,0,0,1,.75-.87,2,2,0,0,1,.43-.07.9.9,0,0,1,.89.67c.45,1.25.89,2.52,1.27,3.8.79-.29,1.54-.53,2.26-.75,1-.29,2-.55,2.9-.72Z"/><path class="cls-2" d="M213.67,607.88a3.69,3.69,0,0,1-4,2.79,4,4,0,0,1-4.27-4.11c0-2.52,2-4.29,4.73-4.29a3.86,3.86,0,0,1,2.86,1.1c0-.86,0-2.09,0-3.21-3.53.07-7.2.21-10.68.43h-.09a.87.87,0,0,1-.89-.94v0a.86.86,0,0,1,.86-.91c3.39-.19,7.13-.31,10.78-.38,0-.84,0-1.68,0-2.4a.82.82,0,0,1,.92-.87c.69,0,1,.29,1,.92v2.32c1.3,0,2.57,0,3.8,0,.86,0,1.73,0,2.54,0a.86.86,0,0,1,1,1v.07c0,.58-.34.84-.89.84-1.42,0-2.91,0-4.47,0-.65,0-1.29,0-2,0v5a7,7,0,0,1,.7,3.14,6.72,6.72,0,0,1-3.89,6.48,12.93,12.93,0,0,1-3.81,1.27.63.63,0,0,1-.24,0,.92.92,0,0,1-1-.79,1,1,0,0,1,.74-1.23c4.3-.79,6.41-2.81,6.41-5.64v-.46Zm-3.41-4a2.67,2.67,0,0,0-2.88,2.59,2.35,2.35,0,0,0,2.62,2.45,2.72,2.72,0,0,0,2.83-2.88C212.83,604.74,211.8,603.88,210.26,603.88Z"/><circle class="cls-7" cx="330" cy="100.53" r="100"/><path class="cls-2" d="M307.53,41.9a22.89,22.89,0,0,0,4.09,6.34,2.31,2.31,0,0,1,.57,1.41,1.79,1.79,0,0,1-1.67,1.71,1.39,1.39,0,0,1-1-.48,17.71,17.71,0,0,1-2.73-5,51.57,51.57,0,0,1,.48,6.43V66.63c0,1-.61,1.5-1.85,1.5s-1.8-.53-1.8-1.5V54.49c0-2.33.4-5,.57-7.26a31.53,31.53,0,0,1-4,9.37,1.86,1.86,0,0,1-1.54.84,2,2,0,0,1-1.85-1.85,2.36,2.36,0,0,1,.57-1.5,34.11,34.11,0,0,0,5.81-12.19h-4.27c-.88,0-1.41-.7-1.41-1.8s.53-1.72,1.41-1.72h4.71V33.1c-1.32.31-2.64.62-3.83.79a1.07,1.07,0,0,1-.4,0,1.64,1.64,0,0,1-1.67-1.54,1.36,1.36,0,0,1,0-.4A1.59,1.59,0,0,1,299,30.37a37.94,37.94,0,0,0,9.94-2.9,2,2,0,0,1,1-.27,1.83,1.83,0,0,1,1.63,1,2,2,0,0,1,.22.88,1.79,1.79,0,0,1-1.19,1.67c-1,.44-2.15.88-3.43,1.32v6.29h2.91c.92,0,1.4.66,1.4,1.72s-.48,1.8-1.4,1.8Zm17.91-.83a26.7,26.7,0,0,1-2.86,2.55C326.63,48.11,328,53.87,328,60c0,5.8-1.41,7.87-5.59,7.87a17.57,17.57,0,0,1-3.79-.39,1.63,1.63,0,0,1-1.14-1.68,1.29,1.29,0,0,1,0-.39,1.55,1.55,0,0,1,1.5-1.41.83.83,0,0,1,.31,0,12.87,12.87,0,0,0,2.73.36c1.8,0,2.42-.84,2.42-4.8a17.42,17.42,0,0,0-.09-2.16,37.11,37.11,0,0,1-12.5,7.7,2,2,0,0,1-.88.18,1.59,1.59,0,0,1-1.58-1.14,1.85,1.85,0,0,1-.18-.84,1.79,1.79,0,0,1,1.06-1.63,38.59,38.59,0,0,0,13.55-8.14,19.85,19.85,0,0,0-.84-2.82,39.08,39.08,0,0,1-10.16,5.55,1.41,1.41,0,0,1-.62.13,1.68,1.68,0,0,1-1.58-1.28,2.24,2.24,0,0,1-.09-.61,1.68,1.68,0,0,1,1.06-1.59,34.72,34.72,0,0,0,10-5.1A21.8,21.8,0,0,0,320,45.47a28.12,28.12,0,0,1-5.63,2.73,1.52,1.52,0,0,1-.57.13,1.64,1.64,0,0,1-1.5-1.1,2.42,2.42,0,0,1-.13-.75,1.41,1.41,0,0,1,1-1.41,20.73,20.73,0,0,0,7.62-4h-4.1c-.88,0-1.27-.66-1.27-1.59s.39-1.58,1.27-1.58H333c.84,0,1.28.66,1.28,1.58s-.44,1.59-1.28,1.59H330.1a44,44,0,0,0,1.24,6.69,21.87,21.87,0,0,0,3.47-3.83,1.55,1.55,0,0,1,1.28-.71,2,2,0,0,1,1.23.44A1.7,1.7,0,0,1,338,45a2.09,2.09,0,0,1-.48,1.24,36.54,36.54,0,0,1-5,5A38.74,38.74,0,0,0,338.6,61.4a2,2,0,0,1,.44,1.23,1.8,1.8,0,0,1-.71,1.45,2.23,2.23,0,0,1-1.36.53,1.74,1.74,0,0,1-1.41-.75c-4.66-5.67-7.7-13.42-8.8-22.79Zm-3-12.81c0-.84.7-1.32,1.93-1.32s1.94.48,1.94,1.32v3.17H334c2.68,0,3.87.92,3.87,3.43v3c0,1-.66,1.41-1.85,1.41s-1.93-.44-1.93-1.28V35.65c0-.79-.27-1-1.11-1H316.77c-.83,0-1.19.22-1.19,1V37.9c0,.83-.61,1.27-1.76,1.27s-1.89-.44-1.89-1.45V34.86c0-2.51,1.19-3.43,3.87-3.43h6.65Z"/><path class="cls-2" d="M356.9,46.77a1.08,1.08,0,0,1-.39.82,66.28,66.28,0,0,1-9.24,7.13c-.55.36-.67.6-.67.93s.19.56.84,1a79.6,79.6,0,0,1,9.91,7.66,1.24,1.24,0,0,1,.44.94,1.21,1.21,0,0,1-.29.79,1.08,1.08,0,0,1-.82.41,1.17,1.17,0,0,1-.84-.39,79.64,79.64,0,0,0-10.08-8.09c-1.1-.74-1.46-1.37-1.46-2.25a2.73,2.73,0,0,1,1.56-2.4A63.26,63.26,0,0,0,355,46.1a1.17,1.17,0,0,1,.8-.34,1.38,1.38,0,0,1,.79.29A.92.92,0,0,1,356.9,46.77Zm-.65,3.75a.92.92,0,0,1,.62.26,22,22,0,0,1,1.92,2.35,1,1,0,0,1,.17.56.8.8,0,0,1-.31.64,1,1,0,0,1-.58.19.86.86,0,0,1-.67-.33,23.27,23.27,0,0,0-1.82-2.33.75.75,0,0,1-.19-.48.83.83,0,0,1,.33-.67A.9.9,0,0,1,356.25,50.52Zm2.45-1.44a1,1,0,0,1,.67.26,15.25,15.25,0,0,1,1.8,2.26.91.91,0,0,1,.19.55.85.85,0,0,1-.33.65,1.06,1.06,0,0,1-.53.16.88.88,0,0,1-.7-.38,15.64,15.64,0,0,0-1.73-2.18.85.85,0,0,1-.21-.53.73.73,0,0,1,.36-.65A.82.82,0,0,1,358.7,49.08Z"/><path class="cls-8" d="M556.68,242q-14.62-95.77-109-137.68"/><polygon class="cls-9" points="565.58 231.83 563.43 230.41 556.46 241.01 546.4 233.29 544.83 235.33 557.09 244.74 565.58 231.83"/><path class="cls-8" d="M199.91,112.33q-87.6,35.78-105.86,134.94"/><polygon class="cls-9" points="187.96 106.05 187.09 108.47 199.02 112.77 193.86 124.36 196.22 125.41 202.5 111.29 187.96 106.05"/><path class="cls-8" d="M537,542.12q31.9-21.32,31.89-62.58"/><polygon class="cls-9" points="549.98 545.72 550.33 543.17 537.76 541.46 540.38 529.05 537.87 528.52 534.67 543.64 549.98 545.72"/><path class="cls-8" d="M97.58,482q.65,37.19,34.27,58.82"/><polygon class="cls-9" points="87.54 490.92 89.49 492.59 97.73 482.94 106.75 491.87 108.56 490.03 97.57 479.17 87.54 490.92"/><line class="cls-10" x1="298.58" y1="650.61" x2="367.65" y2="650.61"/><polygon class="cls-9" points="307.11 661.14 308.87 659.25 299.57 650.62 308.87 641.98 307.11 640.09 295.79 650.62 307.11 661.14"/><path class="cls-2" d="M369.53,98.57,352.36,76.44a.58.58,0,0,0-.8-.11l-3.31,2.59,5.24,6.76a4.83,4.83,0,0,0,1-.61L359,90.9l2.65,3.44h0a4.35,4.35,0,0,0-1.05,1.14A5,5,0,0,0,360,100a5.46,5.46,0,0,0,.79,1.51l-11.34,8.79,5.92,0,14.07-10.92A.56.56,0,0,0,369.53,98.57Z"/><polygon class="cls-2" points="332.84 99.03 332.84 99.03 332.84 99.03 332.82 99.01 329.35 101.7 328.35 100.42 331.79 97.76 331.8 97.75 331.8 97.75 331.82 97.73 330.93 96.58 329.2 97.92 328.99 98.08 328.17 98.58 328.15 95.93 328.14 93.44 328.14 92.11 328.14 91.91 328.14 91.92 328.14 91.9 328.13 91.92 328.13 91.89 325.87 93.65 325.88 97.15 325.88 97.59 325.9 98.78 325.9 99.04 325.89 99.08 324.45 98.69 324.04 98.58 320.65 97.7 319.25 98.78 318.38 99.43 318.4 99.45 318.38 99.46 322.3 100.48 324.86 101.16 324.93 101.17 324.97 101.2 322.26 103.3 322.25 103.31 322.25 103.31 322.23 103.33 323.12 104.48 326.59 101.79 327.57 103.06 324.11 105.76 324.97 106.87 324.97 106.88 324.97 106.88 324.99 106.91 328.47 104.21 330.75 107.16 332.49 105.81 332.5 105.8 332.5 105.8 332.52 105.78 330.22 102.83 333.7 100.14 332.84 99.03"/><path class="cls-2" d="M302.93,110.56h4.51v0h0l-.67-.86a5.11,5.11,0,0,0,.91-7.17l26-20.18,0,0a5.1,5.1,0,0,0,7.17.91l7.17,9.25h0a5.11,5.11,0,0,0-.91,7.17l-7.7,6-6.15,4.74h0l0,0,5.93,0L355.83,97.5a.58.58,0,0,0,.1-.79L338.76,74.58a.55.55,0,0,0-.8-.1l-38.9,30.17a.57.57,0,0,0-.1.79Z"/><polygon class="cls-2" points="316.02 110.49 321.64 106.13 321.14 105.46 321.14 105.45 321.14 105.45 321.12 105.43 317.48 108.25 314.58 110.46 314.62 110.46 314.58 110.49 316.02 110.49"/><polygon class="cls-2" points="333.78 96.71 341.75 90.53 341.84 90.46 341.84 90.46 341.86 90.44 341.33 89.76 333.37 95.93 333.27 96.01 333.27 96.01 333.24 96.03 333.78 96.71"/><path class="cls-2" d="M330.45,146.75h0l0,0a2.12,2.12,0,0,0-.37.84,2.38,2.38,0,0,0,.4,1.94,2.21,2.21,0,0,0,.37-.83,2.42,2.42,0,0,0-.26-1.72Z"/><path class="cls-2" d="M339.57,141.71a.77.77,0,0,0-.74-.75q-4.43-.21-9.06-.17c-3.08,0-6.1.1-9,.27a.76.76,0,0,0-.74.77s0,0,0,.08v1l0,7.16a5.67,5.67,0,0,0,5.68,5.63l8.3,0a5.67,5.67,0,0,0,5.61-5.68l0-7.16ZM331.82,144a4.14,4.14,0,0,1,3.75,1.46.54.54,0,0,1,.11.44.58.58,0,0,1-.25.37l-.61.35a.55.55,0,0,1-.65-.11,2.32,2.32,0,0,0-2-.76h-.23v0h0a4.26,4.26,0,0,1,.66,3.15,4,4,0,0,1-.51,1.32,2,2,0,0,1-.12.19h0s0,0,0,0a2.38,2.38,0,0,0,.46,0,2.35,2.35,0,0,0,1.79-.82.53.53,0,0,1,.65-.1l.63.34a.63.63,0,0,1,.25.37.51.51,0,0,1-.11.43,4.1,4.1,0,0,1-3.19,1.53,4,4,0,0,1-2-.47l0,0a4.12,4.12,0,0,1-5.12-1,.49.49,0,0,1-.11-.42.52.52,0,0,1,.26-.37l.59-.35a.54.54,0,0,1,.67.09,2.38,2.38,0,0,0,2.1.77H329a4.27,4.27,0,0,1-.67-3.17,4.14,4.14,0,0,1,.55-1.36s.05-.1.08-.14h0l0,0a1.91,1.91,0,0,0-.48-.05,2.47,2.47,0,0,0-1.79.82.52.52,0,0,1-.65.11l-.61-.35a.54.54,0,0,1-.26-.36.55.55,0,0,1,.12-.44,4.17,4.17,0,0,1,3.19-1.53,4.32,4.32,0,0,1,1.95.47h0a4.33,4.33,0,0,1,1.36-.44Z"/><path class="cls-2" d="M369.13,142.27l-.1-18.73a8.93,8.93,0,0,0-9-8.86l-10.45,0-5.93,0-10.18.06-5.92,0-16.69.09-4.55,0-7.14,0a8.92,8.92,0,0,0-8.86,9l.1,18.73,0,3.73.07,12A10.42,10.42,0,0,0,301,168.82l57.84-.31A10.45,10.45,0,0,0,369.22,158l-.08-12Zm-25.85.67h0l0,7a9.31,9.31,0,0,1-9.26,9.37l-8.29,0a9.32,9.32,0,0,1-9.36-9.25l0-7a197,197,0,0,0-20,2.26l-1.12.17V141.8a200,200,0,0,1,21.92-2.44,4.44,4.44,0,0,1,3.45-2c3-.16,6.12-.26,9.23-.27s6.22,0,9.23.17a4.47,4.47,0,0,1,3.47,1.94,197.78,197.78,0,0,1,22,2.2v3.71A194.26,194.26,0,0,0,343.91,143l-.63,0Zm-37.4-21.53a.89.89,0,0,1,.59,1.56l-7.82,6.71a.9.9,0,0,1-1.48-.68l0-4.46a3.09,3.09,0,0,1,3.07-3.1Z"/></svg>