<svg id="レイヤー_1" data-name="レイヤー 1" xmlns="http://www.w3.org/2000/svg" viewBox="0 0 773.98 690.61"><defs><style>.cls-1{fill:#b582ae;}.cls-2{fill:#fff;}.cls-3{fill:#89c7bc;}.cls-4{fill:#eaaa36;}.cls-5{fill:#dfb78d;}.cls-6{fill:#a3d08b;}.cls-7{fill:#8687be;}.cls-10,.cls-8{fill:none;stroke:#666;stroke-miterlimit:10;}.cls-8{stroke-width:2.57px;}.cls-9{fill:#666;}.cls-10{stroke-width:2.57px;}</style></defs><title>money_cicle_chart</title><circle class="cls-1" cx="673.98" cy="297.6" r="100"/><path class="cls-2" d="M640.55,256.05a2.42,2.42,0,0,1-.13.75,26.16,26.16,0,0,1-3.61,6.33,2,2,0,0,1-1.54.75,2.1,2.1,0,0,1-1.28-.48,1.7,1.7,0,0,1-.74-1.37,1.92,1.92,0,0,1,.44-1.14,22.72,22.72,0,0,0,3.3-5.63,1.49,1.49,0,0,1,1.45-.93,2,2,0,0,1,.84.18A1.65,1.65,0,0,1,640.55,256.05Zm-5.68-28.16c0-2.82,1.19-3.74,3.83-3.74h5.9c2.68,0,3.87.92,3.87,3.74v21.69c0,2.64-1.19,3.52-3.87,3.52h-5.9c-2.64,0-3.83-.88-3.83-3.52Zm10,.79c0-.84-.49-1.06-1.23-1.06h-4c-.75,0-1.14.22-1.14,1.06v4h6.38ZM638.53,241h6.38v-5.07h-6.38Zm0,3.16v4.54c0,.83.39,1,1.14,1h4c.74,0,1.23-.18,1.23-1v-4.54Zm6.55,10.17a1.68,1.68,0,0,1,1.54,1,25.09,25.09,0,0,0,2.82,4.57,1.93,1.93,0,0,1,.4,1.1,1.82,1.82,0,0,1-.84,1.5,1.89,1.89,0,0,1-1.19.44,1.87,1.87,0,0,1-1.45-.79,25.09,25.09,0,0,1-3.08-5.37,2,2,0,0,1-.18-.79,1.57,1.57,0,0,1,1.1-1.45A2.13,2.13,0,0,1,645.08,254.29Zm19.28,4.4c0,3.39-1.32,4.53-5,4.53a20.39,20.39,0,0,1-4.35-.35,1.69,1.69,0,0,1-1.37-1.76,2.37,2.37,0,0,1,0-.53c.23-1,.84-1.49,1.54-1.49a.8.8,0,0,1,.31,0,16.21,16.21,0,0,0,3.3.31c1.19,0,1.54-.22,1.54-1.63V243.29h-8.44c-.93,0-1.5-.75-1.5-1.85s.57-1.85,1.5-1.85H672.1c.93,0,1.5.71,1.5,1.85s-.57,1.85-1.5,1.85h-7.74Zm-4.84-34.32c0-.88.79-1.37,2-1.37s2,.49,2,1.37v3.87h6c2.59,0,3.74,1.1,3.74,3.65v4.4c0,1.19-.8,1.63-1.85,1.63s-1.85-.44-1.85-1.28V232.9c0-.83-.4-1.05-1.19-1.05H655.34c-.75,0-1.15.22-1.15,1.05v3.74c0,.84-.74,1.28-1.85,1.28s-1.84-.44-1.84-1.63v-4.44c0-2.56,1.14-3.61,3.74-3.61h5.28Z"/><path class="cls-2" d="M681.3,260.17c-2.16,0-3.79-1.72-3.79-4.82a9.42,9.42,0,0,1,4.06-7.54,41.72,41.72,0,0,1-.77-4.15v-.17a.84.84,0,0,1,.74-.91,1.1,1.1,0,0,1,.24,0,.77.77,0,0,1,.82.79c.14,1.15.33,2.33.55,3.48a12.26,12.26,0,0,1,5.86-1.37c.19-1,.36-2,.48-2.88.07-.58.38-.84.86-.84a.56.56,0,0,1,.22,0,.85.85,0,0,1,.84.88.53.53,0,0,1,0,.22c-.12.86-.28,1.8-.48,2.76a8.3,8.3,0,0,1,3.44,1.27,7.23,7.23,0,0,1,3.36,6.41c0,4.73-3.56,7.9-9.15,8.59a.75.75,0,0,1-.24,0,.92.92,0,0,1-1-.8.51.51,0,0,1,0-.21.89.89,0,0,1,.87-.91c4.53-.58,7.51-3.05,7.51-6.68a5.9,5.9,0,0,0-2.42-4.94,6.66,6.66,0,0,0-2.74-1.06c-.29,1.18-.6,2.31-1,3.32a27.63,27.63,0,0,1-2.69,5.59c.19.33.43.65.65,1a1.14,1.14,0,0,1,.22.67.89.89,0,0,1-.34.7,1.06,1.06,0,0,1-.65.24.8.8,0,0,1-.6-.26c-.19-.24-.33-.46-.5-.7A5.44,5.44,0,0,1,681.3,260.17Zm.75-10.46a7.25,7.25,0,0,0-2.67,5.5c0,1.87.87,3.07,2,3.07a4.21,4.21,0,0,0,3.25-2A29.78,29.78,0,0,1,682.05,249.71Zm5.78.36c.31-.91.58-1.87.82-2.9a10.6,10.6,0,0,0-5.07,1.34,29.64,29.64,0,0,0,2.19,6.17A26.55,26.55,0,0,0,687.83,250.07Z"/><path class="cls-2" d="M708.71,251.2A12.91,12.91,0,0,1,714,250c4.32,0,7,2.28,7,5.54,0,4-3.67,6.58-9.53,6.58-3.55,0-5.86-1.49-5.86-3.72,0-1.87,1.56-3.24,3.92-3.24a5,5,0,0,1,5.13,4.73c2.45-.58,4.28-2.09,4.28-4.32s-1.88-3.94-5.28-3.94c-3.2,0-6.1,1.06-10,3.51a1.28,1.28,0,0,1-.65.16,1,1,0,0,1-.86-.45.88.88,0,0,1-.17-.53,1,1,0,0,1,.55-.91,105.71,105.71,0,0,0,12.32-9c-2.62.21-6.29.36-9.36.38a.87.87,0,0,1-.89-.93c0-.56.29-1,.84-1,3.24,0,7.34-.12,10.54-.34h.21a1.3,1.3,0,0,1,1.2.6,1.34,1.34,0,0,1-.26,1.69,51.43,51.43,0,0,1-6.27,4.94c-.67.46-1.49,1-2.16,1.39Zm.72,5.54c-1.25,0-2,.65-2,1.54,0,1.1,1.44,2,3.58,2,.58,0,1.17,0,1.75-.05C712.6,257.92,711.09,256.74,709.43,256.74Z"/><path class="cls-2" d="M688.52,286.7a.94.94,0,0,0,1.08-.68l1.4-5.39a.94.94,0,0,0-.73-1.15l-.7-.14a.94.94,0,0,0-1.1.8l-.7,5.53A.94.94,0,0,0,688.52,286.7Z"/><path class="cls-2" d="M677.62,288.48a.93.93,0,0,0,1.54-1l-2.82-4.8a.92.92,0,0,0-1.32-.3l-.6.4a.93.93,0,0,0-.21,1.34Z"/><path class="cls-2" d="M698,292.39l4.81-2.82a.93.93,0,0,0,.3-1.32l-.41-.6a.92.92,0,0,0-1.34-.21l-4.4,3.41a1,1,0,0,0-.2,1.26A.92.92,0,0,0,698,292.39Z"/><path class="cls-2" d="M724,323.54l-.12-.16v0a8.06,8.06,0,0,1-2,1.31s0,0,0,0a8.77,8.77,0,0,1-1.12.4h0a8.8,8.8,0,0,1-2.88.32h-.1a8.76,8.76,0,0,1-2.77-.61l-.15-.07h0a8.8,8.8,0,0,0,1.29-8.1,4.05,4.05,0,0,0-7.83,0,8.8,8.8,0,0,0,1,7.72c.09.13.16.26.25.39h0a8.79,8.79,0,0,1-2.43.63l-.14,0a24.14,24.14,0,0,0-3.25-11.09,23.84,23.84,0,0,0-6.47-7.2L697,307h0l0,0a13.87,13.87,0,0,1-11.42,5.87h-.38A14,14,0,0,1,672,302.29h-5.94A26.27,26.27,0,0,0,654,295.12a1.71,1.71,0,0,0-1.6.28,1.77,1.77,0,0,0-.68,1.47c.12,3.36,1.4,3.66,2.43,7.5a24.57,24.57,0,0,0-10.47,8.89c-1.5,2.31-5.59,3.63-8.75,3.9a3.39,3.39,0,0,0-2.47,1.38,3.48,3.48,0,0,0-.6,2.8l2.11,9.69a6.31,6.31,0,0,0,6.19,5,5.27,5.27,0,0,1,1.89.27c2.1,6.14,4.47,10,11.2,12.57l1.47,5a4.18,4.18,0,0,0,4.16,4.17h4.43a4.19,4.19,0,0,0,4.17-4.17l1.48-3.19h10.3v3.19A4.18,4.18,0,0,0,683.4,358h4.41a4.18,4.18,0,0,0,4.18-4.17l1.47-5a20.31,20.31,0,0,0,10-8.9.21.21,0,0,1,0-.07c.24-.43.46-.85.68-1.29a.27.27,0,0,1,.06-.12c.2-.44.41-.9.6-1.37a.32.32,0,0,1,0-.09,29.32,29.32,0,0,0,1.94-8.32,11.31,11.31,0,0,0,4.06-1c.41-.18.81-.38,1.19-.59h0a.07.07,0,0,0,.06,0,11.74,11.74,0,0,0,13.67-1.13ZM658.7,324a4.17,4.17,0,1,1,4.17-4.16A4.18,4.18,0,0,1,658.7,324Zm54.3-2a6.14,6.14,0,0,1-.49.76c-.1.11-.21.23-.33.34h0v0l-.06.05a5.33,5.33,0,0,1-1-5.26c.25-.71.63-.82,1-.82s.8.11,1,.82A5.36,5.36,0,0,1,713,322Z"/><path class="cls-2" d="M676,298.56a9.59,9.59,0,1,0,9.84-9.33A9.58,9.58,0,0,0,676,298.56Zm6.09-4.27,1.26,0,1.47,2,.18.25.49.68.11.16h0l0,0,.13-.15.54-.68.19-.23,1.58-1.94.83,0,1.2.07-.69.82-1.11,1.38-.74.92-.44.51h0l0,0,1.87.14h.56v.37l-.07.66h0l-3.08-.08,0,1.11h0v0l3.13.09v.37l-.07.66h0l-3-.09h0l-.07,2.67-1.59,0,.07-2.62h0v0l-3.13-.08,0-1,3.13.09,0-1.12h0v0l-3.13-.09,0-1,1.53,0,.91,0h0l-.42-.6-.73-1-.69-1-1-1.39Z"/><circle class="cls-3" cx="100" cy="297.6" r="100"/><path class="cls-2" d="M53.67,247.86c3,0,4.22,1.45,4.18,4.18a30.57,30.57,0,0,1-1.68,10.48c-1.05,2.81-3,4-7.08,4a28.38,28.38,0,0,1-6.16-.61,1.8,1.8,0,0,1-1.54-1.89,2.32,2.32,0,0,1,0-.53c.18-1.06.79-1.63,1.63-1.63a2.19,2.19,0,0,1,.57.09,23.36,23.36,0,0,0,5.37.66c2.07,0,3-.53,3.61-2.12a25.31,25.31,0,0,0,1.19-7.7c0-.88-.27-1.27-1.54-1.27H41.39c-2,0-3.13-.93-3.13-2.6a4.66,4.66,0,0,1,.13-1c.49-2.29.93-4.62,1.24-6.78a3.32,3.32,0,0,1,3.65-3h9.33c.79,0,1.19-.22,1.19-1.06V232.9c0-.79-.4-1-1.19-1h-13c-.84,0-1.46-.88-1.46-2a1.72,1.72,0,0,1,1.46-1.9H54c2.51,0,3.79,1.15,3.79,3.57v6.64c0,2.6-1.28,3.61-3.79,3.61H44.56a1,1,0,0,0-1.15.93c-.26,1.32-.53,2.77-.79,4a1.29,1.29,0,0,0,0,.39c0,.53.35.75,1.05.75ZM68,228.37c0-1,.79-1.59,2.07-1.59s2.11.62,2.11,1.59v37c0,1-.79,1.59-2.11,1.59S68,266.3,68,265.33Z"/><path class="cls-2" d="M95,258a19.54,19.54,0,0,1-3.17-3.77A77.49,77.49,0,0,1,82,255c-.65,0-1-.36-1-.84v-.07a.77.77,0,0,1,.84-.86,72.83,72.83,0,0,0,9-.68A25.67,25.67,0,0,1,89.48,250a62.6,62.6,0,0,1-7.61.5.89.89,0,0,1-1-.89.83.83,0,0,1,.87-.89,62.6,62.6,0,0,0,6.89-.4c-.29-.65-.56-1.37-.84-2.07a.76.76,0,0,1-.1-.41.8.8,0,0,1,.67-.76,2,2,0,0,1,.39-.05.89.89,0,0,1,.88.74c.27.79.58,1.59.87,2.33a47.65,47.65,0,0,0,6.14-1.27,1.19,1.19,0,0,1,.39-.07.77.77,0,0,1,.79.64,2.33,2.33,0,0,1,0,.34.78.78,0,0,1-.63.79,57.31,57.31,0,0,1-6,1.27,20.34,20.34,0,0,0,1.35,2.52c1.87-.31,3.72-.69,5.35-1.12a1.81,1.81,0,0,1,.38-.05.75.75,0,0,1,.84.62,1.32,1.32,0,0,1,0,.31c0,.44-.26.68-.77.84-1.36.34-3,.68-4.8,1a29,29,0,0,0,3.58,4.29,1.29,1.29,0,0,1,.48,1,1.08,1.08,0,0,1-1,1.08,2.62,2.62,0,0,1-1.15-.38,13.52,13.52,0,0,0-6.1-1.32c-4.17,0-5.47,1.22-5.47,2.78,0,1.71,1.7,2.52,5.55,2.52a21.62,21.62,0,0,0,6.16-.91,1.35,1.35,0,0,1,.44-.07.85.85,0,0,1,.86.7,2.23,2.23,0,0,1,0,.36.93.93,0,0,1-.72.93,23.8,23.8,0,0,1-6.91.92c-4.93,0-7.49-1.61-7.49-4.37,0-2.6,2.28-4.52,7.49-4.52a12.29,12.29,0,0,1,5.49,1.23Z"/><path class="cls-2" d="M103.74,257.25c-.43,0-.67-.28-.67-.81s.24-.79.67-.79h20.74c.43,0,.69.31.69.79s-.26.81-.69.81H121.6v7.11c0,1.73-.8,2.33-2.86,2.33a13.11,13.11,0,0,1-2.66-.19.77.77,0,0,1-.63-.8.69.69,0,0,1,0-.24.74.74,0,0,1,.74-.67.62.62,0,0,1,.19,0,10,10,0,0,0,2,.2c1.16,0,1.37-.17,1.37-.89v-6.87Zm11.57-6c1.61,1.71,3.93,2.31,7.2,2.45a.68.68,0,0,1,.65.7v.14a.79.79,0,0,1-.84.67h-.08c-3.91-.19-6.76-1.22-8.57-3.67a5.58,5.58,0,0,1-1.72,1.85,14.35,14.35,0,0,1-6,1.82h-.14a.82.82,0,0,1-.82-.6,1,1,0,0,1,0-.24.59.59,0,0,1,.6-.62,12.46,12.46,0,0,0,5.59-1.61,3.85,3.85,0,0,0,.91-.89h-5.18c-.39,0-.6-.28-.6-.74s.21-.72.6-.72h5.85a5.8,5.8,0,0,0,.2-1.18.65.65,0,0,1,.71-.62h-7.48c-.51,0-.75.14-.75.65v1.75c0,.48-.36.72-.89.72s-.91-.24-.91-.72V248.3c0-1.37.67-1.92,2-1.92h7.42V245c0-.43.36-.67.89-.67s.91.24.91.67v1.39h7.58c1.4,0,2,.55,2,1.92v2.09c0,.48-.33.72-.88.72s-.92-.24-.92-.72v-1.75c0-.51-.24-.65-.74-.65h-8.14c.51,0,.87.19.87.62a.34.34,0,0,1,0,.17,5.15,5.15,0,0,1-.24,1h6.84c.39,0,.6.26.6.72s-.21.74-.6.74Zm-.6,7.35c1.39,0,2,.5,2,1.73v2.3c0,1.22-.62,1.75-2,1.75h-6.27c-1.41,0-2-.53-2-1.75v-2.3c0-1.23.63-1.73,2-1.73Zm-.44,4.32c.48,0,.73-.15.73-.58v-1.75c0-.43-.25-.55-.73-.55h-5.4c-.48,0-.72.12-.72.55v1.75c0,.43.24.58.72.58Z"/><path class="cls-2" d="M143.72,256.92c-.33,1.8-1.22,2.81-2.92,2.81a6.1,6.1,0,0,1-3.72-1.37,1,1,0,0,1-.34-.75,1,1,0,0,1,.19-.57,1,1,0,0,1,.77-.39,1,1,0,0,1,.62.24,4,4,0,0,0,2.28.89c.72,0,1.08-.36,1.28-1.34a26.85,26.85,0,0,0,.26-3.84c-1.27.05-2.47.07-3.6.14-1.54.1-3.07.17-4.63.29v2.64c0,4.32.12,5.33.48,5.93.6,1.1,1.94,1.42,5,1.42a34,34,0,0,0,6.31-.58,1.38,1.38,0,0,1,.34,0,.86.86,0,0,1,.91.8.75.75,0,0,1,0,.21,1,1,0,0,1-.88,1,38,38,0,0,1-6.63.55c-3.79,0-5.81-.63-6.67-2.14-.65-1-.87-2.18-.87-6.31v-.65c0-.89,0-1.8,0-2.76-1.23.07-2.52.19-3.79.29H128a.85.85,0,0,1-.84-.87v-.07a.83.83,0,0,1,.82-.89c1.29-.09,2.61-.19,4-.31,0-1.49,0-3.14,0-4.46a.88.88,0,0,1,1-.89c.62,0,1,.34,1,.89,0,1.41,0,2.88,0,4.34,1.47-.09,3-.19,4.54-.26,1,0,2.3-.12,3.67-.17,0-.5,0-1,0-1.51,0-1,0-2,0-2.86a.86.86,0,0,1,1-.86.9.9,0,0,1,1,.84v2.11c0,.72,0,1.44,0,2.23,1.3,0,2.74-.07,4.08-.09.68,0,.94.33.94.88s-.26,1-.91,1c-1.35,0-2.74.05-4.13.08A24.77,24.77,0,0,1,143.72,256.92Z"/><path class="cls-2" d="M159.13,254.76a12.91,12.91,0,0,1,5.33-1.25c4.32,0,7,2.28,7,5.54,0,4-3.67,6.58-9.53,6.58-3.55,0-5.86-1.49-5.86-3.72,0-1.87,1.56-3.24,3.92-3.24a5,5,0,0,1,5.13,4.73c2.45-.58,4.28-2.09,4.28-4.32s-1.88-3.94-5.28-3.94c-3.2,0-6.1,1.06-10,3.51a1.28,1.28,0,0,1-.65.16,1,1,0,0,1-.86-.45.88.88,0,0,1-.17-.53,1,1,0,0,1,.55-.91,105.71,105.71,0,0,0,12.32-9c-2.62.21-6.29.36-9.36.38a.87.87,0,0,1-.89-.93c0-.56.29-1,.84-1,3.24,0,7.34-.12,10.54-.33h.21a1.28,1.28,0,0,1,1.2.6,1.35,1.35,0,0,1,.19.69,1.4,1.4,0,0,1-.45,1,51.43,51.43,0,0,1-6.27,4.94c-.67.46-1.49,1-2.16,1.39Zm.72,5.54c-1.25,0-2,.65-2,1.54,0,1.1,1.44,2,3.58,2,.58,0,1.18,0,1.75-.05C163,261.48,161.51,260.3,159.85,260.3Z"/><path class="cls-2" d="M131.74,352.17a8.88,8.88,0,0,0-7.14-6.76h0a8.69,8.69,0,0,0-1.45-.12H123c-.15,0-.31,0-.46,0h-.07l-4,.41-1.59.16a7.14,7.14,0,0,0,.24-3.28,7.35,7.35,0,0,0-2.34-4.32l-7.81-7a13,13,0,0,0-11-3.12l-15,2.61a7.76,7.76,0,0,0-2.39.81,4,4,0,0,0-2.19-1.19h0a3.77,3.77,0,0,0-.83-.08h0a3.88,3.88,0,0,0-.59,0L67,331.52a5.8,5.8,0,0,0-2.55-1h0a6.09,6.09,0,0,0-1.86,0l-6.52,1v29.26h0v0L67,359a5.88,5.88,0,0,0,3.9-2.36l7.92-1.24a4.07,4.07,0,0,0,2.65-1.55,7.74,7.74,0,0,0,2.59.09l4.57-.63L96.81,362a9.88,9.88,0,0,0,8,3h0l19-1.93a9,9,0,0,0,6.24-3.37,9.11,9.11,0,0,0,1.8-6.89C131.83,352.6,131.79,352.38,131.74,352.17ZM123.28,357l-19,1.94a3.77,3.77,0,0,1-3-1.16l-8.89-9.35a4.16,4.16,0,0,0-3.57-1.26l-5.56.76a1.9,1.9,0,0,1-1.38-.37l-1.38-8.93A1.9,1.9,0,0,1,82,336.75l15-2.59a6.88,6.88,0,0,1,5.82,1.67l7.8,6.95a1.19,1.19,0,0,1,.38.71,1.17,1.17,0,0,1-.1.68,2.93,2.93,0,0,1-3.12,1.63l-.17,0a2.9,2.9,0,0,1-.55-.17l-.08,0a3.1,3.1,0,0,1-.52-.31l-4-3a1.49,1.49,0,0,0-2.28.6l-.23.52a1.34,1.34,0,0,0-.1.84,1.52,1.52,0,0,0,.36.77l5.81,6.33a3.73,3.73,0,0,0,3,1.2l13.81-1.14a2.82,2.82,0,0,1,2.93,2.17,1.3,1.3,0,0,0,0,.21A2.84,2.84,0,0,1,123.28,357ZM76,349.7l-4.32.67-2-13.08,4.31-.67.41,2.59L76,349.62Z"/><path class="cls-2" d="M146.4,301l-2.24-.31h0l-3.2,22.68a1.14,1.14,0,0,1-1.28,1l-42.09-6-.1,0h0l-.37,2.63a1.13,1.13,0,0,0,1,1.27l44.48,6.29a1.15,1.15,0,0,0,1.29-.95l3.56-25.3A1.11,1.11,0,0,0,146.4,301Z"/><polygon class="cls-2" points="119.03 301.17 118.75 301.44 118.61 301.58 117.98 302.21 117.8 302.38 117.78 302.4 117.21 301.38 117.11 301.21 116.92 300.87 115.35 298.09 113.74 297.86 113.11 297.77 112.78 297.7 112.79 297.72 112.77 297.72 112.75 297.72 114.57 300.93 114.61 301.01 114.62 301.01 115.77 303.04 115.79 303.11 115.8 303.12 115.8 303.14 112.71 302.7 112.69 302.7 112.69 302.7 112.67 302.7 112.49 303.98 112.49 303.98 112.49 303.98 112.48 304.01 116.45 304.57 116.24 306.02 112.33 305.48 112.3 305.47 112.3 305.47 112.27 305.47 112.09 306.74 112.09 306.75 112.09 306.75 112.08 306.78 116.05 307.34 115.58 310.71 117.59 310.99 117.59 310.96 117.78 309.65 118.06 307.62 119.31 307.79 121.9 308.17 122.03 308.18 122.22 306.89 122.22 306.88 121.09 306.72 118.49 306.34 118.29 306 118.46 304.85 120.16 305.1 122.43 305.41 122.62 304.13 122.62 304.11 120.65 303.83 120.39 303.79 119.55 303.57 121.2 301.96 121.28 301.88 122.9 300.29 123.69 299.52 123.9 299.33 123.89 299.33 123.9 299.32 123.9 299.3 121.3 298.93 119.03 301.17"/><path class="cls-2" d="M93.27,315.3l1.11.16,3.39.49,8.59,1.21,29.55,4.18,1.84.26a1.14,1.14,0,0,0,1.27-1l.21-1.55,1.42-10,1.25-8.78.53-3.72.17-1.26a1.13,1.13,0,0,0-1-1.27l-44.47-6.29a1.11,1.11,0,0,0-1.27,1L92.31,314A1.12,1.12,0,0,0,93.27,315.3Zm43.52-11.15-1.11,7.93a5.25,5.25,0,0,0-2.64.62,5,5,0,0,0-1,.68,5.21,5.21,0,0,0-1.64,2.62l-7.67-1.08-2-.29-17.88-2.53-1-.14A5.33,5.33,0,0,0,99,307.15a2.74,2.74,0,0,0-.4-.15l-.5-.19-.21-.09,1.33-9.43a4.67,4.67,0,0,0,1.19-.12,5.23,5.23,0,0,0,3.33-2.25,4.86,4.86,0,0,0,.71-1.57l28.61,4a5.31,5.31,0,0,0,3.92,5.24Z"/><polygon class="cls-2" points="101.5 302.02 101.36 302 101.36 302 101.33 302 101.23 302.78 106.64 303.56 110.47 304.1 110.58 303.33 110.58 303.31 107.59 302.88 101.5 302.02"/><polygon class="cls-2" points="124.33 306.02 124.33 306.02 124.33 306.02 124.33 306.05 125.64 306.24 128.24 306.61 133.56 307.37 133.68 306.6 133.68 306.58 124.44 305.27 124.33 306.02"/><path class="cls-4" d="M296.63,301.43c-2.61,0-3.63-.95-3.63-3.16v-8.85c0-2.22,1.26-3.2,4.18-3.2h19.76c3.2,0,4.14,1,4.14,3.2v8.92c0,2.22-1,3.09-3.59,3.09h-3.63l.15,0a43.62,43.62,0,0,0,9.44,1.89,1.65,1.65,0,0,1,1.62,1.74v.28a1.71,1.71,0,0,1-1.81,1.73h-.2a41.77,41.77,0,0,1-11.54-2.8,1.58,1.58,0,0,1-1.1-1.38,1.33,1.33,0,0,1,.47-1,2.48,2.48,0,0,1,.91-.51h-9.64a2.6,2.6,0,0,1,.83.47,1.45,1.45,0,0,1,.48,1,1.58,1.58,0,0,1-1,1.34,37.9,37.9,0,0,1-11.22,2.84H291a1.76,1.76,0,0,1-1.86-1.65,1.46,1.46,0,0,1,0-.36,1.66,1.66,0,0,1,1.58-1.78,38.37,38.37,0,0,0,9.32-1.89Zm4.82-19.05h4.7c.63,0,1,.6,1,1.39s-.4,1.34-1,1.34H294c-3,0-4-.71-4-3.12v-8.14c0-2.41,1.07-3.12,4-3.12h12.13c.63,0,1,.51,1,1.34s-.4,1.39-1,1.39h-4.7v1.42h2.37c2.13,0,2.81.63,2.81,2.13v1.9c0,1.5-.68,1.93-2.81,1.93h-2.37Zm-3.55-7.5v-1.42h-3c-.67,0-.91.12-.91.75v.67Zm-4,3.79h8.22c.52,0,.67-.08.67-.51v-.56c0-.43-.15-.51-.67-.51h-8.22Zm0,3c0,.64.24.75.91.75h3v-1.54h-4ZM317,290.48v-.75c0-.59-.28-.75-1-.75H298.09c-.67,0-.95.16-.95.75v.75Zm-19.88,4.07H317V293H297.14Zm0,3.48c0,.59.28.71.95.71H316c.71,0,1-.12,1-.71v-.95H297.14Zm24.22-27.3a2.43,2.43,0,0,1,2.73,2.45,3.91,3.91,0,0,1-.6,1.94,20.35,20.35,0,0,1-4.62,5.13,23,23,0,0,0,5.73,2.69,1.65,1.65,0,0,1,1.26,1.66,2.94,2.94,0,0,1-.11.79,1.76,1.76,0,0,1-1.7,1.3,2.4,2.4,0,0,1-.75-.12,24.27,24.27,0,0,1-7.63-4,27.66,27.66,0,0,1-5.37,2.57,2.92,2.92,0,0,1-.79.12,1.68,1.68,0,0,1-1.62-1,2,2,0,0,1-.16-.83,1.52,1.52,0,0,1,1-1.54,27.66,27.66,0,0,0,4.15-1.82,23.73,23.73,0,0,1-3.08-4,1.18,1.18,0,0,1-.28-.79,1.22,1.22,0,0,1,.91-1.14l.31-.12h-1.7c-.75,0-1.26-.71-1.26-1.66s.51-1.62,1.26-1.62ZM312.24,274a2.47,2.47,0,0,1,1.18.79A17,17,0,0,0,316,278a15.74,15.74,0,0,0,3.2-3.32,1,1,0,0,0,.16-.39c0-.16-.16-.24-.52-.24Z"/><path class="cls-4" d="M337.4,296.53a2.68,2.68,0,0,0,2.13,1.78,2,2,0,0,0,1.9-1.35,16.11,16.11,0,0,0,1.58-5.29,1.87,1.87,0,0,1,2-1.78,5.68,5.68,0,0,1,.71.08,2,2,0,0,1,2,2.13,2.83,2.83,0,0,1,0,.56,19.32,19.32,0,0,1-3.12,8.57,6,6,0,0,1-9.91,0c-1.9-2.37-3.32-6.48-3.84-12.6-.27-3.4-.35-8.06-.35-12.72,0-1.47.87-2.3,2.49-2.3s2.37.87,2.37,2.34v3c0,3.47,0,6.87.23,9.28A24.14,24.14,0,0,0,337.4,296.53ZM355,275.71a2.29,2.29,0,0,1,2,1.18,44.48,44.48,0,0,1,6.83,19.72,1.83,1.83,0,0,1,0,.47,2.32,2.32,0,0,1-2,2.57,4.2,4.2,0,0,1-.67.08,2.18,2.18,0,0,1-2.29-2.14,42.23,42.23,0,0,0-6.12-18.25,2.43,2.43,0,0,1-.44-1.38,2.08,2.08,0,0,1,1.35-1.94A3.42,3.42,0,0,1,355,275.71Z"/><path class="cls-4" d="M397.77,282.42a41.77,41.77,0,0,1-1.66,5.73A29.57,29.57,0,0,1,391.6,296a87.16,87.16,0,0,1,10.16,6.17,2.07,2.07,0,0,1,.9,1.74,2.74,2.74,0,0,1-.51,1.54,2.38,2.38,0,0,1-1.93,1.06,2.19,2.19,0,0,1-1.35-.47,88.11,88.11,0,0,0-10.51-6.68c-4.58,4-10.5,6.44-17.5,7.27a1.53,1.53,0,0,1-.43,0,2,2,0,0,1-2.13-2,1.79,1.79,0,0,1,0-.44,2,2,0,0,1,1.85-2.13,29.82,29.82,0,0,0,13.87-5,70.82,70.82,0,0,0-8.85-3.56,2.76,2.76,0,0,1-2.09-2.68,4,4,0,0,1,.75-2.17,47.7,47.7,0,0,0,3.75-6.29h-8.1c-1.1,0-1.66-.94-1.66-2.13s.56-2.05,1.66-2.05h10c.9-2.22,1.69-4.43,2.37-6.6a1.94,1.94,0,0,1,2.09-1.62,4,4,0,0,1,.67,0c1.19.2,1.9.91,1.9,1.86a2.25,2.25,0,0,1-.12.71c-.63,1.85-1.3,3.71-2.09,5.61h18.36c1.15,0,1.7.9,1.7,2.05s-.55,2.13-1.7,2.13Zm-15.33,0a49,49,0,0,1-3.79,6.64,1.71,1.71,0,0,0-.32.79c0,.32.24.55.67.71,2.77.95,5.65,2.1,8.5,3.4a22.18,22.18,0,0,0,3.35-5.14,28.34,28.34,0,0,0,2.14-6.4Z"/><path class="cls-4" d="M411,279.11v.07a43.12,43.12,0,0,1-1.1,8.85,1.36,1.36,0,0,1-1.43,1.11,2,2,0,0,1-.47-.08,1.28,1.28,0,0,1-1.15-1.26,1,1,0,0,1,.08-.48A40.8,40.8,0,0,0,408,279c0-.95.67-1.27,1.54-1.27S411,278.2,411,279.11Zm1-7.87c0-1,.83-1.54,2.09-1.54s2.14.56,2.14,1.54v34.1c0,1-.83,1.58-2.14,1.58s-2.09-.56-2.09-1.58Zm6.16,6.05a1,1,0,0,1,1,.67,25.1,25.1,0,0,1,1.34,4.07.88.88,0,0,1,0,.32,1.43,1.43,0,0,1-1,1.34,1.33,1.33,0,0,1-.55.12,1.16,1.16,0,0,1-1.14-.91,31.57,31.57,0,0,0-1.07-3.79,1.57,1.57,0,0,1-.12-.56,1.13,1.13,0,0,1,.79-1.1A1.3,1.3,0,0,1,418.11,277.29ZM423,293c-1,0-1.54-.75-1.54-2s.55-2,1.54-2h6.76v-7h-4.62a35.08,35.08,0,0,1-2.06,5,1.87,1.87,0,0,1-1.74,1.1,2.35,2.35,0,0,1-1.1-.27,1.81,1.81,0,0,1-1.15-1.62,2.17,2.17,0,0,1,.32-1.07,29.72,29.72,0,0,0,3.39-11.73c0-.95.72-1.47,1.86-1.47h.4c1.18.12,1.73.75,1.73,1.66V274c-.15,1.38-.35,2.73-.59,4.07h3.56v-6.68c0-1,.79-1.58,2.09-1.58s2.21.56,2.21,1.58V278h7.55c1,0,1.58.75,1.58,2s-.59,2-1.58,2h-7.55v7H441c1,0,1.54.75,1.54,2s-.56,2-1.54,2h-6.92v8.53h8.34c1.07,0,1.62.79,1.62,2s-.55,2.05-1.62,2.05H420.09c-1.07,0-1.62-.79-1.62-2.05s.55-2,1.62-2h9.68V293Z"/><path class="cls-4" d="M456.71,273.26a3.44,3.44,0,0,1-.08.59,75.15,75.15,0,0,0-2,16.63,71.87,71.87,0,0,0,1,11.89,4.35,4.35,0,0,1,0,.72,2.14,2.14,0,0,1-2,2.25,4.48,4.48,0,0,1-.67.08c-1.11,0-1.9-.68-2.18-2.06a68,68,0,0,1-1.06-12.68A75,75,0,0,1,452,272.86a2.08,2.08,0,0,1,2.21-1.58,2.88,2.88,0,0,1,.59,0C456,271.52,456.71,272.15,456.71,273.26Zm9.2,16.91a1.78,1.78,0,0,1-.59,1.3,5.4,5.4,0,0,0-1.78,3.67c0,2.14,1.78,3.17,6.76,3.17a45.22,45.22,0,0,0,9.13-.91,2.92,2.92,0,0,1,.55-.08,2.14,2.14,0,0,1,2.13,1.89,2.83,2.83,0,0,1,0,.56,2.27,2.27,0,0,1-1.82,2.37,51,51,0,0,1-9.95.87c-7.19,0-11.34-2.41-11.34-7.55a9.29,9.29,0,0,1,2.77-6.48,2.67,2.67,0,0,1,1.89-.83,2.36,2.36,0,0,1,1.35.44A2,2,0,0,1,465.91,290.17Zm12.57-14.78a2.15,2.15,0,0,1,2.21,2.17v.24a2.36,2.36,0,0,1-2.09,2.49,111,111,0,0,1-12,.59c-1.43,0-2.77,0-4-.08a2.21,2.21,0,0,1-2.37-2.45,2.24,2.24,0,0,1,2.29-2.4h.16c1,0,2.17,0,3.35,0,4,0,8.66-.19,12-.55A1.64,1.64,0,0,1,478.48,275.39Z"/><path class="cls-4" d="M294.38,359.7a2.34,2.34,0,0,1-2.09,1.42,2.84,2.84,0,0,1-1.55-.51,2,2,0,0,1-1.06-1.86,3.32,3.32,0,0,1,.47-1.61,72.67,72.67,0,0,0,6.48-14.38c-1.1,0-2.33,0-3.55,0H291.5c-1.23,0-1.9-.86-1.9-2.21a2,2,0,0,1,2-2.21h2.61c1.27,0,2.53,0,3.71,0,.48-1.74.83-3.48,1.15-5.17a2,2,0,0,1,2.13-1.74,3,3,0,0,1,.6,0c1.22.23,1.93.83,1.93,1.93a3.74,3.74,0,0,1-.08.63c-.23,1.15-.55,2.53-.91,4,1.58-.11,3.05-.23,4.39-.43a1.33,1.33,0,0,1,.39,0c1.11,0,1.74.71,1.94,1.9v.31a2,2,0,0,1-1.86,2.14c-1.85.31-4,.47-6.08.63A89.34,89.34,0,0,1,294.38,359.7Zm22.44.52c0,4.14-2.49,6.75-8.73,6.75-5.34,0-8.77-2.76-8.77-6.91s3.55-7.11,8.77-7.11a17.36,17.36,0,0,1,4.11.47,62.91,62.91,0,0,1-.36-6.36,1.93,1.93,0,0,1,2.21-2.05c1.31,0,2.25.63,2.25,2.05a68.59,68.59,0,0,0,.44,7.7,26.83,26.83,0,0,1,6.95,4.82,2.29,2.29,0,0,1,.75,1.66,2.46,2.46,0,0,1-.59,1.58,2.14,2.14,0,0,1-1.62.87,2.22,2.22,0,0,1-1.5-.67,23.83,23.83,0,0,0-3.91-3.2Zm-8.61-3.36c-2.73,0-4.47,1.22-4.47,3.12s1.62,2.84,4.31,2.84c3,0,4.46-1,4.46-3.55,0-.48,0-.91,0-1.5A9.79,9.79,0,0,0,308.21,356.86Zm15-15.72a2.21,2.21,0,0,1,1,1.85,2.53,2.53,0,0,1-.44,1.38,2.19,2.19,0,0,1-1.82,1,2.91,2.91,0,0,1-1.42-.43,44.2,44.2,0,0,0-7.62-4.11,1.87,1.87,0,0,1-1.07-1.74,2.26,2.26,0,0,1,.4-1.3,2.34,2.34,0,0,1,1.93-1.11,3.37,3.37,0,0,1,1.07.2A39.29,39.29,0,0,1,323.22,341.14Z"/><path class="cls-4" d="M343.48,347.3a20.07,20.07,0,0,1,7.43-1.58c7.31,0,11.58,4,11.58,9.48,0,6.87-6.05,11.38-16,11.38-6.2,0-10.19-2.53-10.19-6.52,0-3.44,3-5.85,7.11-5.85A8.23,8.23,0,0,1,352,361.4c3.32-.91,5.57-3,5.57-6.08,0-3.28-2.77-5.89-8-5.89-5,0-9.88,1.82-15.8,5.53a2.93,2.93,0,0,1-1.39.4,2.42,2.42,0,0,1-2-1.07,2.38,2.38,0,0,1,.75-3.36,162.55,162.55,0,0,0,18.8-13.35c-3.83.32-9.2.55-13.39.55A2,2,0,0,1,334.4,336c0-1.38.67-2.33,2-2.33h1.19c5.17,0,11.26-.24,15.84-.63a2.24,2.24,0,0,1,.51,0,2.72,2.72,0,0,1,2.65,1.42,2.63,2.63,0,0,1,.36,1.38,3.1,3.1,0,0,1-1,2.25,78,78,0,0,1-9.13,7,34.44,34.44,0,0,1-3.39,2Zm-.31,10.59c-1.7,0-2.69.83-2.69,1.93,0,1.7,1.82,2.81,5.69,2.81.63,0,1.15,0,1.62-.08C347.48,359.51,345.42,357.89,343.17,357.89Z"/><path class="cls-4" d="M373.94,364.4a2.33,2.33,0,0,1-2.13,1.47,3.29,3.29,0,0,1-1.34-.32,2.25,2.25,0,0,1-1.31-2.06,3,3,0,0,1,.36-1.34,112.4,112.4,0,0,0,7-19.59c-1.54,0-3.36.12-4.86.12h-1c-1.23-.08-1.9-.75-1.9-2.18v-.12a1.91,1.91,0,0,1,2.05-2.13c1.94,0,4.47,0,6.68-.16.36-1.58.67-3.2.95-4.82a1.94,1.94,0,0,1,2.17-1.66,2.33,2.33,0,0,1,.51,0c1.31.16,2.06.91,2.06,1.86a1.11,1.11,0,0,1,0,.36c-.24,1.26-.48,2.56-.75,3.87,2.17-.2,4.27-.48,6.12-.79a2.59,2.59,0,0,1,.55,0c1,0,1.7.55,2,1.78a2.89,2.89,0,0,1,.08.59,1.89,1.89,0,0,1-1.54,2c-2.53.44-5.37.79-8.3,1A122.9,122.9,0,0,1,373.94,364.4Zm13.83-9.52a1.75,1.75,0,0,1-.35,1,4.21,4.21,0,0,0-1.11,2.77,2.47,2.47,0,0,0,1.66,2.41,12.36,12.36,0,0,0,4.66.63,40.08,40.08,0,0,0,7.82-.75,4.48,4.48,0,0,1,.67-.08,2,2,0,0,1,2.14,1.78,2.69,2.69,0,0,1,0,.55,2.31,2.31,0,0,1-1.94,2.33,40.53,40.53,0,0,1-8.49.79,18.93,18.93,0,0,1-7.11-1.15c-2.81-1.14-3.95-3.12-3.95-6a8.6,8.6,0,0,1,2.13-5.41,2.26,2.26,0,0,1,1.66-.79,2.44,2.44,0,0,1,1.14.31A1.84,1.84,0,0,1,387.77,354.88Zm11.93-11.65a2.21,2.21,0,0,1,2.1,2.41,2,2,0,0,1-2.06,2.25h-.16c-1,0-2.25,0-3.35,0a57,57,0,0,0-8.73.75,1.5,1.5,0,0,1-.4,0,2.12,2.12,0,0,1-2.13-2.13,1.36,1.36,0,0,1,0-.4,2,2,0,0,1,1.7-2.13,71.1,71.1,0,0,1,9.75-.87C397.45,343.11,398.56,343.15,399.7,343.23Z"/><path class="cls-4" d="M415.27,363.46c-3.95,0-7-3-7-8.66a15.51,15.51,0,0,1,6.44-12.48c-.48-2.09-.83-4.27-1.11-6.44a1.33,1.33,0,0,1,0-.39,2,2,0,0,1,1.78-2.14,1.87,1.87,0,0,1,.47,0,1.85,1.85,0,0,1,2,1.78c.19,1.58.47,3.32.75,5a19.73,19.73,0,0,1,8.77-2c.27-1.38.51-2.72.71-4s.83-2,2-2a3,3,0,0,1,.6,0c1.3.2,2,.91,2,2a2.28,2.28,0,0,1,0,.52,37.25,37.25,0,0,1-.71,3.91,13.8,13.8,0,0,1,5.53,2.21c3.4,2.25,5.45,5.89,5.45,10.82,0,8-6,13.56-15.21,14.78a2.15,2.15,0,0,1-.51,0,2.23,2.23,0,0,1-2.33-1.82,2.55,2.55,0,0,1,0-.55,2.08,2.08,0,0,1,2-2.17c7-1,11.37-4.86,11.37-10.24a8.56,8.56,0,0,0-7.19-9c-.43,1.7-.87,3.35-1.42,4.9a47.79,47.79,0,0,1-4,8.57l.83,1.18a2.15,2.15,0,0,1,.4,1.23,2.75,2.75,0,0,1-.79,1.85,2.27,2.27,0,0,1-1.7.76,1.39,1.39,0,0,1-1-.4,5.94,5.94,0,0,1-.67-.83A9.2,9.2,0,0,1,415.27,363.46Zm.63-16.4a10.3,10.3,0,0,0-3.4,7.47c0,2.64,1.31,4.42,2.93,4.42,1.26,0,2.84-.63,4.34-2.61A36.73,36.73,0,0,1,415.9,347.06Zm9.4-.87c.44-1.3.79-2.64,1.15-4.07a14.39,14.39,0,0,0-6.92,1.9,34.64,34.64,0,0,0,3.05,8.45A34.38,34.38,0,0,0,425.3,346.19Z"/><path class="cls-4" d="M464.65,355.32c-1.3,3.55-2.57,5.37-4.07,6.56a7.3,7.3,0,0,1-4.66,1.54c-4.27,0-8.06-3.88-8.06-11.58,0-9.87,7.07-17.34,18.21-17.34,9.84,0,16.24,6.44,16.24,15.52,0,5.69-2.41,10-6.48,12.76a19.42,19.42,0,0,1-8.49,3.05,2.64,2.64,0,0,1-.56,0,2.13,2.13,0,0,1-2.33-1.9,2.79,2.79,0,0,1,0-.55,2.18,2.18,0,0,1,1.94-2.3,16.52,16.52,0,0,0,7.27-2.68,10.44,10.44,0,0,0,3.87-8.57c0-6.17-3.87-10.75-9.8-11.07A60.32,60.32,0,0,1,464.65,355.32Zm-12.21-3.56c0,4.7,1.66,6.72,3.44,6.72a3.16,3.16,0,0,0,2.21-1,11,11,0,0,0,2.29-4.35A54.34,54.34,0,0,0,463,338.92C456.83,339.56,452.44,344.77,452.44,351.76Z"/><path class="cls-4" d="M259.77,404.27c-2.25.12-4.9.2-7,.2a2,2,0,0,1-2-2.17c0-1.35.64-2.3,1.94-2.3,2,0,4.62-.07,7-.23v-5.14c0-1.26.87-1.93,2.21-1.93s2.26.67,2.26,1.93v4.82c2.13-.2,4.22-.43,6-.75a2.06,2.06,0,0,1,2.45,1.78,2.74,2.74,0,0,1,0,.55,1.9,1.9,0,0,1-1.78,2c-2,.35-4.3.63-6.67.87v5.45a30.61,30.61,0,0,1,7.66-1.07c7.35,0,11.65,3.64,11.65,9.52s-3.67,9.4-8.85,9.4a9.19,9.19,0,0,1-7.15-3.08,2.46,2.46,0,0,1-.63-1.58,2.37,2.37,0,0,1,.83-1.7,2.58,2.58,0,0,1,1.66-.71,2.1,2.1,0,0,1,1.54.71,5,5,0,0,0,3.68,1.74c2.21,0,4.14-1.78,4.14-4.74,0-3.36-2.37-5.53-7.15-5.53a22,22,0,0,0-7.38,1.3v8.26c0,3.64-1.94,5.57-5.26,5.57a9.09,9.09,0,0,1-5.13-1.78,6.63,6.63,0,0,1-3.44-5.65,6.39,6.39,0,0,1,1.3-3.67,18.9,18.9,0,0,1,8.06-5.69Zm0,10.94a11.36,11.36,0,0,0-4.27,3.16,2.91,2.91,0,0,0-.63,1.74,2.68,2.68,0,0,0,1.35,2.06,4.34,4.34,0,0,0,2.21.71c1,0,1.34-.48,1.34-1.9Zm25.05-12.8a2.7,2.7,0,0,1,.55,1.58,2.33,2.33,0,0,1-.67,1.66,2.48,2.48,0,0,1-1.7.68,2.16,2.16,0,0,1-1.62-.75,37.4,37.4,0,0,0-6.56-6.05A1.91,1.91,0,0,1,274,398a2.3,2.3,0,0,1,.63-1.54,2.28,2.28,0,0,1,1.7-.75,2.53,2.53,0,0,1,1.35.43A33.83,33.83,0,0,1,284.82,402.41Z"/><path class="cls-4" d="M299.4,406.84c-1,0-1.54-.71-1.54-1.86a2.82,2.82,0,0,1,.15-1,36.91,36.91,0,0,1-6.55,3.56,3,3,0,0,1-1,.2,2.07,2.07,0,0,1-2-1.5,3.08,3.08,0,0,1-.19-1,2,2,0,0,1,1.34-1.94,40.94,40.94,0,0,0,14.26-10,4.05,4.05,0,0,1,3-1.19,4.19,4.19,0,0,1,3,1.19,42.16,42.16,0,0,0,14.58,9.95,2.15,2.15,0,0,1,1.38,2,2.8,2.8,0,0,1-.23,1.11,2.18,2.18,0,0,1-2,1.42,2.51,2.51,0,0,1-1.14-.28,47.53,47.53,0,0,1-6.4-3.52,2.61,2.61,0,0,1,.15,1c0,1.15-.59,1.86-1.58,1.86H309v4h13.19c1,0,1.54.79,1.54,2s-.55,2-1.54,2H309v9h14.45c1,0,1.58.83,1.58,2s-.55,2-1.58,2H290.74c-1,0-1.58-.79-1.58-2s.56-2,1.58-2h13.87v-9H291.93c-1,0-1.54-.79-1.54-2s.55-2,1.54-2h12.68v-4ZM297,415.53a2,2,0,0,1,1.66.83,20.84,20.84,0,0,1,2.09,3.95,1.53,1.53,0,0,1,.16.71c0,.75-.56,1.31-1.38,1.7a3,3,0,0,1-1.11.24,1.86,1.86,0,0,1-1.78-1.11,39.71,39.71,0,0,0-2-3.67,1.29,1.29,0,0,1-.24-.71,1.9,1.9,0,0,1,1.3-1.66A3,3,0,0,1,297,415.53ZM314.61,403a41.14,41.14,0,0,1-7-6c-.23-.23-.43-.39-.63-.39s-.39.16-.67.39a40.39,40.39,0,0,1-6.79,6Zm4.89,14.42a1.68,1.68,0,0,1-.15.71,20.48,20.48,0,0,1-2.37,4.15,2,2,0,0,1-1.62.94,2.92,2.92,0,0,1-1.31-.35,1.93,1.93,0,0,1-1.06-1.7,1.71,1.71,0,0,1,.31-1,23.55,23.55,0,0,0,2.17-3.71,1.63,1.63,0,0,1,1.55-1,2.88,2.88,0,0,1,1.1.24A1.89,1.89,0,0,1,319.5,417.43Z"/><path class="cls-4" d="M346.13,416.52c-1.3,3.55-2.57,5.37-4.07,6.56a7.3,7.3,0,0,1-4.66,1.54c-4.27,0-8.06-3.88-8.06-11.58,0-9.88,7.07-17.34,18.21-17.34,9.84,0,16.24,6.44,16.24,15.52,0,5.69-2.41,10-6.48,12.76a19.42,19.42,0,0,1-8.49,3,2.59,2.59,0,0,1-.55,0,2.13,2.13,0,0,1-2.34-1.9,3.7,3.7,0,0,1,0-.55,2.16,2.16,0,0,1,1.93-2.29,16.6,16.6,0,0,0,7.27-2.69,10.44,10.44,0,0,0,3.87-8.57c0-6.17-3.87-10.75-9.8-11.07A60.32,60.32,0,0,1,346.13,416.52ZM333.92,413c0,4.7,1.66,6.72,3.44,6.72a3.16,3.16,0,0,0,2.21-.95,11,11,0,0,0,2.3-4.35,54.87,54.87,0,0,0,2.56-14.26C338.31,400.76,333.92,406,333.92,413Z"/><path class="cls-4" d="M375.56,395.5c0-1.3.95-2.05,2.41-2.05s2.49.75,2.49,2.05v5.65h11.46V395.5c0-1.3.91-2.05,2.37-2.05s2.49.75,2.49,2.05v5.65H402c1.31,0,2,.87,2,2.21s-.67,2.29-2,2.29h-5.21v3.48c0,5-.91,8.85-3.08,11.85-2.29,3.28-6.64,6-11.74,6.88a5.11,5.11,0,0,1-.75.07,2.08,2.08,0,0,1-2.17-1.77,3.51,3.51,0,0,1-.08-.63,2.11,2.11,0,0,1,1.9-2.18,14.67,14.67,0,0,0,8.85-5.09c1.5-2.06,2.21-5.1,2.21-9.8v-2.81H380.46v8.85c0,1.31-1,2-2.49,2s-2.41-.71-2.41-2v-8.85h-5.41c-1.3,0-2-.94-2-2.29a1.89,1.89,0,0,1,2-2.17h5.37Z"/><path class="cls-4" d="M430.12,425.84c0,1.34-1.06,2-2.53,2s-2.56-.6-2.56-2.1V409.25a66.1,66.1,0,0,1-12.84,5.85,4.17,4.17,0,0,1-1.11.19,2.16,2.16,0,0,1-2.17-1.5,2.6,2.6,0,0,1-.16-1,2.3,2.3,0,0,1,1.7-2.29,62,62,0,0,0,14.7-7,48,48,0,0,0,10.34-8.77,2.54,2.54,0,0,1,1.94-.91,2.88,2.88,0,0,1,1.66.59,2.28,2.28,0,0,1,1.07,1.82,2.36,2.36,0,0,1-.63,1.54,50.64,50.64,0,0,1-9.41,8.22Z"/><path class="cls-4" d="M461.89,402.85a28.91,28.91,0,0,1-8.62,8.89,2.79,2.79,0,0,1-1.58.51,2.5,2.5,0,0,1-2-1.07,2.46,2.46,0,0,1-.44-1.42,2.5,2.5,0,0,1,1.11-2.09,23.75,23.75,0,0,0,5.18-4.62,31.88,31.88,0,0,0,4.7-8.06,2.2,2.2,0,0,1,2.17-1.62,4.4,4.4,0,0,1,1,.12,2.09,2.09,0,0,1,1.85,2,2,2,0,0,1-.11.67,10.59,10.59,0,0,1-1,2.29l11.14-.19c3.24,0,4.9,1.74,4.9,4.58a9.29,9.29,0,0,1-.2,1.74c-2.33,11.3-10,20.34-23.58,23.42a4.41,4.41,0,0,1-.72.08,2.25,2.25,0,0,1-2.25-1.62,3.48,3.48,0,0,1-.12-.9,2.21,2.21,0,0,1,1.86-2.22c10.86-2.76,17.38-9.36,19.48-18.92a4,4,0,0,0,.08-.63c0-.75-.4-1.07-1.51-1.07Z"/><path class="cls-4" d="M493.89,396.45a2.21,2.21,0,0,1,2.48-2.21,2.24,2.24,0,0,1,2.53,2.29v8.33c0,6.68-.75,11.18-2.09,14.5a19.4,19.4,0,0,1-5.26,7.39,3.22,3.22,0,0,1-2.09.87,2.6,2.6,0,0,1-1.93-.87,2.44,2.44,0,0,1-.64-1.7,2.57,2.57,0,0,1,1-2.05,14.51,14.51,0,0,0,4.31-5.73c1.14-2.81,1.7-6.52,1.7-12.6Zm10.94-.28c0-1.34.91-2.17,2.49-2.17a2.22,2.22,0,0,1,2.45,2.17l-.16,24.1c0,.51.2.79.63.79a1.9,1.9,0,0,0,.83-.24,17,17,0,0,0,7.31-8.13,2.05,2.05,0,0,1,1.93-1.35,3.13,3.13,0,0,1,1.27.32,2.14,2.14,0,0,1,1.38,1.93,2.55,2.55,0,0,1-.28,1.15c-2.52,5.69-7.3,10.31-11.81,11.73a7.77,7.77,0,0,1-2.05.32,4.88,4.88,0,0,1-2.41-.55c-1.11-.71-1.74-1.78-1.74-3.91v-.2Z"/><circle class="cls-5" cx="542.04" cy="590.61" r="100"/><path class="cls-2" d="M514,538.72a43.2,43.2,0,0,1,.39-5.28,22.54,22.54,0,0,1-1.76,2.9,2,2,0,0,1-1.63,1,2.07,2.07,0,0,1-1.32-.53,1.68,1.68,0,0,1-.79-1.36,2.49,2.49,0,0,1,.57-1.45,43.78,43.78,0,0,0,7.71-16.72,1.64,1.64,0,0,1,1.8-1.37,3.71,3.71,0,0,1,.7.09,1.65,1.65,0,0,1,1.5,1.63,2,2,0,0,1-.09.53,61.53,61.53,0,0,1-3.12,8.8v28.51c0,1-.75,1.45-2,1.45s-2-.48-2-1.45Zm19.58-18.22v-3.21c0-1,.7-1.5,1.85-1.5s1.93.53,1.93,1.5v3.21h11.93c1,0,1.45.75,1.45,1.81s-.48,1.8-1.45,1.8h-12v3.52h7c2.82,0,4.18.93,4.18,3.7v5.85c0,2.77-1.36,3.7-4.18,3.7h-7.92a19,19,0,0,1-2.46,7c4.18,2.6,9.19,4,15.27,4.58a1.66,1.66,0,0,1,1.58,1.81,2,2,0,0,1,0,.48,1.94,1.94,0,0,1-2,1.85h-.22a37.84,37.84,0,0,1-16.9-5.77,24.9,24.9,0,0,1-9.11,5.68,2.37,2.37,0,0,1-.93.18,2,2,0,0,1-1.76-1.24,2.21,2.21,0,0,1-.17-.88,1.75,1.75,0,0,1,1.32-1.71,21.59,21.59,0,0,0,7.61-4.32,31.06,31.06,0,0,1-3.56-3.6,1.76,1.76,0,0,1-.4-1.06,1.64,1.64,0,0,1,.88-1.41,2,2,0,0,1,1.19-.44,1.63,1.63,0,0,1,1.28.66,21.12,21.12,0,0,0,3,3,13.23,13.23,0,0,0,1.71-4.79H526.3c-2.73,0-4-.93-4-3.7v-5.85c0-2.77,1.28-3.7,4-3.7h7.22c0-1.19,0-2.33,0-3.52H522.87c-1,0-1.5-.7-1.5-1.8s.48-1.81,1.5-1.81Zm-6.25,10.61c-.88,0-1.23.22-1.23,1.14v4c0,1,.35,1.14,1.23,1.14h5.81c.18-2.11.26-4.18.31-6.29Zm9.9,0c0,2.11-.13,4.22-.35,6.29h6.6c.88,0,1.28-.18,1.28-1.14v-4c0-.92-.4-1.14-1.28-1.14Z"/><path class="cls-2" d="M567.44,553a20.67,20.67,0,0,1-6.86,2.11.53.53,0,0,1-.22,0,1,1,0,0,1-1-.87.66.66,0,0,1,0-.24,1,1,0,0,1,.87-1,19.62,19.62,0,0,0,6.41-1.95c2.32-1.32,3.4-3.14,3.4-5.23s-1.27-3.33-4.68-3.33a33,33,0,0,0-8.69,1.58,2.23,2.23,0,0,1-.36,0,1,1,0,0,1-.93-.72,1.49,1.49,0,0,1-.05-.36,1,1,0,0,1,.74-1,35.13,35.13,0,0,1,9.24-1.51c4.59,0,6.82,2.16,6.82,5.19S570.57,551.28,567.44,553Zm-9.6-17.21a2.19,2.19,0,0,1,0-.31,1,1,0,0,1,1-.79h.19A63,63,0,0,0,569.25,536a1,1,0,0,1,1,1v.05a.92.92,0,0,1-1,.92h-.07a61.78,61.78,0,0,1-10.52-1.28A.9.9,0,0,1,557.84,535.8Z"/><path class="cls-2" d="M532.24,600.52a1.77,1.77,0,1,0-1.76,1.77A1.76,1.76,0,0,0,532.24,600.52Z"/><path class="cls-2" d="M564.12,598.76a1.77,1.77,0,1,0,1.77,1.76A1.76,1.76,0,0,0,564.12,598.76Z"/><path class="cls-2" d="M527.11,604.82a3.78,3.78,0,0,0-4.77,2.42l-7,14.9H511V595.58l-4.28,2.86a4.71,4.71,0,0,0-1.86,2.38l-4.57,18.36a9.55,9.55,0,0,0,.5,7.48l7.57,14.87a8,8,0,0,1,.55,5.81l-3.27,11.19h17.13s3.07-18.4,4.3-23.55c1.68-7,2.19-11,.57-17l1.92-8.39A3.78,3.78,0,0,0,527.11,604.82Z"/><path class="cls-2" d="M514.4,583.05V617l4.19-9-.08,0V593.09a6.7,6.7,0,0,0,5.55-5.93h17.08c-3.86,2.62-6.46,7.61-6.46,13.36s2.6,10.75,6.46,13.37h-9.43l-.94,4.12H580.2v-35Zm34.45,25.12h-3.11v-3.72h-5v-2.71h5v-1.81l-.48-.76h-4.51v-2.73h2.75l-2.29-3.56h3l3.1,4.83,3.11-4.83h3l-2.29,3.56h2.76v2.73h-4.52l-.48.76v1.81h5v2.71h-5v3.72Zm27.24-.21a6.7,6.7,0,0,0-5.56,5.93H553.45c3.86-2.62,6.47-7.61,6.47-13.37s-2.61-10.74-6.47-13.36h17.08a6.71,6.71,0,0,0,5.56,5.93Z"/><circle class="cls-6" cx="231.33" cy="590.61" r="100"/><path class="cls-2" d="M245.09,583.86h-6.6a6.57,6.57,0,0,1,.25,1.83,5.62,5.62,0,0,1,0,.72c.53.51,1.06,1.06,1.6,1.65h4.78l-1.78-2.1,1.07-1.27Z"/><path class="cls-2" d="M237.38,586.77h0a4.67,4.67,0,0,0,.1-.49,4.55,4.55,0,0,0,0-.52,3.85,3.85,0,0,0-1.23-2.84h0l1.09-2a2.06,2.06,0,0,0-1.1-2.93,14.39,14.39,0,0,0-9.39,0,2,2,0,0,0-1.22,1.19,2,2,0,0,0,.12,1.74l1.09,2h0a3.82,3.82,0,0,0-1.1,3.84h0c-3.28,3-6.79,8-7.28,12a11,11,0,0,0,2.59,8.8,10.6,10.6,0,0,0,2.65,2.18h0a17.24,17.24,0,0,0,3.6,1.53h0l2.19.34,2.16,0c5.6,0,8.72-2.24,10.36-4.1a11,11,0,0,0,2.6-8.8C244.16,594.75,240.65,589.73,237.38,586.77Zm-8.6-1.56a.61.61,0,0,1,.52-.3h4.57l.14,0a.66.66,0,0,1,.38.26.92.92,0,0,1,.16.55.41.41,0,0,1,0,.11.81.81,0,0,1-.3.58.66.66,0,0,1-.37.13H229.3a.76.76,0,0,1-.69-.82A.83.83,0,0,1,228.78,585.21Zm-.91,3.65h0a3.07,3.07,0,0,0,1.42.34h4.57a3.25,3.25,0,0,0,1.41-.33h0c2.64,2.36,6,6.92,6.43,10.24.6,4.88-2.52,9.58-10.14,9.58s-10.74-4.7-10.15-9.58C221.85,595.78,225.24,591.23,227.87,588.86Zm7.34-8.83h0L234,582.29l-.22.42h-4.38l-.23-.42-1-1.95-.17-.31h0a12.16,12.16,0,0,1,7-.06Z"/><polygon class="cls-2" points="227.36 594.4 227.36 594.41 227.36 594.41 227.36 594.41 227.35 594.41 230.15 598.06 230.18 598.11 230.19 598.14 227.8 598.14 227.8 599.11 227.8 599.11 227.8 599.11 227.8 599.13 230.81 599.13 230.81 600.23 227.8 600.23 227.8 601.21 227.8 601.22 227.8 601.22 227.8 601.23 230.81 601.23 230.81 603.79 232.34 603.79 232.34 601.23 235.36 601.23 235.36 600.23 232.34 600.23 232.34 599.13 235.36 599.13 235.36 598.14 233.83 598.13 232.98 598.12 233.02 598.06 235.57 594.74 235.81 594.43 235.81 594.43 235.81 594.43 235.8 594.43 235.81 594.41 233.84 594.41 231.7 597.21 231.59 597.35 231.57 597.37 229.31 594.41 227.68 594.41 227.36 594.4"/><path class="cls-2" d="M226.37,615.73h0l0,0h-9.63a9.94,9.94,0,0,1,.36,2.67,9.18,9.18,0,0,1,0,1.06c.77.75,1.56,1.54,2.34,2.4h7l-2.6-3.06,1.57-1.86Z"/><path class="cls-2" d="M215.11,620h0a4.25,4.25,0,0,0,.14-.71,4.9,4.9,0,0,0,.06-.77,5.66,5.66,0,0,0-1.79-4.15h0l1.59-2.93a3,3,0,0,0,.16-2.56,2.94,2.94,0,0,0-1.77-1.73,21.08,21.08,0,0,0-13.72,0,2.92,2.92,0,0,0-1.78,1.74,3,3,0,0,0,.17,2.55l1.6,2.94s0,0,0,0a5.6,5.6,0,0,0-1.81,4.14,5.66,5.66,0,0,0,.2,1.47h0c-4.79,4.35-9.92,11.69-10.63,17.52a16.11,16.11,0,0,0,3.78,12.86,15.67,15.67,0,0,0,3.88,3.19h0a25.63,25.63,0,0,0,5.26,2.24c6.48.79,0,0,0,0l3.2.49,3.15.06c8.18-.05,12.75-3.27,15.14-6a16.11,16.11,0,0,0,3.79-12.86C225,631.63,219.89,624.3,215.11,620Zm-12.57-2.27a.91.91,0,0,1,.77-.44H210l.21,0a1,1,0,0,1,.55.39,1.28,1.28,0,0,1,.24.79.81.81,0,0,1,0,.16,1.19,1.19,0,0,1-.45.85.91.91,0,0,1-.54.19h-6.67a1.12,1.12,0,0,1-1-1.2A1.26,1.26,0,0,1,202.54,617.7ZM201.21,623h0a4.38,4.38,0,0,0,2.08.5H210a4.67,4.67,0,0,0,2.07-.49h0c3.86,3.45,8.78,10.11,9.39,15,.88,7.13-3.69,14-14.81,14s-15.7-6.87-14.83-14C192.43,633.14,197.37,626.49,201.21,623Zm10.73-12.91v0l-1.79,3.29-.32.62h-6.41l-.32-.62-1.55-2.85-.24-.44s0,0,0,0a17.83,17.83,0,0,1,10.26-.1Z"/><polygon class="cls-2" points="200.47 631.13 200.47 631.13 200.46 631.13 200.47 631.14 200.45 631.14 204.54 636.48 204.59 636.54 204.6 636.58 201.12 636.58 201.12 638 201.12 638.01 201.12 638.01 201.12 638.03 205.51 638.03 205.51 639.65 201.12 639.65 201.12 641.08 201.12 641.08 201.12 641.08 201.12 641.11 205.51 641.11 205.51 644.84 207.75 644.84 207.75 641.11 212.16 641.11 212.16 639.65 207.75 639.65 207.75 638.03 212.16 638.03 212.16 636.58 209.92 636.58 208.68 636.56 208.73 636.48 212.46 631.63 212.82 631.17 212.81 631.17 212.82 631.16 212.81 631.16 212.82 631.14 209.94 631.14 206.81 635.23 206.66 635.43 206.63 635.46 203.32 631.14 200.94 631.14 200.47 631.13"/><path class="cls-2" d="M274.71,615.73h0l0,0h-9.64a10,10,0,0,1,.37,2.67c0,.36,0,.72-.05,1.06.77.75,1.55,1.54,2.34,2.4h7l-2.61-3.06,1.58-1.86Z"/><path class="cls-2" d="M263.45,620h0a4.25,4.25,0,0,0,.14-.71,4.9,4.9,0,0,0,.06-.77,5.66,5.66,0,0,0-1.79-4.15h0l1.59-2.93a3,3,0,0,0-1.6-4.29,21.11,21.11,0,0,0-13.73,0,2.92,2.92,0,0,0-1.78,1.74,3,3,0,0,0,.18,2.55l1.6,2.94h0a5.61,5.61,0,0,0-1.82,4.14,6.12,6.12,0,0,0,.2,1.47s0,0,0,0c-4.79,4.35-9.92,11.69-10.63,17.52a16.15,16.15,0,0,0,3.78,12.86,15.67,15.67,0,0,0,3.88,3.19h0a25.82,25.82,0,0,0,5.27,2.24c6.47.79,0,0,0,0l3.2.49,3.16.06c8.17-.05,12.74-3.27,15.14-6a16.14,16.14,0,0,0,3.78-12.86C273.35,631.63,268.22,624.3,263.45,620Zm-12.58-2.27a.91.91,0,0,1,.77-.44h6.67a.86.86,0,0,1,.21,0,1,1,0,0,1,.56.39,1.34,1.34,0,0,1,.23.79.81.81,0,0,1,0,.16,1.19,1.19,0,0,1-.45.85.89.89,0,0,1-.54.19h-6.67a1.11,1.11,0,0,1-1-1.2A1.25,1.25,0,0,1,250.87,617.7ZM249.55,623h0a4.41,4.41,0,0,0,2.08.5h6.67a4.63,4.63,0,0,0,2.07-.49h0c3.86,3.45,8.79,10.11,9.39,15,.88,7.13-3.68,14-14.81,14s-15.7-6.87-14.82-14C240.76,633.14,245.7,626.49,249.55,623Zm10.73-12.91s0,0,0,0l-1.78,3.29-.33.62h-6.4l-.33-.62-1.55-2.85-.23-.44a0,0,0,0,1,0,0,17.84,17.84,0,0,1,10.26-.1Z"/><polygon class="cls-2" points="248.81 631.13 248.81 631.13 248.8 631.13 248.81 631.14 248.79 631.14 252.88 636.48 252.92 636.54 252.94 636.58 249.45 636.58 249.45 638 249.45 638.01 249.45 638.01 249.45 638.03 253.85 638.03 253.85 639.65 249.45 639.65 249.45 641.08 249.45 641.08 249.45 641.08 249.45 641.11 253.85 641.11 253.85 644.84 256.09 644.84 256.09 641.11 260.5 641.11 260.5 639.65 256.09 639.65 256.09 638.03 260.5 638.03 260.5 636.58 258.26 636.58 257.01 636.56 257.07 636.48 260.8 631.63 261.15 631.17 261.15 631.17 261.15 631.16 261.14 631.16 261.15 631.14 258.28 631.14 255.15 635.23 254.99 635.43 254.96 635.46 251.66 631.14 249.27 631.14 248.81 631.13"/><path class="cls-2" d="M197.62,544.63c1.14-.48,2.2-1,3-1.36a1.78,1.78,0,0,1,.79-.18,1.62,1.62,0,0,1,1.5,1.06,2.65,2.65,0,0,1,.18.92,1.74,1.74,0,0,1-1,1.59,80,80,0,0,1-10.87,4.57,2.81,2.81,0,0,1-.79.13,1.61,1.61,0,0,1-1.58-1.27,2.66,2.66,0,0,1-.18-.93,1.57,1.57,0,0,1,1.19-1.62c1.19-.36,2.6-.84,4-1.37V531.52h-3.52c-.88,0-1.41-.71-1.41-1.81s.53-1.8,1.41-1.8h3.52v-9.77c0-1,.7-1.45,1.85-1.45s1.94.48,1.94,1.45v9.77h2.81c.93,0,1.32.75,1.32,1.8s-.39,1.81-1.32,1.81h-2.81Zm11.44-22.88c-.53-1-1.19-2-1.76-2.86a1.4,1.4,0,0,1-.22-.71,1.52,1.52,0,0,1,1.23-1.4,3.14,3.14,0,0,1,1.06-.18,1.62,1.62,0,0,1,1.49.84,36.33,36.33,0,0,1,2.25,4.31h5a29,29,0,0,0,2.38-4,1.62,1.62,0,0,1,1.58-1.06,3.41,3.41,0,0,1,1.06.18c.84.26,1.19.75,1.19,1.28a2,2,0,0,1-.22.79,25.37,25.37,0,0,1-1.85,2.86H225c2.68,0,3.78,1,3.78,3.56v9.24c0,2.42-1.1,3.35-3.78,3.35H206.46c-2.64,0-3.78-.93-3.78-3.35v-9.24c0-2.59,1.14-3.56,3.78-3.56ZM223,540.23c2.78,0,4,1,4,3.39v9.5c0,2.51-1.32,3.48-4,3.48H208.57c-2.77,0-4-1-4-3.48v-9.5c0-2.42,1.15-3.39,3.92-3.39Zm-9.19-15.4h-6.39c-.79,0-1.1.17-1.1,1v2.47h7.49Zm-7.49,6.47v2.51c0,.83.31,1,1.1,1h6.39V531.3Zm16.9,15.36V544.5c0-.79-.39-1-1.14-1H209.32c-.79,0-1.1.18-1.1,1v2.16Zm-15,5.54c0,.79.31,1,1.1,1H222c.75,0,1.14-.22,1.14-1v-2.33h-15Zm16.9-23.89v-2.47c0-.84-.31-1-1.1-1h-6.69v3.48Zm-7.79,6.51H224c.79,0,1.1-.18,1.1-1V531.3h-7.79Z"/><path class="cls-2" d="M244.11,536.05a.34.34,0,0,1,0-.14A.87.87,0,0,1,245,535h.08a.88.88,0,0,1,1,.87l.2,3a9.85,9.85,0,0,1,1.34-.1c3.94,0,6,2.26,6,5.33,0,3.38-2.33,5.47-5.69,5.47a8.79,8.79,0,0,1-4.13-.91,1,1,0,0,1-.57-.91,1,1,0,0,1,.1-.46.94.94,0,0,1,.86-.57,1,1,0,0,1,.46.12,7.13,7.13,0,0,0,3,.72c2.4,0,3.92-1.4,3.92-3.39s-1.4-3.57-4-3.57a22.15,22.15,0,0,0-5.5,1,20.86,20.86,0,0,0-2.35.84c1.27,4.1,2.37,8.38,3.29,12.58a2.2,2.2,0,0,1,0,.36.94.94,0,0,1-.76.91,1.83,1.83,0,0,1-.32,0,.93.93,0,0,1-1-.74c-.89-4.2-1.87-8.45-3.12-12.46-1.32.53-2.62,1.11-3.77,1.61a1.18,1.18,0,0,1-.48.1.9.9,0,0,1-.84-.6,1,1,0,0,1-.09-.44,1,1,0,0,1,.62-.93c1.22-.55,2.57-1.08,4-1.59-.41-1.27-.89-2.54-1.37-3.86a1.81,1.81,0,0,1-.05-.31,1,1,0,0,1,.75-.87,1.52,1.52,0,0,1,.43-.07.9.9,0,0,1,.89.67c.45,1.25.89,2.52,1.27,3.8.79-.29,1.54-.53,2.26-.75,1-.29,2-.55,2.9-.72Z"/><path class="cls-2" d="M269.24,547.88a3.69,3.69,0,0,1-4,2.79,4,4,0,0,1-4.27-4.11c0-2.52,2-4.29,4.73-4.29a3.86,3.86,0,0,1,2.86,1.1c0-.86,0-2.09,0-3.21-3.52.07-7.2.21-10.68.43h-.09a.87.87,0,0,1-.89-.94v0a.86.86,0,0,1,.86-.91c3.39-.19,7.13-.31,10.78-.38,0-.84,0-1.68,0-2.4a.82.82,0,0,1,.92-.87c.69,0,1,.29,1,.92v2.32c1.29,0,2.56,0,3.79,0,.86,0,1.73,0,2.54,0a.86.86,0,0,1,1,1v.07c0,.58-.34.84-.89.84-1.42,0-2.91,0-4.47,0-.65,0-1.29,0-2,0v5a7,7,0,0,1,.69,3.14,6.72,6.72,0,0,1-3.89,6.48,12.93,12.93,0,0,1-3.81,1.27.63.63,0,0,1-.24,0,.92.92,0,0,1-1-.8.83.83,0,0,1,0-.26.93.93,0,0,1,.77-1c4.3-.79,6.41-2.81,6.41-5.64v-.46Zm-3.41-4a2.67,2.67,0,0,0-2.88,2.59,2.35,2.35,0,0,0,2.62,2.45A2.72,2.72,0,0,0,268.4,546C268.4,544.74,267.37,543.88,265.83,543.88Z"/><circle class="cls-7" cx="386.68" cy="100" r="100"/><path class="cls-2" d="M363.1,41.37a23,23,0,0,0,4.09,6.34,2.26,2.26,0,0,1,.58,1.41,1.57,1.57,0,0,1-.44,1.1,1.55,1.55,0,0,1-1.24.61,1.39,1.39,0,0,1-1-.48,17.86,17.86,0,0,1-2.73-5,51.57,51.57,0,0,1,.48,6.43V66.1c0,1-.61,1.5-1.85,1.5s-1.8-.53-1.8-1.5V54c0-2.34.4-5,.57-7.26a31.53,31.53,0,0,1-4,9.37,1.84,1.84,0,0,1-1.54.83,2,2,0,0,1-1.85-1.84,2.39,2.39,0,0,1,.57-1.5,34.19,34.19,0,0,0,5.81-12.19h-4.27c-.88,0-1.41-.7-1.41-1.8s.53-1.72,1.41-1.72h4.71V32.57c-1.32.31-2.64.61-3.83.79a1,1,0,0,1-.39,0,1.65,1.65,0,0,1-1.68-1.54,1.39,1.39,0,0,1,0-.4,1.58,1.58,0,0,1,1.41-1.63,37.94,37.94,0,0,0,9.94-2.9,2,2,0,0,1,1-.27,1.84,1.84,0,0,1,1.62,1,1.94,1.94,0,0,1,.22.88,1.81,1.81,0,0,1-1.18,1.68c-1,.44-2.16.88-3.44,1.32v6.29h2.91c.92,0,1.41.66,1.41,1.72s-.49,1.8-1.41,1.8ZM381,40.53a26.79,26.79,0,0,1-2.86,2.56c4.05,4.49,5.46,10.25,5.46,16.32,0,5.81-1.41,7.88-5.59,7.88a17,17,0,0,1-3.79-.4,1.61,1.61,0,0,1-1.14-1.67,1.29,1.29,0,0,1,0-.39,1.55,1.55,0,0,1,1.5-1.41.83.83,0,0,1,.31,0,12.88,12.88,0,0,0,2.73.35c1.8,0,2.42-.83,2.42-4.79a17.26,17.26,0,0,0-.09-2.16,37.43,37.43,0,0,1-12.5,7.7,2.13,2.13,0,0,1-.88.18A1.59,1.59,0,0,1,365,63.59a1.84,1.84,0,0,1,.88-2.46A38.59,38.59,0,0,0,379.47,53a19.85,19.85,0,0,0-.84-2.82,39.08,39.08,0,0,1-10.16,5.55,1.56,1.56,0,0,1-.62.13,1.68,1.68,0,0,1-1.58-1.28,2.71,2.71,0,0,1-.09-.61,1.68,1.68,0,0,1,1.06-1.59,35,35,0,0,0,10-5.1,21,21,0,0,0-1.72-2.34,27.08,27.08,0,0,1-5.63,2.73,1.3,1.3,0,0,1-.57.14,1.64,1.64,0,0,1-1.5-1.1,2.75,2.75,0,0,1-.13-.75,1.41,1.41,0,0,1,1-1.41,20.59,20.59,0,0,0,7.62-4h-4.1c-.88,0-1.27-.66-1.27-1.58s.39-1.58,1.27-1.58h16.29c.83,0,1.27.66,1.27,1.58s-.44,1.58-1.27,1.58h-2.86a42.54,42.54,0,0,0,1.23,6.69,21.52,21.52,0,0,0,3.47-3.83,1.54,1.54,0,0,1,1.28-.7,2,2,0,0,1,1.23.44,1.69,1.69,0,0,1,.66,1.32,2,2,0,0,1-.48,1.23,36,36,0,0,1-5,5,38.9,38.9,0,0,0,6.12,10.17,2,2,0,0,1,.44,1.23,1.77,1.77,0,0,1-.71,1.45,2.23,2.23,0,0,1-1.36.53,1.77,1.77,0,0,1-1.41-.75c-4.66-5.68-7.7-13.42-8.8-22.8Zm-3-12.8c0-.84.7-1.32,1.94-1.32s1.93.48,1.93,1.32V30.9h7.66c2.68,0,3.87.92,3.87,3.43v3c0,1-.66,1.41-1.85,1.41s-1.93-.44-1.93-1.28V35.12c0-.79-.27-1-1.1-1h-16.2c-.83,0-1.19.22-1.19,1v2.25c0,.83-.61,1.27-1.76,1.27s-1.89-.44-1.89-1.45V34.33c0-2.51,1.19-3.43,3.87-3.43H378Z"/><path class="cls-2" d="M412.47,46.24a1.08,1.08,0,0,1-.39.82,66.2,66.2,0,0,1-9.24,7.12c-.55.36-.67.6-.67.94s.19.55.84,1a78.87,78.87,0,0,1,9.91,7.66,1.22,1.22,0,0,1,.15,1.73,1.07,1.07,0,0,1-.82.4,1.2,1.2,0,0,1-.84-.38,78.94,78.94,0,0,0-10.08-8.09,2.55,2.55,0,0,1-1.46-2.26,2.74,2.74,0,0,1,1.56-2.4,63.2,63.2,0,0,0,9.09-7.17,1.17,1.17,0,0,1,.8-.34,1.38,1.38,0,0,1,.79.29A.92.92,0,0,1,412.47,46.24ZM411.82,50a.94.94,0,0,1,.62.27,22,22,0,0,1,1.92,2.35.94.94,0,0,1,.17.55.8.8,0,0,1-.31.65,1,1,0,0,1-.58.19.86.86,0,0,1-.67-.33,23.27,23.27,0,0,0-1.82-2.33.77.77,0,0,1-.19-.48.83.83,0,0,1,.33-.67A.92.92,0,0,1,411.82,50Zm2.45-1.44a1,1,0,0,1,.67.27,15.71,15.71,0,0,1,1.8,2.25,1,1,0,0,1,.19.56.81.81,0,0,1-.33.64,1,1,0,0,1-.53.17.9.9,0,0,1-.7-.38,15.17,15.17,0,0,0-1.73-2.19.83.83,0,0,1-.21-.52.73.73,0,0,1,.36-.65A.83.83,0,0,1,414.27,48.54Z"/><path class="cls-8" d="M678,145.17Q623.53,59.3,543.6,49.76"/><polygon class="cls-9" points="682.16 132.31 679.62 131.87 677.45 144.36 665.14 141.28 664.52 143.78 679.51 147.53 682.16 132.31"/><path class="cls-8" d="M224.83,55q-97,30.63-126.7,105.44"/><polygon class="cls-9" points="213.47 47.72 212.39 50.06 223.91 55.37 217.77 66.47 220.03 67.72 227.5 54.19 213.47 47.72"/><path class="cls-8" d="M656.06,494.89Q688,473.56,688,432.31"/><polygon class="cls-9" points="669.02 498.49 669.37 495.94 656.8 494.23 659.43 481.81 656.91 481.28 653.72 496.4 669.02 498.49"/><path class="cls-8" d="M86.51,443.11q.66,37.18,34.28,58.82"/><polygon class="cls-9" points="76.47 452.07 78.43 453.74 86.67 444.1 95.69 453.02 97.5 451.18 86.51 440.32 76.47 452.07"/><line class="cls-10" x1="353.55" y1="590.61" x2="422.61" y2="590.61"/><polygon class="cls-9" points="362.07 601.13 363.83 599.25 354.53 590.61 363.83 581.98 362.07 580.09 350.76 590.61 362.07 601.13"/><path class="cls-2" d="M420.45,103,405.3,83.49a.51.51,0,0,0-.7-.09l-2.93,2.28,4.63,6a4.21,4.21,0,0,0,.9-.54l4,5.15,2.34,3h0a3.67,3.67,0,0,0-.93,1,4.36,4.36,0,0,0-.57,4,4.73,4.73,0,0,0,.7,1.33l-10,7.75,5.23,0,12.41-9.64A.5.5,0,0,0,420.45,103Z"/><polygon class="cls-2" points="388.07 103.42 388.07 103.42 388.07 103.42 388.06 103.4 384.99 105.78 384.12 104.65 387.15 102.3 387.16 102.29 387.16 102.29 387.18 102.28 386.39 101.26 384.87 102.44 384.68 102.58 383.95 103.02 383.94 100.69 383.93 98.48 383.93 97.31 383.93 97.14 383.93 97.14 383.93 97.13 383.92 97.15 383.92 97.12 381.93 98.67 381.94 101.76 381.94 102.15 381.95 103.2 381.95 103.43 381.95 103.46 380.68 103.13 380.31 103.03 377.32 102.25 376.09 103.2 375.32 103.78 375.33 103.79 375.32 103.8 378.77 104.7 381.04 105.3 381.1 105.31 381.13 105.33 378.75 107.19 378.73 107.2 378.73 107.2 378.71 107.22 379.5 108.23 382.56 105.85 383.43 106.98 380.38 109.36 381.13 110.34 381.14 110.35 381.14 110.35 381.15 110.37 384.22 107.99 386.23 110.59 387.77 109.4 387.77 109.4 387.77 109.4 387.8 109.38 385.77 106.78 388.83 104.4 388.07 103.42"/><path class="cls-2" d="M361.69,113.6l2.48,0h1.5v0h0l-.59-.76a4.51,4.51,0,0,0,.8-6.33l23-17.8,0,0a4.51,4.51,0,0,0,6.33.81l6.32,8.15h0a4.52,4.52,0,0,0-.8,6.33l-6.8,5.28-5.42,4.18h0l0,0,5.23,0,14.62-11.34a.53.53,0,0,0,.09-.71L393.3,81.85a.48.48,0,0,0-.7-.09l-34.33,26.62a.5.5,0,0,0-.08.7Z"/><polygon class="cls-2" points="373.23 113.53 378.2 109.68 377.75 109.09 377.75 109.09 377.75 109.09 377.74 109.07 374.52 111.56 371.97 113.51 372 113.51 371.97 113.53 373.23 113.53"/><polygon class="cls-2" points="388.91 101.37 395.94 95.92 396.02 95.86 396.02 95.86 396.04 95.85 395.56 95.25 388.55 100.69 388.45 100.76 388.45 100.76 388.43 100.77 388.91 101.37"/><path class="cls-2" d="M386,145.52h0s0,0,0,0a1.76,1.76,0,0,0-.32.74A2.07,2.07,0,0,0,386,148a1.88,1.88,0,0,0,.32-.74,2.08,2.08,0,0,0-.23-1.51A1.74,1.74,0,0,0,386,145.52Z"/><path class="cls-2" d="M394,141.08a.67.67,0,0,0-.65-.66c-2.6-.13-5.27-.18-8-.15s-5.38.08-8,.23a.67.67,0,0,0-.65.68s0,0,0,.07v.86l0,6.31a5,5,0,0,0,5,5l7.32,0a5,5,0,0,0,4.95-5l0-6.32Zm-6.83,2a3.64,3.64,0,0,1,3.3,1.28.47.47,0,0,1,.1.39.49.49,0,0,1-.22.33l-.54.31a.47.47,0,0,1-.57-.1,2,2,0,0,0-1.78-.67h-.2v0h0a3.67,3.67,0,0,1,.59,2.77,3.47,3.47,0,0,1-.45,1.17,1.63,1.63,0,0,1-.11.17h0a0,0,0,0,1,0,0,2.85,2.85,0,0,0,.41,0,2.11,2.11,0,0,0,1.58-.73.46.46,0,0,1,.57-.09l.55.3a.52.52,0,0,1,.23.33.44.44,0,0,1-.1.37,3.6,3.6,0,0,1-2.82,1.35A3.33,3.33,0,0,1,386,150h0a3.54,3.54,0,0,1-1.69.43,3.64,3.64,0,0,1-2.82-1.33.41.41,0,0,1-.1-.37.47.47,0,0,1,.22-.33l.53-.31a.48.48,0,0,1,.59.09,2.08,2.08,0,0,0,1.85.67h.15a3.75,3.75,0,0,1-.59-2.79,3.82,3.82,0,0,1,.48-1.2l.08-.13h0a0,0,0,0,0,0,0,1.47,1.47,0,0,0-.42,0,2.2,2.2,0,0,0-1.58.73.46.46,0,0,1-.57.1l-.54-.32a.49.49,0,0,1-.23-.31.51.51,0,0,1,.1-.39,3.66,3.66,0,0,1,2.82-1.35,3.86,3.86,0,0,1,1.72.41h0a3.81,3.81,0,0,1,1.2-.38Z"/><path class="cls-2" d="M420.09,141.57,420,125a7.9,7.9,0,0,0-7.91-7.82l-9.22,0-5.23,0-9,0-5.23,0-14.72.09h-4l-6.29,0a7.88,7.88,0,0,0-7.82,7.91l.09,16.52v3.29l.06,10.62A9.22,9.22,0,0,0,360,165l51-.28a9.21,9.21,0,0,0,9.15-9.24l-.06-10.62Zm-22.8.59h0l0,6.15a8.23,8.23,0,0,1-8.17,8.27l-7.32,0a8.22,8.22,0,0,1-8.25-8.17l0-6.17a173.67,173.67,0,0,0-17.68,2l-1,.15v-3.27A175.47,175.47,0,0,1,374.17,139a4,4,0,0,1,3-1.74c2.67-.13,5.41-.22,8.15-.23s5.49,0,8.14.15a3.9,3.9,0,0,1,3.06,1.71,173.15,173.15,0,0,1,19.37,1.94v3.28a170.11,170.11,0,0,0-18.1-1.92l-.55,0Zm-33-19a.78.78,0,0,1,.52,1.37l-6.9,5.92a.79.79,0,0,1-1.3-.6l0-3.93a2.73,2.73,0,0,1,2.71-2.74Z"/></svg>