<svg id="レイヤー_1" data-name="レイヤー 1" xmlns="http://www.w3.org/2000/svg" viewBox="0 0 652.09 619.75"><defs><style>.cls-1{fill:#b582ae;}.cls-2{fill:#fff;}.cls-3{fill:#89c7bc;}.cls-4{fill:#eaaa36;}.cls-5{fill:#dfb78d;}.cls-6{fill:#a3d08b;}.cls-7{fill:#8687be;}.cls-10,.cls-8{fill:none;stroke:#666;stroke-miterlimit:10;}.cls-8{stroke-width:2.57px;}.cls-9{fill:#666;}.cls-10{stroke-width:2.57px;}</style></defs><title>money_cicle_chart</title><circle class="cls-1" cx="552.09" cy="260.75" r="100"/><path class="cls-2" d="M518.66,219.2a2.42,2.42,0,0,1-.13.75,26.16,26.16,0,0,1-3.61,6.33,2,2,0,0,1-1.54.75,2.1,2.1,0,0,1-1.28-.48,1.7,1.7,0,0,1-.74-1.37,1.92,1.92,0,0,1,.44-1.14,22.72,22.72,0,0,0,3.3-5.63,1.5,1.5,0,0,1,1.45-.93,2,2,0,0,1,.84.18A1.65,1.65,0,0,1,518.66,219.2ZM513,191c0-2.82,1.18-3.74,3.82-3.74h5.9c2.68,0,3.87.92,3.87,3.74v21.69c0,2.64-1.19,3.52-3.87,3.52h-5.9c-2.64,0-3.82-.88-3.82-3.52Zm10,.79c0-.84-.49-1.06-1.23-1.06h-4c-.75,0-1.14.22-1.14,1.06v4H523Zm-6.38,12.28H523V199h-6.38Zm0,3.16v4.54c0,.83.39,1,1.14,1h4c.74,0,1.23-.18,1.23-1v-4.54Zm6.55,10.17a1.68,1.68,0,0,1,1.54,1,25.09,25.09,0,0,0,2.82,4.57,1.86,1.86,0,0,1,.4,1.1,1.82,1.82,0,0,1-.84,1.5,1.89,1.89,0,0,1-1.19.44,1.87,1.87,0,0,1-1.45-.79,25.09,25.09,0,0,1-3.08-5.37,2,2,0,0,1-.18-.79,1.57,1.57,0,0,1,1.1-1.45A2.13,2.13,0,0,1,523.19,217.44Zm19.28,4.4c0,3.39-1.32,4.53-5,4.53a20.39,20.39,0,0,1-4.35-.35,1.69,1.69,0,0,1-1.37-1.76,1.91,1.91,0,0,1,0-.53c.22-1,.83-1.49,1.54-1.49a.78.78,0,0,1,.3,0,16.21,16.21,0,0,0,3.3.31c1.19,0,1.54-.22,1.54-1.63V206.44H530c-.93,0-1.5-.75-1.5-1.85s.57-1.85,1.5-1.85h20.19c.93,0,1.5.71,1.5,1.85s-.57,1.85-1.5,1.85h-7.74Zm-4.84-34.33c0-.88.79-1.36,2-1.36s2,.48,2,1.36v3.88h6c2.59,0,3.74,1.1,3.74,3.65v4.4c0,1.19-.8,1.63-1.85,1.63s-1.85-.44-1.85-1.28v-3.74c0-.83-.4-1.05-1.19-1.05H533.45c-.75,0-1.15.22-1.15,1.05v3.74c0,.84-.74,1.28-1.85,1.28s-1.84-.44-1.84-1.63V195c0-2.56,1.14-3.61,3.74-3.61h5.28Z"/><path class="cls-2" d="M559.41,223.32c-2.16,0-3.79-1.72-3.79-4.82a9.42,9.42,0,0,1,4.06-7.54c-.31-1.34-.58-2.73-.77-4.15v-.17a.84.84,0,0,1,.74-.91,1.1,1.1,0,0,1,.24,0,.77.77,0,0,1,.82.79c.14,1.15.33,2.33.55,3.48a12.14,12.14,0,0,1,5.86-1.37c.19-1,.36-2,.48-2.88.07-.58.38-.84.86-.84a.82.82,0,0,1,.22,0,.86.86,0,0,1,.84.89.56.56,0,0,1,0,.22c-.12.86-.28,1.8-.48,2.76a8.17,8.17,0,0,1,3.44,1.27,7.23,7.23,0,0,1,3.36,6.41c0,4.73-3.56,7.9-9.15,8.59a.72.72,0,0,1-.24,0,.92.92,0,0,1-1-.8.51.51,0,0,1,0-.21.89.89,0,0,1,.87-.91c4.53-.58,7.51-3,7.51-6.68a5.9,5.9,0,0,0-2.42-4.94,6.66,6.66,0,0,0-2.74-1.06c-.29,1.18-.6,2.31-1,3.32a27.63,27.63,0,0,1-2.69,5.59c.19.33.43.65.65,1a1.14,1.14,0,0,1,.22.67.89.89,0,0,1-.34.7,1.06,1.06,0,0,1-.65.24.81.81,0,0,1-.6-.26c-.19-.24-.33-.46-.5-.7A5.44,5.44,0,0,1,559.41,223.32Zm.75-10.46a7.25,7.25,0,0,0-2.67,5.5c0,1.87.87,3.07,2,3.07a4.21,4.21,0,0,0,3.24-2A29.78,29.78,0,0,1,560.16,212.86Zm5.78.36c.31-.91.58-1.87.82-2.9a10.6,10.6,0,0,0-5.07,1.34,29.64,29.64,0,0,0,2.19,6.17A25.82,25.82,0,0,0,565.94,213.22Z"/><path class="cls-2" d="M586.82,214.35a12.94,12.94,0,0,1,5.33-1.25c4.32,0,7,2.28,7,5.54,0,4-3.67,6.58-9.53,6.58-3.55,0-5.86-1.49-5.86-3.72,0-1.87,1.56-3.24,3.92-3.24a5,5,0,0,1,5.13,4.73c2.45-.58,4.28-2.09,4.28-4.32s-1.88-3.94-5.28-3.94c-3.2,0-6.1,1.06-10,3.51a1.28,1.28,0,0,1-.65.16,1,1,0,0,1-.86-.45.88.88,0,0,1-.17-.53,1,1,0,0,1,.55-.91,104.87,104.87,0,0,0,12.32-9c-2.62.21-6.29.36-9.36.38a.87.87,0,0,1-.89-.94c0-.55.29-1,.84-1,3.24,0,7.34-.12,10.54-.34h.21a1.3,1.3,0,0,1,1.2.6,1.41,1.41,0,0,1,.19.7,1.37,1.37,0,0,1-.45,1,50.61,50.61,0,0,1-6.27,5c-.67.46-1.48,1-2.16,1.39Zm.72,5.54c-1.25,0-2,.65-2,1.54,0,1.1,1.44,2,3.58,2,.58,0,1.17,0,1.75-.05C590.71,221.07,589.2,219.89,587.54,219.89Z"/><path class="cls-2" d="M566.63,249.85a.94.94,0,0,0,1.08-.68l1.4-5.39a.94.94,0,0,0-.73-1.15l-.7-.14a.94.94,0,0,0-1.1.8l-.7,5.53A.94.94,0,0,0,566.63,249.85Z"/><path class="cls-2" d="M555.73,251.63a.93.93,0,0,0,1.54-1l-2.82-4.8a.92.92,0,0,0-1.32-.3l-.6.4a.93.93,0,0,0-.21,1.34Z"/><path class="cls-2" d="M576.1,255.54l4.8-2.82a.94.94,0,0,0,.3-1.33l-.41-.59a.92.92,0,0,0-1.34-.21l-4.4,3.41a1,1,0,0,0-.2,1.26A.94.94,0,0,0,576.1,255.54Z"/><path class="cls-2" d="M602.15,286.69l-.12-.16v0a8.34,8.34,0,0,1-2,1.31s0,0-.05,0a8.77,8.77,0,0,1-1.12.4h0a8.8,8.8,0,0,1-2.88.32h-.1A8.51,8.51,0,0,1,593,288l-.15-.06h0a8.77,8.77,0,0,0,1.29-8.1,4.05,4.05,0,0,0-7.83,0,8.81,8.81,0,0,0,1,7.72c.09.13.16.26.25.39h0a8.79,8.79,0,0,1-2.43.63l-.14,0a24,24,0,0,0-9.71-18.29l-.18-.15h0l0,0A13.87,13.87,0,0,1,563.72,276h-.39a14,14,0,0,1-13.19-10.52H544.2a26.27,26.27,0,0,0-12.13-7.17,1.71,1.71,0,0,0-1.6.28,1.77,1.77,0,0,0-.68,1.47c.12,3.36,1.4,3.66,2.43,7.5a24.57,24.57,0,0,0-10.47,8.89c-1.5,2.31-5.59,3.63-8.75,3.9a3.39,3.39,0,0,0-2.47,1.38,3.48,3.48,0,0,0-.6,2.8l2.11,9.68a6.31,6.31,0,0,0,6.19,5,5.27,5.27,0,0,1,1.89.27c2.1,6.14,4.47,10,11.2,12.57l1.47,5a4.18,4.18,0,0,0,4.16,4.17h4.43a4.2,4.2,0,0,0,4.18-4.17l1.47-3.19h10.3V317a4.18,4.18,0,0,0,4.18,4.17h4.41A4.18,4.18,0,0,0,570.1,317l1.47-5a20.31,20.31,0,0,0,10-8.9.21.21,0,0,1,0-.07c.24-.43.46-.85.68-1.3a.6.6,0,0,1,.06-.11c.2-.44.41-.9.6-1.37a.32.32,0,0,1,0-.09,29.32,29.32,0,0,0,1.94-8.32,11.31,11.31,0,0,0,4.06-1c.41-.18.81-.38,1.19-.59h0a.07.07,0,0,0,.06,0A11.74,11.74,0,0,0,604,289Zm-65.34.46A4.17,4.17,0,1,1,541,283,4.18,4.18,0,0,1,536.81,287.15Zm54.3-2a7,7,0,0,1-.49.76l-.33.34h0v0l-.06.05a5.33,5.33,0,0,1-1-5.26c.25-.71.63-.82,1-.82s.8.11,1,.82A5.36,5.36,0,0,1,591.11,285.13Z"/><path class="cls-2" d="M554.12,261.71a9.59,9.59,0,1,0,9.84-9.33A9.58,9.58,0,0,0,554.12,261.71Zm6.09-4.27,1.26,0,1.47,2,.18.25.49.68.11.16h0l0,0,.13-.15.54-.68.19-.23,1.58-1.94.83,0,1.2.07-.69.82-1.11,1.38-.74.92-.44.51h0l0,0,1.87.14h.56v.37l-.07.66h0l-3.08-.08,0,1.11h0v0l3.13.08v.38l-.07.66h0l-3-.09h0l-.07,2.67-1.59-.05.07-2.62h0v0l-3.13-.08,0-1,3.13.09,0-1.12h0v0l-3.13-.09,0-1,1.53,0,.91,0h0l-.42-.6-.73-1-.69-1-1-1.39Z"/><circle class="cls-3" cx="100" cy="260.75" r="100"/><path class="cls-2" d="M53.67,211c3,0,4.22,1.45,4.18,4.18a30.46,30.46,0,0,1-1.68,10.47c-1.05,2.82-3,4.05-7.08,4.05a28.38,28.38,0,0,1-6.16-.61,1.8,1.8,0,0,1-1.54-1.9,2.28,2.28,0,0,1,0-.52c.18-1.06.79-1.63,1.63-1.63a2.19,2.19,0,0,1,.57.09,23.36,23.36,0,0,0,5.37.66c2.07,0,3-.53,3.61-2.12A25.31,25.31,0,0,0,53.8,216c0-.88-.27-1.27-1.54-1.27H41.39c-2,0-3.13-.93-3.13-2.6a4.66,4.66,0,0,1,.13-1c.49-2.29.93-4.62,1.24-6.78a3.32,3.32,0,0,1,3.65-3h9.33c.79,0,1.19-.22,1.19-1.06v-4.22c0-.79-.4-1-1.19-1h-13c-.84,0-1.46-.88-1.46-2a1.72,1.72,0,0,1,1.46-1.9H54c2.51,0,3.79,1.15,3.79,3.57v6.64c0,2.6-1.28,3.61-3.79,3.61H44.56a1,1,0,0,0-1.15.93c-.26,1.32-.53,2.77-.79,4a1.29,1.29,0,0,0,0,.39c0,.53.35.75,1.05.75ZM68,191.52c0-1,.79-1.59,2.07-1.59s2.11.62,2.11,1.59v37c0,1-.79,1.59-2.11,1.59S68,229.45,68,228.48Z"/><path class="cls-2" d="M95,221.15a19.54,19.54,0,0,1-3.17-3.77,77.49,77.49,0,0,1-9.89.79c-.65,0-1-.36-1-.84v-.07a.77.77,0,0,1,.84-.86,72.83,72.83,0,0,0,9-.68,25.67,25.67,0,0,1-1.37-2.56,62.6,62.6,0,0,1-7.61.5.89.89,0,0,1-1-.89.83.83,0,0,1,.87-.89,62.6,62.6,0,0,0,6.89-.4c-.29-.65-.56-1.37-.84-2.07a.76.76,0,0,1-.1-.41.82.82,0,0,1,.67-.77,3,3,0,0,1,.39,0,.89.89,0,0,1,.88.74c.27.79.58,1.59.87,2.33A47.65,47.65,0,0,0,96.68,210a1.19,1.19,0,0,1,.39-.07.77.77,0,0,1,.79.64,2.33,2.33,0,0,1,0,.34.78.78,0,0,1-.63.79,57.31,57.31,0,0,1-6,1.27,20.34,20.34,0,0,0,1.35,2.52c1.87-.31,3.72-.69,5.35-1.12a1.81,1.81,0,0,1,.38-.05.75.75,0,0,1,.84.62,1.32,1.32,0,0,1,0,.31c0,.44-.26.68-.77.84-1.36.34-3,.68-4.8,1a29,29,0,0,0,3.58,4.29,1.29,1.29,0,0,1,.48,1,1.08,1.08,0,0,1-1,1.08,2.62,2.62,0,0,1-1.15-.38,13.52,13.52,0,0,0-6.1-1.32c-4.17,0-5.47,1.22-5.47,2.78,0,1.71,1.7,2.52,5.55,2.52a21.62,21.62,0,0,0,6.16-.91,1.35,1.35,0,0,1,.44-.07.85.85,0,0,1,.86.7,2.23,2.23,0,0,1,0,.36.93.93,0,0,1-.72.93,23.8,23.8,0,0,1-6.91.91c-4.93,0-7.49-1.6-7.49-4.36,0-2.6,2.28-4.52,7.49-4.52a12.29,12.29,0,0,1,5.49,1.23Z"/><path class="cls-2" d="M103.74,220.4c-.43,0-.67-.28-.67-.81s.24-.79.67-.79h20.74c.43,0,.69.31.69.79s-.26.81-.69.81H121.6v7.11c0,1.73-.8,2.33-2.86,2.33a12.36,12.36,0,0,1-2.66-.2.76.76,0,0,1-.63-.79.66.66,0,0,1,0-.24.74.74,0,0,1,.74-.67.62.62,0,0,1,.19,0,10,10,0,0,0,2,.2c1.16,0,1.37-.17,1.37-.89V220.4Zm11.57-6c1.61,1.71,3.93,2.31,7.2,2.45a.68.68,0,0,1,.65.7v.14a.79.79,0,0,1-.84.67h-.08c-3.91-.19-6.76-1.22-8.57-3.67a5.58,5.58,0,0,1-1.72,1.85,14.35,14.35,0,0,1-6,1.82h-.14a.82.82,0,0,1-.82-.6,1,1,0,0,1,0-.24.59.59,0,0,1,.6-.62,12.46,12.46,0,0,0,5.59-1.61,3.85,3.85,0,0,0,.91-.89h-5.18c-.39,0-.6-.28-.6-.74s.21-.72.6-.72h5.85a5.8,5.8,0,0,0,.2-1.18.65.65,0,0,1,.71-.62h-7.48c-.51,0-.75.14-.75.65v1.75c0,.48-.36.72-.89.72s-.91-.24-.91-.72v-2.09c0-1.37.67-1.92,2-1.92h7.42v-1.39c0-.43.36-.67.89-.67s.91.24.91.67v1.39h7.58c1.4,0,2,.55,2,1.92v2.09c0,.48-.33.72-.88.72s-.92-.24-.92-.72v-1.75c0-.51-.24-.65-.74-.65h-8.14c.51,0,.87.19.87.62a.34.34,0,0,1,0,.17,5.15,5.15,0,0,1-.24,1h6.84c.39,0,.6.26.6.72s-.21.74-.6.74Zm-.6,7.35c1.39,0,2,.5,2,1.73v2.3c0,1.22-.62,1.75-2,1.75h-6.27c-1.41,0-2-.53-2-1.75v-2.3c0-1.23.63-1.73,2-1.73Zm-.44,4.32c.48,0,.73-.15.73-.58v-1.75c0-.43-.25-.55-.73-.55h-5.4c-.48,0-.72.12-.72.55v1.75c0,.43.24.58.72.58Z"/><path class="cls-2" d="M143.72,220.07c-.33,1.8-1.22,2.81-2.92,2.81a6.1,6.1,0,0,1-3.72-1.37,1,1,0,0,1-.34-.75,1,1,0,0,1,.19-.57,1,1,0,0,1,.77-.39,1,1,0,0,1,.62.24,4,4,0,0,0,2.28.89c.72,0,1.08-.36,1.28-1.34a26.85,26.85,0,0,0,.26-3.84c-1.27.05-2.47.07-3.6.14-1.54.1-3.07.17-4.63.29v2.64c0,4.32.12,5.33.48,5.93.6,1.1,1.94,1.41,5,1.41a34,34,0,0,0,6.31-.57,1.38,1.38,0,0,1,.34,0,.86.86,0,0,1,.91.8.75.75,0,0,1,0,.21,1,1,0,0,1-.88,1,37,37,0,0,1-6.63.56c-3.79,0-5.81-.63-6.67-2.14-.65-1-.87-2.18-.87-6.31v-.65c0-.89,0-1.8,0-2.76-1.23.07-2.52.19-3.79.29H128a.85.85,0,0,1-.84-.87v-.07a.83.83,0,0,1,.82-.89c1.29-.09,2.61-.19,4-.31,0-1.49,0-3.14,0-4.46a.88.88,0,0,1,1-.89c.62,0,1,.34,1,.89,0,1.41,0,2.88,0,4.34,1.47-.09,3-.19,4.54-.26,1,0,2.3-.12,3.67-.17,0-.5,0-1,0-1.51,0-1,0-1.95,0-2.86a.86.86,0,0,1,1-.86.9.9,0,0,1,1,.84v2.11c0,.72,0,1.44,0,2.23,1.3,0,2.74-.07,4.08-.09.68,0,.94.33.94.88s-.26,1-.91,1c-1.35,0-2.74.05-4.13.08A24.77,24.77,0,0,1,143.72,220.07Z"/><path class="cls-2" d="M159.13,217.91a12.91,12.91,0,0,1,5.33-1.25c4.32,0,7,2.28,7,5.54,0,4-3.67,6.58-9.53,6.58-3.55,0-5.86-1.49-5.86-3.72,0-1.87,1.56-3.24,3.92-3.24a5,5,0,0,1,5.13,4.73c2.45-.58,4.28-2.09,4.28-4.32s-1.88-3.94-5.28-3.94c-3.2,0-6.1,1.06-10,3.51a1.28,1.28,0,0,1-.65.16,1,1,0,0,1-.86-.45.88.88,0,0,1-.17-.53,1,1,0,0,1,.55-.91,105.71,105.71,0,0,0,12.32-9c-2.62.21-6.29.36-9.36.38a.87.87,0,0,1-.89-.93c0-.56.29-1,.84-1,3.24,0,7.34-.12,10.54-.34h.21a1.29,1.29,0,0,1,1.2.61,1.35,1.35,0,0,1,.19.69,1.4,1.4,0,0,1-.45,1,51.43,51.43,0,0,1-6.27,4.94c-.67.46-1.49,1-2.16,1.39Zm.72,5.54c-1.25,0-2,.65-2,1.54,0,1.1,1.44,2,3.58,2,.58,0,1.18,0,1.75-.05C163,224.63,161.51,223.45,159.85,223.45Z"/><path class="cls-2" d="M131.74,315.32a8.88,8.88,0,0,0-7.14-6.76h0a8.69,8.69,0,0,0-1.45-.12H123c-.15,0-.31,0-.46,0h-.07l-4,.41-1.59.15a7.09,7.09,0,0,0,.24-3.27,7.35,7.35,0,0,0-2.34-4.32l-7.81-7a13,13,0,0,0-11-3.12L81,293.9a7.76,7.76,0,0,0-2.39.81,4,4,0,0,0-2.19-1.19h0a3.77,3.77,0,0,0-.83-.08h0a3.88,3.88,0,0,0-.59,0L67,294.67a5.8,5.8,0,0,0-2.55-1h0a6.09,6.09,0,0,0-1.86,0l-6.52,1v29.26h0v0L67,322.19a5.88,5.88,0,0,0,3.9-2.36l7.92-1.24A4.07,4.07,0,0,0,81.46,317a7.74,7.74,0,0,0,2.59.09l4.57-.63,8.19,8.64a9.88,9.88,0,0,0,8,3h0l19-1.93a9,9,0,0,0,6.24-3.37,9.11,9.11,0,0,0,1.8-6.89C131.83,315.75,131.79,315.53,131.74,315.32Zm-8.46,4.83-19,1.94a3.77,3.77,0,0,1-3-1.16l-8.89-9.35a4.13,4.13,0,0,0-3.57-1.26l-5.56.75a1.85,1.85,0,0,1-1.38-.36l-1.38-8.93A1.9,1.9,0,0,1,82,299.9l15-2.6a6.92,6.92,0,0,1,5.82,1.68l7.8,6.95a1.19,1.19,0,0,1,.38.71,1.17,1.17,0,0,1-.1.68,2.93,2.93,0,0,1-3.12,1.63l-.17,0a2.9,2.9,0,0,1-.55-.17l-.08,0a4,4,0,0,1-.52-.31l-4-3a1.49,1.49,0,0,0-2.28.6l-.23.52a1.32,1.32,0,0,0-.1.83,1.45,1.45,0,0,0,.36.77l5.81,6.34a3.73,3.73,0,0,0,3,1.2l13.81-1.14a2.82,2.82,0,0,1,2.93,2.17,1.3,1.3,0,0,0,0,.21A2.84,2.84,0,0,1,123.28,320.15ZM76,312.85l-4.32.66-2-13.07,4.31-.67.41,2.59L76,312.77Z"/><path class="cls-2" d="M146.4,264.11l-2.24-.31h0l-3.2,22.68a1.14,1.14,0,0,1-1.28,1l-42.09-6-.1,0h0l-.37,2.63a1.13,1.13,0,0,0,1,1.27l44.48,6.29a1.15,1.15,0,0,0,1.29-.95l3.56-25.3A1.11,1.11,0,0,0,146.4,264.11Z"/><polygon class="cls-2" points="119.03 264.32 118.75 264.59 118.61 264.74 117.98 265.36 117.8 265.53 117.78 265.55 117.21 264.54 117.11 264.36 116.92 264.02 115.35 261.24 113.74 261.01 113.11 260.92 112.78 260.85 112.79 260.87 112.77 260.87 112.75 260.87 114.57 264.08 114.61 264.16 114.62 264.16 115.77 266.19 115.79 266.26 115.8 266.27 115.8 266.29 112.71 265.85 112.69 265.85 112.69 265.85 112.67 265.85 112.49 267.13 112.49 267.13 112.49 267.13 112.48 267.16 116.45 267.72 116.24 269.17 112.33 268.63 112.3 268.62 112.3 268.62 112.27 268.62 112.09 269.89 112.09 269.9 112.09 269.9 112.08 269.93 116.05 270.49 115.58 273.86 117.59 274.14 117.59 274.11 117.78 272.8 118.06 270.77 119.31 270.94 121.9 271.31 122.03 271.33 122.22 270.05 122.22 270.03 121.09 269.87 118.49 269.49 118.29 269.14 118.46 268 120.16 268.25 122.43 268.56 122.62 267.28 122.62 267.26 120.65 266.98 120.39 266.94 119.55 266.72 121.2 265.11 121.28 265.03 122.9 263.44 123.69 262.67 123.9 262.48 123.89 262.48 123.9 262.46 123.9 262.45 121.3 262.08 119.03 264.32"/><path class="cls-2" d="M93.27,278.45l1.11.16,3.39.48,8.59,1.22,29.55,4.18,1.84.26a1.14,1.14,0,0,0,1.27-1l.21-1.56,1.42-10,1.25-8.78.53-3.72.17-1.26a1.13,1.13,0,0,0-1-1.27l-44.47-6.29a1.11,1.11,0,0,0-1.27,1l-3.59,25.31A1.12,1.12,0,0,0,93.27,278.45Zm43.52-11.15-1.11,7.93a5.25,5.25,0,0,0-2.64.62,5.48,5.48,0,0,0-1,.67,5.28,5.28,0,0,0-1.64,2.63l-7.67-1.08-2-.29-17.88-2.53-1-.14A5.32,5.32,0,0,0,99,270.3a2.74,2.74,0,0,0-.4-.15l-.5-.19-.21-.09,1.33-9.43a4.67,4.67,0,0,0,1.19-.12,5.27,5.27,0,0,0,3.33-2.25,4.86,4.86,0,0,0,.71-1.57l28.61,4.05a5.31,5.31,0,0,0,3.92,5.24Z"/><polygon class="cls-2" points="101.5 265.17 101.36 265.15 101.36 265.15 101.33 265.15 101.23 265.93 106.64 266.7 110.47 267.25 110.58 266.48 110.58 266.46 107.59 266.03 101.5 265.17"/><polygon class="cls-2" points="124.33 269.17 124.33 269.17 124.33 269.17 124.33 269.2 125.64 269.39 128.24 269.76 133.56 270.52 133.68 269.75 133.68 269.73 124.44 268.42 124.33 269.17"/><path class="cls-4" d="M235.2,271.38c-2.6,0-3.63-.95-3.63-3.16v-8.85c0-2.21,1.26-3.2,4.19-3.2h19.75c3.2,0,4.15,1,4.15,3.2v8.93c0,2.21-1,3.08-3.6,3.08h-3.63l.16,0a42.91,42.91,0,0,0,9.44,1.89,1.65,1.65,0,0,1,1.62,1.74v.28a1.73,1.73,0,0,1-1.82,1.74h-.2a42.07,42.07,0,0,1-11.53-2.81,1.58,1.58,0,0,1-1.11-1.38,1.31,1.31,0,0,1,.48-1,2.66,2.66,0,0,1,.9-.51h-9.63a3.2,3.2,0,0,1,.83.47,1.48,1.48,0,0,1,.47,1,1.57,1.57,0,0,1-1,1.34,37.9,37.9,0,0,1-11.22,2.85h-.19a1.77,1.77,0,0,1-1.86-1.66,1.11,1.11,0,0,1,0-.36,1.66,1.66,0,0,1,1.58-1.78,38.27,38.27,0,0,0,9.32-1.89Zm4.82-19h4.71c.63,0,1,.59,1,1.38s-.39,1.34-1,1.34H232.6c-3,0-4-.71-4-3.12V243.8c0-2.41,1.06-3.12,4-3.12h12.13c.63,0,1,.52,1,1.35s-.39,1.38-1,1.38H240v1.42h2.37c2.14,0,2.81.63,2.81,2.13v1.9c0,1.5-.67,1.94-2.81,1.94H240Zm-3.55-7.51v-1.42h-3c-.67,0-.91.12-.91.75v.67Zm-3.95,3.79h8.22c.51,0,.67-.08.67-.51v-.55c0-.44-.16-.52-.67-.52h-8.22Zm0,3c0,.63.24.75.91.75h3V250.8h-3.95Zm23.07,8.85v-.75c0-.6-.28-.76-1-.76H236.67c-.68,0-.95.16-.95.76v.75Zm-19.87,4.06h19.87V263H235.72Zm0,3.48c0,.59.27.71.95.71H254.6c.71,0,1-.12,1-.71v-1H235.72Zm24.21-27.3a2.43,2.43,0,0,1,2.73,2.45,3.93,3.93,0,0,1-.59,1.94,20.57,20.57,0,0,1-4.62,5.13,22.77,22.77,0,0,0,5.72,2.69,1.67,1.67,0,0,1,1.27,1.66,2.92,2.92,0,0,1-.12.79,1.76,1.76,0,0,1-1.7,1.3,2.45,2.45,0,0,1-.75-.12,24.3,24.3,0,0,1-7.62-4,28.31,28.31,0,0,1-5.38,2.56,2.86,2.86,0,0,1-.79.12,1.67,1.67,0,0,1-1.62-1,2.18,2.18,0,0,1-.15-.83,1.51,1.51,0,0,1,1-1.54,26.74,26.74,0,0,0,4.15-1.81,25.74,25.74,0,0,1-3.08-4,1.2,1.2,0,0,1,.63-1.94,2.76,2.76,0,0,1,.32-.12h-1.7c-.75,0-1.27-.71-1.27-1.66s.52-1.62,1.27-1.62ZM250.81,244a2.55,2.55,0,0,1,1.18.79,16.63,16.63,0,0,0,2.61,3.16,15.27,15.27,0,0,0,3.2-3.32,1,1,0,0,0,.16-.39c0-.16-.16-.24-.51-.24Z"/><path class="cls-4" d="M276,266.48a2.65,2.65,0,0,0,2.13,1.78,2,2,0,0,0,1.89-1.35,16.09,16.09,0,0,0,1.59-5.29,1.87,1.87,0,0,1,2-1.78,5.49,5.49,0,0,1,.71.08,2.05,2.05,0,0,1,2,2.14,2.79,2.79,0,0,1,0,.55,19.44,19.44,0,0,1-3.12,8.57,6,6,0,0,1-9.92,0c-1.9-2.37-3.32-6.48-3.83-12.6-.28-3.4-.36-8.06-.36-12.72,0-1.46.87-2.29,2.49-2.29s2.37.87,2.37,2.33v3c0,3.48,0,6.87.24,9.28A23.86,23.86,0,0,0,276,266.48Zm17.61-20.82a2.29,2.29,0,0,1,2,1.19,44.4,44.4,0,0,1,6.83,19.71,1.87,1.87,0,0,1,0,.47,2.31,2.31,0,0,1-2,2.57,4.48,4.48,0,0,1-.67.08,2.17,2.17,0,0,1-2.29-2.13,42.33,42.33,0,0,0-6.13-18.25,2.52,2.52,0,0,1-.43-1.39,2,2,0,0,1,1.34-1.93A3.3,3.3,0,0,1,293.59,245.66Z"/><path class="cls-4" d="M336.34,252.38a40.66,40.66,0,0,1-1.66,5.72,29.87,29.87,0,0,1-4.5,7.83,86.43,86.43,0,0,1,10.15,6.16,2.09,2.09,0,0,1,.91,1.74,2.76,2.76,0,0,1-.52,1.54,2.39,2.39,0,0,1-1.93,1.07,2.12,2.12,0,0,1-1.34-.48,89.76,89.76,0,0,0-10.51-6.68c-4.58,4-10.51,6.44-17.5,7.27a1.64,1.64,0,0,1-.44,0,2,2,0,0,1-2.13-2,1.79,1.79,0,0,1,0-.44,2,2,0,0,1,1.86-2.13,29.82,29.82,0,0,0,13.86-5,70.14,70.14,0,0,0-8.85-3.55,2.77,2.77,0,0,1-2.09-2.69,4,4,0,0,1,.75-2.17,47.14,47.14,0,0,0,3.75-6.28H308c-1.11,0-1.66-.95-1.66-2.14s.55-2.05,1.66-2.05h10c.91-2.21,1.7-4.43,2.37-6.6a2,2,0,0,1,2.09-1.62,4.11,4.11,0,0,1,.68,0c1.18.2,1.89.91,1.89,1.86a2.21,2.21,0,0,1-.12.71c-.63,1.86-1.3,3.71-2.09,5.61h18.37c1.15,0,1.7.91,1.7,2.05s-.55,2.14-1.7,2.14Zm-15.33,0a47.83,47.83,0,0,1-3.79,6.63,1.75,1.75,0,0,0-.32.79c0,.32.24.56.68.71,2.76.95,5.64,2.1,8.49,3.4a22.37,22.37,0,0,0,3.36-5.13,28.65,28.65,0,0,0,2.13-6.4Z"/><path class="cls-4" d="M349.54,249.06v.08a43.29,43.29,0,0,1-1.11,8.85,1.35,1.35,0,0,1-1.42,1.1,2,2,0,0,1-.48-.08,1.26,1.26,0,0,1-1.14-1.26,1,1,0,0,1,.08-.47,41.63,41.63,0,0,0,1.1-8.3c0-.95.68-1.26,1.54-1.26S349.54,248.15,349.54,249.06Zm1-7.86c0-1,.83-1.54,2.1-1.54s2.13.55,2.13,1.54v34.09c0,1-.83,1.58-2.13,1.58s-2.1-.55-2.1-1.58Zm6.17,6a1,1,0,0,1,1,.67A25.84,25.84,0,0,1,359,252a.88.88,0,0,1,0,.32,1.44,1.44,0,0,1-.95,1.34,1.4,1.4,0,0,1-.55.12,1.17,1.17,0,0,1-1.15-.91,29.82,29.82,0,0,0-1.07-3.79,1.83,1.83,0,0,1-.12-.55,1.14,1.14,0,0,1,.8-1.11A1.26,1.26,0,0,1,356.69,247.24Zm4.9,15.72c-1,0-1.55-.75-1.55-2s.56-2,1.55-2h6.75v-7h-4.62a34,34,0,0,1-2.06,5,1.85,1.85,0,0,1-1.73,1.1,2.27,2.27,0,0,1-1.11-.27,1.81,1.81,0,0,1-1.15-1.62,2.2,2.2,0,0,1,.32-1.07,29.63,29.63,0,0,0,3.4-11.73c0-.95.71-1.46,1.85-1.46h.4c1.18.12,1.74.75,1.74,1.66v.27c-.16,1.39-.36,2.73-.59,4.07h3.55v-6.67c0-1,.79-1.58,2.09-1.58s2.22.55,2.22,1.58V248h7.54c1,0,1.58.75,1.58,2s-.59,2-1.58,2h-7.54v7h6.91c1,0,1.54.75,1.54,2s-.55,2-1.54,2h-6.91v8.54H381c1.07,0,1.62.79,1.62,2s-.55,2.06-1.62,2.06H358.66c-1.06,0-1.62-.79-1.62-2.06s.56-2,1.62-2h9.68V263Z"/><path class="cls-4" d="M395.28,243.21a4.48,4.48,0,0,1-.07.59,74.59,74.59,0,0,0-2,16.64,72.08,72.08,0,0,0,1,11.89,4.17,4.17,0,0,1,0,.71,2.14,2.14,0,0,1-2,2.25,4.34,4.34,0,0,1-.67.08c-1.11,0-1.9-.67-2.17-2.06a67.82,67.82,0,0,1-1.07-12.68,75,75,0,0,1,2.17-17.81,2.07,2.07,0,0,1,2.22-1.58,3,3,0,0,1,.59,0C394.53,241.47,395.28,242.11,395.28,243.21Zm9.21,16.91a1.82,1.82,0,0,1-.59,1.3,5.36,5.36,0,0,0-1.78,3.68c0,2.13,1.78,3.16,6.75,3.16a45.22,45.22,0,0,0,9.13-.91,3,3,0,0,1,.55-.08,2.14,2.14,0,0,1,2.14,1.9,3.57,3.57,0,0,1,0,.55,2.26,2.26,0,0,1-1.81,2.37,51.06,51.06,0,0,1-10,.87c-7.19,0-11.34-2.41-11.34-7.55a9.29,9.29,0,0,1,2.77-6.48,2.68,2.68,0,0,1,1.9-.83,2.36,2.36,0,0,1,1.34.44A2,2,0,0,1,404.49,260.12Zm12.56-14.78a2.15,2.15,0,0,1,2.21,2.18v.23a2.35,2.35,0,0,1-2.09,2.49,110.7,110.7,0,0,1-12,.6c-1.42,0-2.77,0-4-.08a2.21,2.21,0,0,1-2.37-2.45,2.25,2.25,0,0,1,2.29-2.41h.16c1,0,2.17,0,3.36,0,4,0,8.65-.2,12-.56A1.53,1.53,0,0,1,417.05,245.34Z"/><path class="cls-4" d="M233,329.66a2.35,2.35,0,0,1-2.09,1.42,2.83,2.83,0,0,1-1.54-.52,2,2,0,0,1-1.07-1.85,3.24,3.24,0,0,1,.48-1.62,73,73,0,0,0,6.47-14.38c-1.1,0-2.33,0-3.55,0h-1.58c-1.23,0-1.9-.87-1.9-2.21a2,2,0,0,1,2-2.22h2.61c1.26,0,2.52,0,3.71,0,.47-1.74.83-3.47,1.14-5.17a2,2,0,0,1,2.14-1.74,2.93,2.93,0,0,1,.59,0c1.22.24,1.94.83,1.94,1.94a4,4,0,0,1-.08.63c-.24,1.14-.56,2.53-.91,3.95,1.58-.12,3-.24,4.38-.44a1.36,1.36,0,0,1,.4,0c1.1,0,1.74.71,1.93,1.9v.32a2,2,0,0,1-1.85,2.13c-1.86.32-4,.47-6.09.63A89.44,89.44,0,0,1,233,329.66Zm22.44.51c0,4.15-2.49,6.75-8.73,6.75-5.33,0-8.77-2.76-8.77-6.91s3.56-7.11,8.77-7.11a17.3,17.3,0,0,1,4.11.47,62.58,62.58,0,0,1-.36-6.36c0-1.46,1-2.05,2.22-2.05s2.25.63,2.25,2.05a71.41,71.41,0,0,0,.43,7.71,26.57,26.57,0,0,1,7,4.82,2.29,2.29,0,0,1,.75,1.66,2.46,2.46,0,0,1-.6,1.58,2.16,2.16,0,0,1-1.62.87,2.26,2.26,0,0,1-1.5-.68,23,23,0,0,0-3.91-3.2Zm-8.61-3.36c-2.73,0-4.46,1.23-4.46,3.12s1.62,2.85,4.3,2.85c3,0,4.47-1,4.47-3.56,0-.47,0-.91,0-1.5A10,10,0,0,0,246.78,326.81Zm15-15.72a2.21,2.21,0,0,1,1,1.85,2.59,2.59,0,0,1-.44,1.39,2.18,2.18,0,0,1-1.81,1,2.76,2.76,0,0,1-1.42-.43,44.3,44.3,0,0,0-7.63-4.11,1.85,1.85,0,0,1-1.07-1.74,2.28,2.28,0,0,1,.4-1.3,2.34,2.34,0,0,1,1.93-1.11,3.32,3.32,0,0,1,1.07.2A39.25,39.25,0,0,1,261.79,311.09Z"/><path class="cls-4" d="M282.06,317.25a20,20,0,0,1,7.43-1.58c7.3,0,11.57,4,11.57,9.48,0,6.88-6,11.38-16,11.38-6.2,0-10.19-2.53-10.19-6.52,0-3.44,3-5.85,7.11-5.85a8.23,8.23,0,0,1,8.61,7.19c3.32-.9,5.57-3,5.57-6.08,0-3.28-2.76-5.89-8-5.89-5,0-9.87,1.82-15.8,5.53a2.89,2.89,0,0,1-1.38.4,2.45,2.45,0,0,1-2-1.07,2.36,2.36,0,0,1-.39-1.34,2.25,2.25,0,0,1,1.14-2,164.84,164.84,0,0,0,18.81-13.36c-3.83.32-9.21.56-13.39.56A2,2,0,0,1,273,306c0-1.38.67-2.33,2-2.33h1.18c5.18,0,11.26-.24,15.84-.63a2.28,2.28,0,0,1,.52,0,2.78,2.78,0,0,1,3,2.8,3.13,3.13,0,0,1-1,2.26,79.76,79.76,0,0,1-9.12,7,34.62,34.62,0,0,1-3.4,2Zm-.32,10.59c-1.7,0-2.68.83-2.68,1.93,0,1.7,1.81,2.81,5.69,2.81.63,0,1.14,0,1.62-.08C286.05,329.46,284,327.84,281.74,327.84Z"/><path class="cls-4" d="M312.52,334.36a2.36,2.36,0,0,1-2.13,1.46,3.33,3.33,0,0,1-1.35-.32,2.23,2.23,0,0,1-1.3-2.05,3.08,3.08,0,0,1,.35-1.35,111.83,111.83,0,0,0,7-19.59c-1.54,0-3.36.12-4.86.12h-1a1.87,1.87,0,0,1-1.9-2.17v-.12a1.92,1.92,0,0,1,2.06-2.14c1.93,0,4.46,0,6.67-.15.36-1.58.68-3.2.95-4.82a1.93,1.93,0,0,1,2.17-1.66,2.46,2.46,0,0,1,.52,0c1.3.16,2.05.91,2.05,1.85a1.11,1.11,0,0,1,0,.36c-.23,1.26-.47,2.57-.75,3.87,2.18-.2,4.27-.47,6.13-.79a2.5,2.5,0,0,1,.55,0c1,0,1.7.55,2,1.78a3,3,0,0,1,.08.59,1.91,1.91,0,0,1-1.54,2c-2.53.43-5.37.79-8.29,1A124.6,124.6,0,0,1,312.52,334.36Zm13.83-9.52a1.67,1.67,0,0,1-.36,1,4.21,4.21,0,0,0-1.11,2.77,2.49,2.49,0,0,0,1.66,2.41,12.42,12.42,0,0,0,4.66.63,40.26,40.26,0,0,0,7.83-.75,4.2,4.2,0,0,1,.67-.08,2,2,0,0,1,2.13,1.78,2.74,2.74,0,0,1,0,.55,2.29,2.29,0,0,1-1.94,2.33,39.87,39.87,0,0,1-8.49.79,19,19,0,0,1-7.11-1.14,5.87,5.87,0,0,1-3.95-6,8.6,8.6,0,0,1,2.13-5.41,2.31,2.31,0,0,1,1.66-.79,2.37,2.37,0,0,1,1.15.32A1.84,1.84,0,0,1,326.35,324.84Zm11.93-11.66a2.21,2.21,0,0,1,2.09,2.41,2,2,0,0,1-2.05,2.25h-.16c-1,0-2.25,0-3.36,0a57.07,57.07,0,0,0-8.73.75,1.5,1.5,0,0,1-.4,0,2.12,2.12,0,0,1-2.13-2.13,1.33,1.33,0,0,1,0-.39,2,2,0,0,1,1.7-2.14,71.25,71.25,0,0,1,9.76-.87C336,313.06,337.13,313.1,338.28,313.18Z"/><path class="cls-4" d="M353.84,333.41c-3.95,0-7-3-7-8.65a15.51,15.51,0,0,1,6.44-12.49c-.47-2.09-.83-4.26-1.11-6.44a1.26,1.26,0,0,1,0-.39,2,2,0,0,1,1.78-2.13,2,2,0,0,1,.48,0,1.83,1.83,0,0,1,2,1.77c.2,1.58.48,3.32.75,5a19.87,19.87,0,0,1,8.77-2c.28-1.39.52-2.73.71-4s.83-2,2-2a2.93,2.93,0,0,1,.59,0c1.3.2,2,.91,2,2a2.24,2.24,0,0,1,0,.51,39.5,39.5,0,0,1-.71,3.91,14.1,14.1,0,0,1,5.53,2.21c3.39,2.25,5.45,5.89,5.45,10.83,0,8-6,13.55-15.21,14.77a2.28,2.28,0,0,1-.52,0,2.23,2.23,0,0,1-2.33-1.82,2.5,2.5,0,0,1,0-.55,2.1,2.1,0,0,1,2-2.17c7-1,11.38-4.86,11.38-10.23a9.12,9.12,0,0,0-3.28-7.31,9.3,9.3,0,0,0-3.91-1.7c-.44,1.7-.87,3.36-1.42,4.9a47.79,47.79,0,0,1-4,8.57c.28.4.56.79.83,1.19a2.12,2.12,0,0,1,.4,1.22,2.79,2.79,0,0,1-.79,1.86,2.3,2.3,0,0,1-1.7.75,1.41,1.41,0,0,1-1-.4,6.94,6.94,0,0,1-.67-.83A9.18,9.18,0,0,1,353.84,333.41Zm.63-16.4a10.29,10.29,0,0,0-3.39,7.47c0,2.65,1.3,4.42,2.92,4.42,1.27,0,2.85-.63,4.35-2.6A37,37,0,0,1,354.47,317Zm9.41-.87c.43-1.3.79-2.64,1.14-4.06a14.42,14.42,0,0,0-6.91,1.89,34.71,34.71,0,0,0,3,8.46A33.82,33.82,0,0,0,363.88,316.14Z"/><path class="cls-4" d="M403.22,325.27c-1.3,3.56-2.56,5.37-4.06,6.56a7.35,7.35,0,0,1-4.67,1.54c-4.26,0-8.06-3.87-8.06-11.58,0-9.87,7.08-17.34,18.22-17.34,9.83,0,16.23,6.44,16.23,15.53,0,5.69-2.41,10-6.48,12.76a19.41,19.41,0,0,1-8.49,3,2.55,2.55,0,0,1-.55,0,2.11,2.11,0,0,1-2.33-1.9,2.74,2.74,0,0,1,0-.55,2.17,2.17,0,0,1,1.93-2.29,16.55,16.55,0,0,0,7.27-2.69,10.44,10.44,0,0,0,3.87-8.57c0-6.16-3.87-10.75-9.79-11.06A60.21,60.21,0,0,1,403.22,325.27ZM391,321.71c0,4.71,1.66,6.72,3.43,6.72a3.16,3.16,0,0,0,2.22-.95,11,11,0,0,0,2.29-4.34,55.34,55.34,0,0,0,2.57-14.26C395.4,309.51,391,314.72,391,321.71Z"/><path class="cls-4" d="M198.35,374.22c-2.26.12-4.9.2-7,.2a2,2,0,0,1-2-2.17c0-1.34.63-2.29,1.93-2.29,2,0,4.63-.08,7-.24v-5.14c0-1.26.86-1.93,2.21-1.93s2.25.67,2.25,1.93v4.82c2.13-.19,4.23-.43,6-.75a2,2,0,0,1,.48,0,1.89,1.89,0,0,1,2,1.82,2.79,2.79,0,0,1,0,.55,1.9,1.9,0,0,1-1.77,2c-2,.35-4.31.63-6.68.87v5.45a30.67,30.67,0,0,1,7.66-1.07c7.35,0,11.66,3.64,11.66,9.52s-3.68,9.41-8.85,9.41a9.21,9.21,0,0,1-7.15-3.08,2.44,2.44,0,0,1-.63-1.58,2.3,2.3,0,0,1,.83-1.7,2.52,2.52,0,0,1,1.65-.72,2.09,2.09,0,0,1,1.55.72,5,5,0,0,0,3.67,1.73c2.21,0,4.15-1.77,4.15-4.74,0-3.35-2.37-5.53-7.15-5.53a22,22,0,0,0-7.39,1.31v8.25c0,3.64-1.94,5.57-5.25,5.57a9.17,9.17,0,0,1-5.14-1.77c-2-1.35-3.44-3.16-3.44-5.65a6.43,6.43,0,0,1,1.31-3.68,18.92,18.92,0,0,1,8.06-5.69Zm0,10.95a11,11,0,0,0-4.27,3.16,2.81,2.81,0,0,0-.63,1.74,2.65,2.65,0,0,0,1.34,2.05,4.34,4.34,0,0,0,2.21.71c1,0,1.35-.47,1.35-1.89Zm25-12.8a2.59,2.59,0,0,1,.55,1.58,2.32,2.32,0,0,1-.67,1.66,2.49,2.49,0,0,1-1.7.67,2.18,2.18,0,0,1-1.62-.75,37.34,37.34,0,0,0-6.55-6,1.86,1.86,0,0,1-.79-1.58,2.35,2.35,0,0,1,2.33-2.29,2.43,2.43,0,0,1,1.34.44A33.55,33.55,0,0,1,223.39,372.37Z"/><path class="cls-4" d="M238,376.79c-1,0-1.54-.71-1.54-1.85a2.54,2.54,0,0,1,.16-1A37.54,37.54,0,0,1,230,377.5a2.91,2.91,0,0,1-1,.2,2,2,0,0,1-2-1.5,3.11,3.11,0,0,1-.2-1,2,2,0,0,1,1.34-1.93,40.88,40.88,0,0,0,14.26-10,4.05,4.05,0,0,1,3-1.18,4.2,4.2,0,0,1,3,1.18,42.1,42.1,0,0,0,14.58,10,2.14,2.14,0,0,1,1.38,2,2.78,2.78,0,0,1-.24,1.11,2.15,2.15,0,0,1-2,1.42,2.55,2.55,0,0,1-1.15-.28,48.06,48.06,0,0,1-6.4-3.51,2.54,2.54,0,0,1,.16,1c0,1.14-.59,1.85-1.58,1.85h-5.69v3.95h13.19c1,0,1.55.79,1.55,2s-.56,2-1.55,2H247.57v9H262c1,0,1.58.83,1.58,2s-.55,2-1.58,2H229.32c-1,0-1.58-.79-1.58-2s.55-2,1.58-2h13.86v-9H230.5c-1,0-1.54-.79-1.54-2s.56-2,1.54-2h12.68v-3.95Zm-2.45,8.69a2,2,0,0,1,1.66.83,21.15,21.15,0,0,1,2.09,3.95,1.56,1.56,0,0,1,.16.71c0,.76-.55,1.31-1.38,1.7a2.93,2.93,0,0,1-1.11.24,1.84,1.84,0,0,1-1.77-1.11c-.56-1.14-1.27-2.52-2-3.67a1.26,1.26,0,0,1-.24-.71,1.93,1.93,0,0,1,1.31-1.66A3,3,0,0,1,235.52,385.48ZM253.18,373a41.08,41.08,0,0,1-7-6c-.24-.24-.44-.4-.63-.4s-.4.16-.68.4a40,40,0,0,1-6.79,6Zm4.9,14.42a1.53,1.53,0,0,1-.16.71,20.48,20.48,0,0,1-2.37,4.15,2,2,0,0,1-1.62.95,2.91,2.91,0,0,1-1.3-.36,1.93,1.93,0,0,1-1.07-1.7,1.74,1.74,0,0,1,.32-1,23.11,23.11,0,0,0,2.17-3.71,1.61,1.61,0,0,1,1.54-1,2.93,2.93,0,0,1,1.11.24A1.91,1.91,0,0,1,258.08,387.38Z"/><path class="cls-4" d="M284.71,386.47c-1.31,3.56-2.57,5.37-4.07,6.56a7.29,7.29,0,0,1-4.66,1.54c-4.27,0-8.06-3.87-8.06-11.58,0-9.87,7.07-17.34,18.21-17.34,9.83,0,16.23,6.44,16.23,15.53,0,5.69-2.41,10-6.47,12.76a19.45,19.45,0,0,1-8.5,3,2.55,2.55,0,0,1-.55,0,2.12,2.12,0,0,1-2.33-1.9,2.74,2.74,0,0,1,0-.55,2.17,2.17,0,0,1,1.93-2.29,16.55,16.55,0,0,0,7.27-2.69,10.45,10.45,0,0,0,3.88-8.57c0-6.16-3.88-10.75-9.8-11.06A60.62,60.62,0,0,1,284.71,386.47Zm-12.21-3.55c0,4.7,1.66,6.71,3.44,6.71a3.16,3.16,0,0,0,2.21-.95,11,11,0,0,0,2.29-4.34A55.34,55.34,0,0,0,283,370.08C276.88,370.71,272.5,375.92,272.5,382.92Z"/><path class="cls-4" d="M314.14,365.45c0-1.3.95-2.05,2.41-2.05s2.49.75,2.49,2.05v5.65h11.45v-5.65c0-1.3.91-2.05,2.37-2.05s2.49.75,2.49,2.05v5.65h5.22c1.3,0,2,.87,2,2.22s-.67,2.29-2,2.29h-5.22v3.47c0,5-.91,8.85-3.08,11.86-2.29,3.27-6.64,6-11.73,6.87a5.49,5.49,0,0,1-.75.08,2.07,2.07,0,0,1-2.17-1.78,3.4,3.4,0,0,1-.08-.63,2.09,2.09,0,0,1,1.89-2.17,14.7,14.7,0,0,0,8.85-5.1c1.5-2.06,2.21-5.1,2.21-9.8v-2.8H319v8.85c0,1.3-1,2-2.49,2s-2.41-.71-2.41-2v-8.85h-5.41c-1.31,0-2-.95-2-2.29s.67-2.18,2-2.18h5.37Z"/><path class="cls-4" d="M368.7,395.79c0,1.35-1.07,2-2.53,2s-2.57-.59-2.57-2.1V379.2a65.84,65.84,0,0,1-12.84,5.85,3.78,3.78,0,0,1-1.11.2,2.18,2.18,0,0,1-2.17-1.51,2.58,2.58,0,0,1-.16-.94,2.3,2.3,0,0,1,1.7-2.29,62.39,62.39,0,0,0,14.7-7,47.51,47.51,0,0,0,10.35-8.77,2.51,2.51,0,0,1,1.94-.91,2.79,2.79,0,0,1,1.65.6,2.22,2.22,0,0,1,1.07,1.81,2.41,2.41,0,0,1-.63,1.55,50.89,50.89,0,0,1-9.4,8.21Z"/><path class="cls-4" d="M400.46,372.8a28.77,28.77,0,0,1-8.61,8.89,2.76,2.76,0,0,1-1.58.51,2.55,2.55,0,0,1-2-1.06,2.58,2.58,0,0,1-.43-1.42,2.52,2.52,0,0,1,1.1-2.1A23,23,0,0,0,394.1,373a31.42,31.42,0,0,0,4.7-8.06,2.21,2.21,0,0,1,2.17-1.62,4.33,4.33,0,0,1,.95.12c1.26.32,1.86,1.11,1.86,2a1.87,1.87,0,0,1-.12.68,10.52,10.52,0,0,1-1,2.29l11.14-.2c3.24,0,4.9,1.74,4.9,4.58a9.2,9.2,0,0,1-.2,1.74c-2.33,11.3-10,20.35-23.58,23.43a4.29,4.29,0,0,1-.71.08,2.24,2.24,0,0,1-2.25-1.62,3.61,3.61,0,0,1-.12-.91,2.18,2.18,0,0,1,1.85-2.21c10.87-2.77,17.39-9.37,19.48-18.93a3.74,3.74,0,0,0,.08-.63c0-.75-.4-1.07-1.5-1.07Z"/><path class="cls-4" d="M432.46,366.4a2.22,2.22,0,0,1,2.49-2.21,2.25,2.25,0,0,1,2.53,2.29v8.34c0,6.67-.75,11.18-2.1,14.49a19.38,19.38,0,0,1-5.25,7.39,3.18,3.18,0,0,1-2.1.87,2.57,2.57,0,0,1-1.93-.87,2.41,2.41,0,0,1-.63-1.7,2.56,2.56,0,0,1,1-2.05,14.44,14.44,0,0,0,4.31-5.73c1.15-2.8,1.7-6.52,1.7-12.6Zm10.94-.27c0-1.35.91-2.18,2.49-2.18a2.22,2.22,0,0,1,2.45,2.18l-.16,24.09c0,.52.2.79.63.79a1.83,1.83,0,0,0,.83-.23,17,17,0,0,0,7.31-8.14,2.06,2.06,0,0,1,1.94-1.34,3.07,3.07,0,0,1,1.26.31,2.17,2.17,0,0,1,1.38,1.94,2.5,2.5,0,0,1-.27,1.14c-2.53,5.69-7.31,10.31-11.81,11.74a8.31,8.31,0,0,1-2.06.31,4.88,4.88,0,0,1-2.41-.55c-1.1-.71-1.74-1.78-1.74-3.91v-.2Z"/><circle class="cls-5" cx="482.51" cy="519.75" r="100"/><path class="cls-2" d="M454.45,467.85a43.39,43.39,0,0,1,.4-5.28,23.87,23.87,0,0,1-1.76,2.91,2.08,2.08,0,0,1-1.63,1,2.13,2.13,0,0,1-1.32-.53,1.69,1.69,0,0,1-.8-1.37,2.44,2.44,0,0,1,.58-1.45,43.7,43.7,0,0,0,7.7-16.72,1.64,1.64,0,0,1,1.8-1.36,3.75,3.75,0,0,1,.71.08,1.65,1.65,0,0,1,1.49,1.63,2,2,0,0,1-.09.53,59.91,59.91,0,0,1-3.12,8.8v28.52c0,1-.75,1.45-2,1.45s-2-.48-2-1.45ZM474,449.64v-3.22c0-1,.71-1.49,1.85-1.49s1.94.53,1.94,1.49v3.22h11.92c1,0,1.45.74,1.45,1.8s-.48,1.8-1.45,1.8h-12v3.53h7c2.82,0,4.18.92,4.18,3.69v5.85c0,2.78-1.36,3.7-4.18,3.7h-7.92a18.91,18.91,0,0,1-2.46,7c4.18,2.59,9.2,4.05,15.27,4.57a1.66,1.66,0,0,1,1.58,1.81,2.3,2.3,0,0,1-2,2.33H489a37.83,37.83,0,0,1-16.9-5.76,24.8,24.8,0,0,1-9.11,5.67,2.19,2.19,0,0,1-.92.18,2,2,0,0,1-1.76-1.23,2.13,2.13,0,0,1-.18-.88,1.76,1.76,0,0,1,1.32-1.72,21.41,21.41,0,0,0,7.61-4.31,31.15,31.15,0,0,1-3.56-3.61,1.73,1.73,0,0,1-.4-1.06,1.63,1.63,0,0,1,.88-1.4,2,2,0,0,1,1.19-.45,1.65,1.65,0,0,1,1.28.66,20.68,20.68,0,0,0,3,3,13.56,13.56,0,0,0,1.72-4.8h-6.43c-2.73,0-4-.92-4-3.7v-5.85c0-2.77,1.27-3.69,4-3.69H474c0-1.19,0-2.34,0-3.53H463.34c-1,0-1.5-.7-1.5-1.8s.49-1.8,1.5-1.8Zm-6.25,10.6c-.88,0-1.23.22-1.23,1.15v4c0,1,.35,1.14,1.23,1.14h5.81c.18-2.11.27-4.18.31-6.29Zm9.9,0c0,2.11-.13,4.23-.35,6.29h6.6c.88,0,1.28-.17,1.28-1.14v-4c0-.93-.4-1.15-1.28-1.15Z"/><path class="cls-2" d="M507.92,482.14a20.51,20.51,0,0,1-6.87,2.12.75.75,0,0,1-.21,0,1,1,0,0,1-1-.86,1,1,0,0,1,0-.24,1,1,0,0,1,.86-1,19.86,19.86,0,0,0,6.41-1.94c2.33-1.32,3.41-3.15,3.41-5.23s-1.28-3.34-4.68-3.34a32.94,32.94,0,0,0-8.69,1.58,1.49,1.49,0,0,1-.36.05,1,1,0,0,1-.94-.72,2.23,2.23,0,0,1-.05-.36,1,1,0,0,1,.75-1,35.06,35.06,0,0,1,9.24-1.51c4.58,0,6.81,2.16,6.81,5.18S511,480.42,507.92,482.14Zm-9.6-17.2a2,2,0,0,1,0-.32,1,1,0,0,1,1-.79h.19a63,63,0,0,0,10.16,1.27,1,1,0,0,1,1,1.06v0a.92.92,0,0,1-1,.91h-.07a60.68,60.68,0,0,1-10.51-1.27A.9.9,0,0,1,498.32,464.94Z"/><path class="cls-2" d="M472.72,529.66a1.77,1.77,0,1,0-1.77,1.77A1.77,1.77,0,0,0,472.72,529.66Z"/><path class="cls-2" d="M504.59,527.89a1.77,1.77,0,1,0,1.77,1.77A1.77,1.77,0,0,0,504.59,527.89Z"/><path class="cls-2" d="M467.58,534a3.77,3.77,0,0,0-4.77,2.41l-6.94,14.9h-4.43V524.72l-4.28,2.85A4.84,4.84,0,0,0,445.3,530l-4.57,18.35a9.5,9.5,0,0,0,.51,7.48l7.56,14.88a7.91,7.91,0,0,1,.55,5.81l-3.26,11.19h17.12s3.08-18.41,4.3-23.55c1.68-7,2.2-11,.57-17l1.93-8.39A3.77,3.77,0,0,0,467.58,534Z"/><path class="cls-2" d="M454.87,512.18v33.93l4.2-9-.09,0V522.22a6.69,6.69,0,0,0,5.55-5.93h17.08c-3.85,2.62-6.46,7.62-6.46,13.37s2.61,10.75,6.46,13.37h-9.43l-.94,4.11h49.43v-35Zm34.45,25.12h-3.1v-3.72h-5v-2.7h5v-1.81l-.49-.75h-4.51v-2.73H484L481.69,522h3l3.1,4.82,3.1-4.82h3l-2.28,3.56h2.75v2.73h-4.51l-.49.75v1.81h5v2.7h-5v3.72Zm27.24-.21A6.71,6.71,0,0,0,511,543H493.92c3.86-2.62,6.47-7.62,6.47-13.37s-2.61-10.75-6.47-13.37H511a6.69,6.69,0,0,0,5.56,5.93Z"/><circle class="cls-6" cx="171.81" cy="519.75" r="100"/><path class="cls-2" d="M185.56,513h0v0H179a7,7,0,0,1,.25,1.83,5.85,5.85,0,0,1,0,.73c.53.51,1.07,1.05,1.6,1.64h4.78l-1.78-2.09,1.08-1.28Z"/><path class="cls-2" d="M177.86,515.9h0a4.45,4.45,0,0,0,.1-.48,4.55,4.55,0,0,0,0-.53,3.88,3.88,0,0,0-1.22-2.84h0l1.09-2a2.07,2.07,0,0,0-1.1-2.94,14.39,14.39,0,0,0-9.39,0,2,2,0,0,0-1.22,1.19,2.06,2.06,0,0,0,.12,1.75l1.1,2h0a3.9,3.9,0,0,0-1.1,3.84h0c-3.28,3-6.79,8-7.27,12a11,11,0,0,0,2.58,8.81,10.71,10.71,0,0,0,2.66,2.18h0a17.62,17.62,0,0,0,3.6,1.54h0l2.2.34,2.15,0c5.6,0,8.73-2.23,10.37-4.09a11.09,11.09,0,0,0,2.59-8.81C184.64,523.88,181.13,518.87,177.86,515.9Zm-8.61-1.55a.6.6,0,0,1,.52-.3h4.57l.14,0a.61.61,0,0,1,.38.27.87.87,0,0,1,.16.54V515a.81.81,0,0,1-.31.58.56.56,0,0,1-.37.13h-4.57a.77.77,0,0,1-.69-.82A.84.84,0,0,1,169.25,514.35Zm-.91,3.64h0a3,3,0,0,0,1.42.35h4.57a3.19,3.19,0,0,0,1.42-.34h0c2.64,2.36,6,6.92,6.43,10.25.6,4.88-2.52,9.58-10.14,9.58s-10.74-4.7-10.14-9.58C162.33,524.91,165.71,520.36,168.34,518Zm7.34-8.83h0l-1.22,2.25-.23.43h-4.38l-.22-.43-1.06-1.95-.16-.3s0,0,0,0a12.16,12.16,0,0,1,7-.07Z"/><polygon class="cls-2" points="167.83 523.54 167.84 523.54 167.83 523.54 167.83 523.55 167.82 523.55 170.62 527.2 170.65 527.24 170.66 527.27 168.28 527.27 168.28 528.24 168.28 528.25 168.28 528.25 168.28 528.26 171.29 528.26 171.29 529.37 168.28 529.37 168.28 530.35 168.28 530.35 168.28 530.35 168.28 530.37 171.29 530.37 171.29 532.92 172.82 532.92 172.82 530.37 175.84 530.37 175.84 529.37 172.82 529.37 172.82 528.26 175.84 528.26 175.84 527.27 174.3 527.26 173.45 527.25 173.49 527.2 176.04 523.88 176.28 523.56 176.28 523.56 176.28 523.56 176.28 523.56 176.28 523.55 174.32 523.55 172.17 526.34 172.07 526.48 172.05 526.5 169.79 523.55 168.15 523.54 167.83 523.54"/><path class="cls-2" d="M166.85,544.86h0l0,0h-9.64a10,10,0,0,1,.37,2.67c0,.37,0,.72-.05,1.06.77.75,1.55,1.55,2.34,2.41h7l-2.61-3.06,1.58-1.86Z"/><path class="cls-2" d="M155.59,549.1h0a4.25,4.25,0,0,0,.14-.71,4.9,4.9,0,0,0,.06-.77,5.62,5.62,0,0,0-1.79-4.14v0l1.59-2.93a3,3,0,0,0-1.6-4.28,21,21,0,0,0-13.73,0,2.88,2.88,0,0,0-1.78,1.73,3,3,0,0,0,.18,2.55l1.6,2.94v0a5.59,5.59,0,0,0-1.61,5.6h0c-4.79,4.36-9.92,11.7-10.63,17.52a16.17,16.17,0,0,0,3.78,12.87,15.65,15.65,0,0,0,3.88,3.18h0a25.7,25.7,0,0,0,5.26,2.25c6.48.79,0,0,0,0l3.2.5,3.16.05c8.17-.05,12.74-3.27,15.14-6a16.15,16.15,0,0,0,3.78-12.87C165.49,560.76,160.36,553.44,155.59,549.1ZM143,546.83a.9.9,0,0,1,.77-.43h6.67l.21,0a1,1,0,0,1,.55.39,1.32,1.32,0,0,1,.24.79,1,1,0,0,1,0,.17,1.23,1.23,0,0,1-.45.85.89.89,0,0,1-.54.19h-6.67a1.13,1.13,0,0,1-1-1.21A1.3,1.3,0,0,1,143,546.83Zm-1.32,5.33h0a4.41,4.41,0,0,0,2.08.5h6.67a4.67,4.67,0,0,0,2.07-.49h0c3.86,3.45,8.79,10.11,9.39,15,.88,7.13-3.68,14-14.81,14s-15.7-6.87-14.82-14C132.9,562.27,137.84,555.62,141.69,552.16Zm10.73-12.9h0l-1.78,3.29-.33.62a0,0,0,0,1,0,0h-6.38s0,0,0,0l-.33-.62L142,539.71l-.23-.44s0,0,0,0a17.83,17.83,0,0,1,10.26-.09Z"/><polygon class="cls-2" points="140.94 560.26 140.95 560.27 140.94 560.27 140.94 560.28 140.93 560.28 145.02 565.61 145.06 565.67 145.08 565.72 141.59 565.72 141.59 567.14 141.59 567.14 141.59 567.14 141.59 567.16 145.99 567.16 145.99 568.78 141.59 568.78 141.59 570.21 141.59 570.22 141.59 570.22 141.59 570.24 145.99 570.24 145.99 573.98 148.23 573.98 148.23 570.24 152.63 570.24 152.63 568.78 148.23 568.78 148.23 567.16 152.63 567.16 152.63 565.72 150.4 565.71 149.15 565.69 149.21 565.61 152.93 560.76 153.29 560.3 153.28 560.3 153.29 560.3 153.28 560.3 153.29 560.28 150.42 560.28 147.28 564.36 147.13 564.56 147.1 564.59 143.8 560.28 141.41 560.27 140.94 560.26"/><path class="cls-2" d="M215.18,544.86h0l0,0h-9.64a10,10,0,0,1,.37,2.67,9.08,9.08,0,0,1,0,1.06c.77.75,1.55,1.55,2.34,2.41h7l-2.6-3.06,1.57-1.86Z"/><path class="cls-2" d="M203.92,549.1h0c.05-.21.1-.44.14-.71a6.49,6.49,0,0,0,.05-.77,5.65,5.65,0,0,0-1.78-4.14s0,0,0,0l1.58-2.93a3,3,0,0,0-1.6-4.28,21,21,0,0,0-13.73,0A2.88,2.88,0,0,0,186.8,538a3,3,0,0,0,.18,2.55l1.6,2.94v0a5.59,5.59,0,0,0-1.61,5.6h0c-4.79,4.36-9.92,11.7-10.62,17.52a16.17,16.17,0,0,0,3.77,12.87,15.84,15.84,0,0,0,3.88,3.18h0a25.43,25.43,0,0,0,5.26,2.25h0l3.21.5,3.15.05c8.18-.05,12.74-3.27,15.14-6a16.16,16.16,0,0,0,3.79-12.87C213.83,560.76,208.7,553.44,203.92,549.1Zm-12.57-2.27a.87.87,0,0,1,.76-.43h6.67l.21,0a1,1,0,0,1,.56.39,1.39,1.39,0,0,1,.23.79,1,1,0,0,1,0,.17,1.19,1.19,0,0,1-.45.85.89.89,0,0,1-.54.19h-6.67a1.13,1.13,0,0,1-1-1.21A1.23,1.23,0,0,1,191.35,546.83ZM190,552.16h0a4.41,4.41,0,0,0,2.08.5h6.67a4.6,4.6,0,0,0,2.07-.49h0c3.86,3.45,8.79,10.11,9.39,15,.89,7.13-3.68,14-14.81,14s-15.69-6.87-14.82-14C181.23,562.27,186.17,555.62,190,552.16Zm10.73-12.9s0,0,0,0L199,542.56l-.33.62s0,0,0,0h-6.38a0,0,0,0,1,0,0l-.33-.62-1.54-2.85-.24-.44v0a17.83,17.83,0,0,1,10.26-.09Z"/><polygon class="cls-2" points="189.28 560.26 189.28 560.27 189.27 560.27 189.28 560.28 189.26 560.28 193.35 565.61 193.4 565.67 193.41 565.72 189.92 565.72 189.92 567.14 189.92 567.14 189.92 567.14 189.92 567.16 194.32 567.16 194.32 568.78 189.92 568.78 189.92 570.21 189.92 570.22 189.92 570.22 189.92 570.24 194.32 570.24 194.32 573.98 196.56 573.98 196.56 570.24 200.97 570.24 200.97 568.78 196.56 568.78 196.56 567.16 200.97 567.16 200.97 565.72 198.73 565.71 197.48 565.69 197.54 565.61 201.27 560.76 201.62 560.3 201.62 560.3 201.62 560.3 201.61 560.3 201.62 560.28 198.75 560.28 195.62 564.36 195.46 564.56 195.43 564.59 192.13 560.28 189.75 560.27 189.28 560.26"/><path class="cls-2" d="M138.09,473.77c1.14-.49,2.2-1,3-1.37a1.78,1.78,0,0,1,.8-.17,1.62,1.62,0,0,1,1.49,1,2.66,2.66,0,0,1,.18.93,1.74,1.74,0,0,1-1,1.58,81.11,81.11,0,0,1-10.87,4.58,3.3,3.3,0,0,1-.8.13,1.62,1.62,0,0,1-1.58-1.28,2.65,2.65,0,0,1-.18-.92,1.58,1.58,0,0,1,1.19-1.63c1.19-.35,2.6-.84,4-1.36V460.65h-3.52c-.88,0-1.41-.7-1.41-1.8s.53-1.81,1.41-1.81h3.52v-9.77c0-1,.71-1.45,1.85-1.45s1.94.49,1.94,1.45V457h2.81c.93,0,1.32.75,1.32,1.81s-.39,1.8-1.32,1.8h-2.81Zm11.44-22.89c-.53-1-1.19-2-1.76-2.86a1.47,1.47,0,0,1-.22-.7,1.55,1.55,0,0,1,1.23-1.41,3.41,3.41,0,0,1,1.06-.18,1.62,1.62,0,0,1,1.49.84,36.33,36.33,0,0,1,2.25,4.31h5a29.23,29.23,0,0,0,2.37-4.05,1.62,1.62,0,0,1,1.59-1.05,3.31,3.31,0,0,1,1.05.17c.84.27,1.19.75,1.19,1.28a2,2,0,0,1-.22.79,23.69,23.69,0,0,1-1.85,2.86h2.73c2.68,0,3.78,1,3.78,3.57v9.24c0,2.42-1.1,3.34-3.78,3.34H146.93c-2.64,0-3.78-.92-3.78-3.34v-9.24c0-2.6,1.14-3.57,3.78-3.57Zm13.91,18.48c2.77,0,4,1,4,3.39v9.51c0,2.51-1.32,3.47-4.05,3.47h-14.3c-2.78,0-4.05-1-4.05-3.47v-9.51c0-2.42,1.14-3.39,3.91-3.39Zm-9.2-15.4h-6.38c-.79,0-1.1.18-1.1,1v2.47h7.48Zm-7.48,6.47v2.51c0,.84.31,1,1.1,1h6.38v-3.52Zm16.9,15.36v-2.16c0-.79-.4-1-1.15-1H149.79c-.79,0-1.1.17-1.1,1v2.16Zm-15,5.54c0,.8.31,1,1.1,1h12.72c.75,0,1.15-.22,1.15-1V479h-15Zm16.9-23.89V455c0-.83-.31-1-1.1-1H157.8v3.48ZM157.8,464h6.69c.79,0,1.1-.17,1.1-1v-2.51H157.8Z"/><path class="cls-2" d="M184.58,465.19a.39.39,0,0,1,0-.15.86.86,0,0,1,.94-.86h.07a.89.89,0,0,1,1,.86l.19,3a9.85,9.85,0,0,1,1.34-.1c3.94,0,5.95,2.26,5.95,5.33,0,3.39-2.32,5.48-5.68,5.48a8.64,8.64,0,0,1-4.13-.92,1,1,0,0,1-.58-.91,1,1,0,0,1,.1-.45,1,1,0,0,1,.86-.58,1.12,1.12,0,0,1,.46.12,7,7,0,0,0,3,.72c2.4,0,3.91-1.39,3.91-3.38s-1.39-3.58-4-3.58a22.3,22.3,0,0,0-5.5,1,21.59,21.59,0,0,0-2.35.84c1.27,4.11,2.38,8.38,3.29,12.58a2.23,2.23,0,0,1,.05.36.93.93,0,0,1-.77.91,1.2,1.2,0,0,1-.31,0,.94.94,0,0,1-1-.75c-.88-4.2-1.87-8.45-3.12-12.45-1.32.52-2.61,1.1-3.77,1.6a1,1,0,0,1-.48.1.9.9,0,0,1-.84-.6,1,1,0,0,1-.09-.43,1,1,0,0,1,.62-.94c1.23-.55,2.57-1.08,4-1.58-.41-1.28-.89-2.55-1.37-3.87a1.55,1.55,0,0,1,0-.31,1,1,0,0,1,.74-.86,1.52,1.52,0,0,1,.43-.07.88.88,0,0,1,.89.67c.46,1.25.89,2.52,1.27,3.79.79-.29,1.54-.53,2.26-.75a29.74,29.74,0,0,1,2.9-.71Z"/><path class="cls-2" d="M209.71,477a3.68,3.68,0,0,1-4,2.78,4,4,0,0,1-4.28-4.1c0-2.52,2-4.3,4.73-4.3a3.86,3.86,0,0,1,2.86,1.11c0-.87,0-2.09,0-3.22-3.53.07-7.21.22-10.69.43h-.09a.87.87,0,0,1-.89-.93v-.05a.85.85,0,0,1,.86-.91c3.39-.2,7.13-.32,10.78-.39,0-.84,0-1.68,0-2.4a.8.8,0,0,1,.91-.86c.7,0,1,.29,1,.91v2.33c1.29,0,2.57-.05,3.79-.05.86,0,1.73,0,2.54,0a.87.87,0,0,1,1,1v.08a.78.78,0,0,1-.89.84c-1.42,0-2.9,0-4.46,0-.65,0-1.3,0-2,0v5a7,7,0,0,1,.69,3.14,6.72,6.72,0,0,1-3.88,6.48,13.3,13.3,0,0,1-3.82,1.28.9.9,0,0,1-.24,0,.91.91,0,0,1-1-.79.89.89,0,0,1,0-.27.93.93,0,0,1,.77-1c4.3-.79,6.41-2.8,6.41-5.64V477Zm-3.41-4a2.67,2.67,0,0,0-2.88,2.59,2.36,2.36,0,0,0,2.62,2.45,2.72,2.72,0,0,0,2.83-2.88C208.87,473.87,207.84,473,206.3,473Z"/><circle class="cls-7" cx="326.04" cy="100" r="100"/><path class="cls-2" d="M303.57,41.37a22.83,22.83,0,0,0,4.1,6.34,2.31,2.31,0,0,1,.57,1.41,1.79,1.79,0,0,1-1.67,1.71,1.39,1.39,0,0,1-1.06-.48,17.86,17.86,0,0,1-2.73-5,51.55,51.55,0,0,1,.49,6.43V66.1c0,1-.62,1.5-1.85,1.5s-1.81-.53-1.81-1.5V54c0-2.34.4-5,.57-7.26a31.53,31.53,0,0,1-4,9.37,1.83,1.83,0,0,1-1.54.83,1.7,1.7,0,0,1-1.06-.39,1.72,1.72,0,0,1-.79-1.45,2.39,2.39,0,0,1,.57-1.5,34.19,34.19,0,0,0,5.81-12.19H294.9c-.88,0-1.4-.7-1.4-1.8s.52-1.72,1.4-1.72h4.71V32.57c-1.32.31-2.64.61-3.83.79a1,1,0,0,1-.39,0,1.63,1.63,0,0,1-1.67-1.54,1.13,1.13,0,0,1-.05-.4,1.58,1.58,0,0,1,1.41-1.63,38.14,38.14,0,0,0,9.95-2.9,2,2,0,0,1,1-.27,1.86,1.86,0,0,1,1.63,1,2.08,2.08,0,0,1,.22.88,1.82,1.82,0,0,1-1.19,1.68c-1,.44-2.16.88-3.43,1.32v6.29h2.9c.92,0,1.41.66,1.41,1.72s-.49,1.8-1.41,1.8Zm17.91-.84a25.85,25.85,0,0,1-2.86,2.56c4.05,4.49,5.46,10.25,5.46,16.32,0,5.81-1.41,7.88-5.59,7.88a16.79,16.79,0,0,1-3.78-.4,1.62,1.62,0,0,1-1.15-1.67,1,1,0,0,1,.05-.39,1.54,1.54,0,0,1,1.49-1.41.83.83,0,0,1,.31,0,13,13,0,0,0,2.73.35c1.8,0,2.42-.83,2.42-4.79a17.26,17.26,0,0,0-.09-2.16,37.43,37.43,0,0,1-12.5,7.7,2.1,2.1,0,0,1-.88.18,1.6,1.6,0,0,1-1.58-1.15,1.92,1.92,0,0,1-.18-.83,1.78,1.78,0,0,1,1.06-1.63A38.59,38.59,0,0,0,319.94,53a21.2,21.2,0,0,0-.83-2.82,39.3,39.3,0,0,1-10.17,5.55,1.48,1.48,0,0,1-.61.13,1.69,1.69,0,0,1-1.59-1.28,2.71,2.71,0,0,1-.09-.61,1.68,1.68,0,0,1,1.06-1.59,35,35,0,0,0,10-5.1A19.67,19.67,0,0,0,316,44.93a27.41,27.41,0,0,1-5.64,2.73,1.3,1.3,0,0,1-.57.14,1.61,1.61,0,0,1-1.49-1.1,2.45,2.45,0,0,1-.14-.75,1.42,1.42,0,0,1,1-1.41,20.62,20.62,0,0,0,7.61-4h-4.09c-.88,0-1.28-.66-1.28-1.58s.4-1.58,1.28-1.58H329c.83,0,1.27.66,1.27,1.58s-.44,1.58-1.27,1.58h-2.86a42.54,42.54,0,0,0,1.23,6.69,22,22,0,0,0,3.48-3.83,1.51,1.51,0,0,1,1.27-.7,2,2,0,0,1,1.23.44,1.66,1.66,0,0,1,.66,1.32,2,2,0,0,1-.48,1.23,35.5,35.5,0,0,1-5,5,38.9,38.9,0,0,0,6.12,10.17,2,2,0,0,1,.44,1.23,1.79,1.79,0,0,1-.7,1.45,2.26,2.26,0,0,1-1.37.53,1.78,1.78,0,0,1-1.41-.75c-4.66-5.68-7.7-13.42-8.8-22.8Zm-3-12.8c0-.84.71-1.32,1.94-1.32s1.93.48,1.93,1.32V30.9H330c2.69,0,3.87.92,3.87,3.43v3c0,1-.66,1.41-1.84,1.41s-1.94-.44-1.94-1.28V35.12c0-.79-.27-1-1.1-1h-16.2c-.83,0-1.18.22-1.18,1v2.25c0,.83-.62,1.27-1.76,1.27s-1.9-.44-1.9-1.45V34.33c0-2.51,1.19-3.43,3.88-3.43h6.64Z"/><path class="cls-2" d="M352.94,46.24a1.11,1.11,0,0,1-.38.82,66.79,66.79,0,0,1-9.24,7.12c-.56.36-.68.6-.68.94s.2.55.84,1a79.68,79.68,0,0,1,9.92,7.66,1.25,1.25,0,0,1,.43.93,1.24,1.24,0,0,1-.29.8,1.05,1.05,0,0,1-.82.4,1.18,1.18,0,0,1-.83-.38A79.76,79.76,0,0,0,341.8,57.4a2.55,2.55,0,0,1-1.46-2.26,2.74,2.74,0,0,1,1.56-2.4,63.84,63.84,0,0,0,9.1-7.17,1.15,1.15,0,0,1,.79-.34,1.35,1.35,0,0,1,.79.29A.92.92,0,0,1,352.94,46.24ZM352.29,50a1,1,0,0,1,.63.27,24.78,24.78,0,0,1,1.92,2.35.94.94,0,0,1,.17.55.78.78,0,0,1-.32.65,1,1,0,0,1-.57.19.86.86,0,0,1-.68-.33,23.27,23.27,0,0,0-1.82-2.33.77.77,0,0,1-.19-.48.81.81,0,0,1,.34-.67A.87.87,0,0,1,352.29,50Zm2.45-1.44a1,1,0,0,1,.67.27,15.71,15.71,0,0,1,1.8,2.25.91.91,0,0,1,.2.56.82.82,0,0,1-.34.64,1,1,0,0,1-.53.17.86.86,0,0,1-.69-.38,15.9,15.9,0,0,0-1.73-2.19.79.79,0,0,1-.22-.52.73.73,0,0,1,.36-.65A.83.83,0,0,1,354.74,48.54Z"/><path class="cls-8" d="M594.67,122.15Q538.3,37.52,458.17,29.76"/><polygon class="cls-9" points="598.53 109.2 595.98 108.82 594.09 121.36 581.71 118.55 581.15 121.06 596.22 124.48 598.53 109.2"/><path class="cls-8" d="M185.46,38Q86.79,62.69,52.56,135.55"/><polygon class="cls-9" points="174.56 30.05 173.34 32.32 184.51 38.32 177.71 49.03 179.88 50.41 188.17 37.37 174.56 30.05"/><path class="cls-8" d="M579.41,433.05q31.92-21.33,31.9-62.58"/><polygon class="cls-9" points="592.38 436.65 592.73 434.1 580.16 432.39 582.78 419.98 580.26 419.45 577.07 434.57 592.38 436.65"/><path class="cls-8" d="M48,372.89q.66,37.19,34.28,58.82"/><polygon class="cls-9" points="37.98 381.85 39.94 383.52 48.18 373.88 57.2 382.8 59.01 380.96 48.02 370.1 37.98 381.85"/><line class="cls-10" x1="294.02" y1="519.75" x2="363.09" y2="519.75"/><polygon class="cls-9" points="302.55 530.27 304.3 528.38 295.01 519.75 304.3 511.11 302.55 509.23 291.23 519.75 302.55 530.27"/><path class="cls-2" d="M360.92,103,345.77,83.49a.5.5,0,0,0-.7-.09l-2.93,2.28,4.63,6a4.21,4.21,0,0,0,.9-.54l4,5.15,2.34,3h0a3.67,3.67,0,0,0-.93,1,4.42,4.42,0,0,0-.57,4,5,5,0,0,0,.7,1.33l-10,7.75,5.23,0,12.41-9.64A.5.5,0,0,0,360.92,103Z"/><polygon class="cls-2" points="328.55 103.42 328.55 103.42 328.55 103.42 328.53 103.4 325.46 105.78 324.59 104.65 327.62 102.3 327.63 102.29 327.63 102.29 327.65 102.28 326.87 101.26 325.34 102.44 325.15 102.58 324.43 103.02 324.42 100.69 324.4 98.48 324.4 97.31 324.4 97.14 324.4 97.14 324.4 97.13 324.39 97.15 324.39 97.12 322.4 98.67 322.41 101.76 322.41 102.15 322.43 103.2 322.43 103.43 322.42 103.46 321.15 103.13 320.79 103.03 317.8 102.25 316.56 103.2 315.8 103.78 315.81 103.79 315.8 103.8 319.25 104.7 321.51 105.3 321.57 105.31 321.61 105.33 319.22 107.19 319.2 107.2 319.2 107.2 319.19 107.22 319.97 108.23 323.04 105.85 323.9 106.98 320.85 109.36 321.6 110.34 321.61 110.35 321.61 110.35 321.63 110.37 324.69 107.99 326.7 110.59 328.24 109.4 328.25 109.4 328.25 109.4 328.27 109.38 326.24 106.78 329.31 104.4 328.55 103.42"/><path class="cls-2" d="M302.16,113.6l2.48,0h1.5v0h0l-.59-.76a4.52,4.52,0,0,0,.81-6.33l22.95-17.8v0a4.51,4.51,0,0,0,6.33.81L342,97.62h0a4.53,4.53,0,0,0-.8,6.33l-6.8,5.28L329,113.42h0l0,0,5.23,0,14.62-11.34a.52.52,0,0,0,.09-.71L333.77,81.85a.48.48,0,0,0-.7-.09l-34.33,26.62a.5.5,0,0,0-.08.7Z"/><polygon class="cls-2" points="313.71 113.53 318.67 109.68 318.23 109.09 318.23 109.09 318.23 109.09 318.21 109.07 315 111.56 312.44 113.51 312.48 113.51 312.44 113.53 313.71 113.53"/><polygon class="cls-2" points="329.38 101.37 336.41 95.92 336.49 95.86 336.49 95.86 336.51 95.85 336.04 95.25 329.02 100.69 328.93 100.76 328.93 100.76 328.9 100.77 329.38 101.37"/><path class="cls-2" d="M326.44,145.52h0a0,0,0,0,1,0,0,1.66,1.66,0,0,0-.33.74,2.07,2.07,0,0,0,.35,1.71,1.9,1.9,0,0,0,.33-.74,2,2,0,0,0-.24-1.51A1.63,1.63,0,0,0,326.44,145.52Z"/><path class="cls-2" d="M334.48,141.08a.66.66,0,0,0-.65-.66q-3.9-.19-8-.15c-2.71,0-5.38.08-8,.23a.68.68,0,0,0-.65.68s0,0,0,.07v.86l0,6.31a5,5,0,0,0,5,5l7.32,0a5,5,0,0,0,4.95-5l0-6.32Zm-6.83,2a3.66,3.66,0,0,1,3.31,1.28.55.55,0,0,1,.1.39.51.51,0,0,1-.23.33l-.54.31a.48.48,0,0,1-.57-.1,2,2,0,0,0-1.78-.67h-.2v0h0a3.71,3.71,0,0,1,.58,2.77,3.47,3.47,0,0,1-.45,1.17c0,.05-.06.12-.1.17h0l0,0a3,3,0,0,0,.41,0,2.09,2.09,0,0,0,1.58-.73.47.47,0,0,1,.58-.09l.55.3a.51.51,0,0,1,.22.33.41.41,0,0,1-.1.37,3.58,3.58,0,0,1-2.81,1.35,3.37,3.37,0,0,1-1.72-.41h0a3.6,3.6,0,0,1-1.69.43,3.64,3.64,0,0,1-2.83-1.33.44.44,0,0,1-.1-.37.51.51,0,0,1,.22-.33l.53-.31a.48.48,0,0,1,.59.09,2.09,2.09,0,0,0,1.86.67h.14a3.79,3.79,0,0,1-.59-2.79,3.62,3.62,0,0,1,.49-1.2.83.83,0,0,1,.07-.13h0s0,0,0,0a1.42,1.42,0,0,0-.42,0,2.22,2.22,0,0,0-1.58.73.45.45,0,0,1-.57.1l-.54-.32a.44.44,0,0,1-.22-.31.5.5,0,0,1,.09-.39,3.66,3.66,0,0,1,2.82-1.35,3.93,3.93,0,0,1,1.73.41h0a3.81,3.81,0,0,1,1.2-.38Z"/><path class="cls-2" d="M360.57,141.57,360.48,125a7.9,7.9,0,0,0-7.91-7.82l-9.22,0-5.23,0-9,0-5.23,0-14.72.09h-4l-6.29,0a7.88,7.88,0,0,0-7.82,7.91l.09,16.52v3.29l.07,10.62a9.21,9.21,0,0,0,9.24,9.15l51-.28a9.2,9.2,0,0,0,9.14-9.24l-.06-10.62Zm-22.81.59h0l0,6.15a8.23,8.23,0,0,1-8.17,8.27l-7.31,0a8.22,8.22,0,0,1-8.26-8.17l0-6.17a174,174,0,0,0-17.68,2c-.33.05-.66.09-1,.15l0-3.27A175.74,175.74,0,0,1,314.64,139a4,4,0,0,1,3-1.74c2.67-.13,5.41-.22,8.15-.23s5.49,0,8.14.15a3.93,3.93,0,0,1,3.07,1.71,173.21,173.21,0,0,1,19.36,1.94v3.28a169.91,169.91,0,0,0-18.09-1.92l-.56,0Zm-33-19a.78.78,0,0,1,.53,1.37l-6.91,5.92a.79.79,0,0,1-1.3-.6l0-3.93a2.73,2.73,0,0,1,2.7-2.74Z"/></svg>